<?xml version="1.0" encoding="UTF-8" standalone="no"?>
<!-- Created with Inkscape (http://www.inkscape.org/) -->

<svg
   xmlns:dc="http://purl.org/dc/elements/1.1/"
   xmlns:cc="http://creativecommons.org/ns#"
   xmlns:rdf="http://www.w3.org/1999/02/22-rdf-syntax-ns#"
   xmlns:svg="http://www.w3.org/2000/svg"
   xmlns="http://www.w3.org/2000/svg"
   xmlns:sodipodi="http://sodipodi.sourceforge.net/DTD/sodipodi-0.dtd"
   xmlns:inkscape="http://www.inkscape.org/namespaces/inkscape"
   id="svg3020"
   version="1.1"
   inkscape:version="0.48.4 r9939"
   width="495"
   height="112.5"
   xml:space="preserve"
   sodipodi:docname="mnl_avalon_spec.pdf"
   inkscape:export-filename="/home/player999/Work/disseratation/My_articles/monography/pics/master_write.png"
   inkscape:export-xdpi="300"
   inkscape:export-ydpi="300"><metadata
     id="metadata3026"><rdf:RDF><cc:Work
         rdf:about=""><dc:format>image/svg+xml</dc:format><dc:type
           rdf:resource="http://purl.org/dc/dcmitype/StillImage" /><dc:title></dc:title></cc:Work></rdf:RDF></metadata><defs
     id="defs3024"><clipPath
       clipPathUnits="userSpaceOnUse"
       id="clipPath3046"><path
         d="m 54,584.04 396,0 0,-6 -396,0 0,6 z"
         clip-rule="evenodd"
         id="path3048"
         inkscape:connector-curvature="0" /></clipPath><clipPath
       clipPathUnits="userSpaceOnUse"
       id="clipPath3182"><path
         d="m 54,357 396,0 0,-10.02 -396,0 0,10.02 z"
         clip-rule="evenodd"
         id="path3184"
         inkscape:connector-curvature="0" /></clipPath><clipPath
       clipPathUnits="userSpaceOnUse"
       id="clipPath3272"><path
         d="m 54,562.98 396,0 0,-90 -396,0 0,90 z"
         clip-rule="evenodd"
         id="path3274"
         inkscape:connector-curvature="0" /></clipPath><clipPath
       clipPathUnits="userSpaceOnUse"
       id="clipPath3296"><path
         d="m 78.013,555.42 371.987,0 0,-74.854 -371.987,0 0,74.854 z"
         id="path3298"
         inkscape:connector-curvature="0" /></clipPath><clipPath
       clipPathUnits="userSpaceOnUse"
       id="clipPath3322"><path
         d="m 78.013,555.42 371.987,0 0,-74.854 -371.987,0 0,74.854 z"
         id="path3324"
         inkscape:connector-curvature="0" /></clipPath><clipPath
       clipPathUnits="userSpaceOnUse"
       id="clipPath3350"><path
         d="m 78.013,555.42 371.987,0 0,-74.854 -371.987,0 0,74.854 z"
         id="path3352"
         inkscape:connector-curvature="0" /></clipPath><clipPath
       clipPathUnits="userSpaceOnUse"
       id="clipPath3376"><path
         d="m 78.013,555.42 371.987,0 0,-74.854 -371.987,0 0,74.854 z"
         id="path3378"
         inkscape:connector-curvature="0" /></clipPath><clipPath
       clipPathUnits="userSpaceOnUse"
       id="clipPath3390"><path
         d="m 78.013,555.42 371.987,0 0,-74.854 -371.987,0 0,74.854 z"
         id="path3392"
         inkscape:connector-curvature="0" /></clipPath><clipPath
       clipPathUnits="userSpaceOnUse"
       id="clipPath3402"><path
         d="m 78.013,555.42 371.987,0 0,-74.854 -371.987,0 0,74.854 z"
         id="path3404"
         inkscape:connector-curvature="0" /></clipPath><clipPath
       clipPathUnits="userSpaceOnUse"
       id="clipPath3416"><path
         d="m 78.013,555.42 371.987,0 0,-74.854 -371.987,0 0,74.854 z"
         id="path3418"
         inkscape:connector-curvature="0" /></clipPath></defs><sodipodi:namedview
     pagecolor="#ffffff"
     bordercolor="#666666"
     borderopacity="1"
     objecttolerance="10"
     gridtolerance="10"
     guidetolerance="10"
     inkscape:pageopacity="0"
     inkscape:pageshadow="2"
     inkscape:window-width="1366"
     inkscape:window-height="744"
     id="namedview3022"
     showgrid="false"
     fit-margin-top="0"
     fit-margin-left="0"
     fit-margin-right="0"
     fit-margin-bottom="0"
     inkscape:zoom="1.0423278"
     inkscape:cx="408.52559"
     inkscape:cy="39.670348"
     inkscape:window-x="0"
     inkscape:window-y="24"
     inkscape:window-maximized="1"
     inkscape:current-layer="g3028" /><g
     id="g3028"
     inkscape:groupmode="layer"
     inkscape:label="mnl_avalon_spec"
     transform="matrix(1.25,0,0,-1.25,-67.5,703.725)"><g
       id="g3268"><g
         id="g3270"
         clip-path="url(#clipPath3272)"><path
           d="m 54,472.98 396,0 0,90 -396,0 0,-90 z"
           style="fill:#ffffff;fill-opacity:1;fill-rule:nonzero;stroke:none"
           id="path3276"
           inkscape:connector-curvature="0" /><path
           d="m 78,480.54 372,0 0,74.88 -372,0 0,-74.88 z"
           style="fill:#ffffff;fill-opacity:1;fill-rule:nonzero;stroke:none"
           id="path3278"
           inkscape:connector-curvature="0" /></g></g><text
       transform="matrix(0.99998398,0,0,-1,124.0948,534.8093)"
       id="text3280"><tspan
         style="font-size:6.24030018px;font-variant:normal;font-weight:normal;writing-mode:lr-tb;fill:#231f20;fill-opacity:1;fill-rule:nonzero;stroke:none;font-family:Helvetica;-inkscape-font-specification:Helvetica"
         x="0 3.1201501 4.5054965"
         y="0"
         sodipodi:role="line"
         id="tspan3282">clk</tspan><tspan
         style="font-size:6.24030018px;font-variant:normal;font-weight:normal;writing-mode:lr-tb;fill:#231f20;fill-opacity:1;fill-rule:nonzero;stroke:none;font-family:Helvetica;-inkscape-font-specification:Helvetica"
         x="-46.082119 -42.612511 -39.142906 -35.673298 -33.59528 -30.125671 -27.005522 -23.885372 -22.150568 -18.680962 -15.560812 -13.826009 -10.356401 -6.886795 -3.4171882 0.052418519 3.5220253 4.907372"
         y="12.4806"
         sodipodi:role="line"
         id="tspan3284">address,byteenable</tspan><tspan
         style="font-size:6.24030018px;font-variant:normal;font-weight:normal;writing-mode:lr-tb;fill:#231f20;fill-opacity:1;fill-rule:nonzero;stroke:none;font-family:Helvetica;-inkscape-font-specification:Helvetica"
         x="-16.800137 -12.294639 -10.216619 -8.8312721 -7.0964689 -3.6268623 -0.15725556 3.3123512 5.0471544"
         y="24.960575"
         sodipodi:role="line"
         id="tspan3286">writedata</tspan><tspan
         style="font-size:6.24030018px;font-variant:normal;font-weight:normal;writing-mode:lr-tb;fill:#231f20;fill-opacity:1;fill-rule:nonzero;stroke:none;font-family:Helvetica;-inkscape-font-specification:Helvetica"
         x="-4.7994146 -0.29391813 1.7841017 3.1694484 4.9042516"
         y="37.441799"
         sodipodi:role="line"
         id="tspan3288">write</tspan><tspan
         style="font-size:6.24030018px;font-variant:normal;font-weight:normal;writing-mode:lr-tb;fill:#231f20;fill-opacity:1;fill-rule:nonzero;stroke:none;font-family:Helvetica;-inkscape-font-specification:Helvetica"
         x="-23.520315 -19.014818 -15.545212 -14.159864 -12.425061 -10.347041 -6.8774347 -3.4078279 0.06177897 3.5313857 6.651536"
         y="49.923023"
         sodipodi:role="line"
         id="tspan3290">waitrequest</tspan></text>
<g
       id="g3292"><g
         id="g3294"
         clip-path="url(#clipPath3296)"><path
           d="m 163.937,532.409 -29.282,0 m 29.282,0 0,8.64 m 0,0 36.961,0 m 0,0 0,-8.64 m 0,0 36.481,0 m 0,0 0,8.64 m 0,0 36.962,0 m 0,0 0,-8.64 m 0,0 36.481,0 m 0,0 0,8.64 m 0,0 36.962,0 m 0,0 0,-8.64 m 0,0 36.481,0 m 0,0 0,8.64 m 0,0 36.962,0 m 0,0 0,-8.64 m 0,0 29.281,0"
           style="fill:none;stroke:#231f20;stroke-width:0.47999999;stroke-linecap:butt;stroke-linejoin:miter;stroke-miterlimit:10;stroke-opacity:1;stroke-dasharray:none"
           id="path3300"
           inkscape:connector-curvature="0" /></g></g><path
       d="m 134.655,519.929 43.682,0 0,8.64 -43.682,0 0,-8.64 z"
       style="fill:#918f90;fill-opacity:1;fill-rule:nonzero;stroke:none"
       id="path3302"
       inkscape:connector-curvature="0" /><path
       d="m 134.655,519.929 43.202,0 m -43.202,8.64 43.202,0"
       style="fill:none;stroke:#231f20;stroke-width:0.47999999;stroke-linecap:butt;stroke-linejoin:miter;stroke-miterlimit:10;stroke-opacity:1;stroke-dasharray:none"
       id="path3304"
       inkscape:connector-curvature="0" /><path
       d="m 179.297,524.249 -1.44,-4.32 0,8.64 1.44,-4.32"
       style="fill:#918f90;fill-opacity:1;fill-rule:nonzero;stroke:none"
       id="path3306"
       inkscape:connector-curvature="0" /><path
       d="m 177.857,519.929 2.88,8.64 m -2.88,0 2.88,-8.64 m 0,0 216.97,0 m -216.97,8.64 216.97,0"
       style="fill:none;stroke:#231f20;stroke-width:0.47999999;stroke-linecap:butt;stroke-linejoin:miter;stroke-miterlimit:10;stroke-opacity:1;stroke-dasharray:none"
       id="path3308"
       inkscape:connector-curvature="0" /><text
       transform="matrix(0.99998398,0,0,-1,260.9002,522.3288)"
       id="text3310"><tspan
         style="font-size:6.24030018px;font-variant:normal;font-weight:normal;writing-mode:lr-tb;fill:#231f20;fill-opacity:1;fill-rule:nonzero;stroke:none;font-family:Helvetica;-inkscape-font-specification:Helvetica"
         x="0 3.4696069 6.9392138 10.40882 12.48684 15.956447 19.076597 22.196747 23.931551 25.666353 29.135962 32.256111 33.990913 37.460522 40.930126 44.399734 47.869343 51.338947 52.724297"
         y="0"
         sodipodi:role="line"
         id="tspan3312">address, byteenable</tspan></text>
<path
       d="m 399.146,524.249 1.92,-4.32 0,8.64 -1.92,-4.32"
       style="fill:#918f90;fill-opacity:1;fill-rule:nonzero;stroke:none"
       id="path3314"
       inkscape:connector-curvature="0" /><path
       d="m 397.707,519.929 2.88,8.64 m -2.88,0 2.88,-8.64"
       style="fill:none;stroke:#231f20;stroke-width:0.47999999;stroke-linecap:butt;stroke-linejoin:miter;stroke-miterlimit:10;stroke-opacity:1;stroke-dasharray:none"
       id="path3316"
       inkscape:connector-curvature="0" /><g
       id="g3318"><g
         id="g3320"
         clip-path="url(#clipPath3322)"><path
           d="m 400.587,519.929 49.413,0 0,8.64 -49.413,0 0,-8.64 z"
           style="fill:#918f90;fill-opacity:1;fill-rule:nonzero;stroke:none"
           id="path3326"
           inkscape:connector-curvature="0" /><path
           d="m 400.587,519.929 49.921,0 m -49.921,8.64 49.921,0"
           style="fill:none;stroke:#231f20;stroke-width:0.47999999;stroke-linecap:butt;stroke-linejoin:miter;stroke-miterlimit:10;stroke-opacity:1;stroke-dasharray:none"
           id="path3328"
           inkscape:connector-curvature="0" /></g></g><path
       d="m 134.655,507.448 43.682,0 0,8.64 -43.682,0 0,-8.64 z"
       style="fill:#918f90;fill-opacity:1;fill-rule:nonzero;stroke:none"
       id="path3330"
       inkscape:connector-curvature="0" /><path
       d="m 134.655,507.448 43.202,0 m -43.202,8.64 43.202,0"
       style="fill:none;stroke:#231f20;stroke-width:0.47999999;stroke-linecap:butt;stroke-linejoin:miter;stroke-miterlimit:10;stroke-opacity:1;stroke-dasharray:none"
       id="path3332"
       inkscape:connector-curvature="0" /><path
       d="m 179.297,511.769 -1.44,-4.321 0,8.64 1.44,-4.319"
       style="fill:#918f90;fill-opacity:1;fill-rule:nonzero;stroke:none"
       id="path3334"
       inkscape:connector-curvature="0" /><path
       d="m 177.857,507.448 2.88,8.64 m -2.88,0 2.88,-8.64 m 0,0 216.97,0 m -216.97,8.64 216.97,0"
       style="fill:none;stroke:#231f20;stroke-width:0.47999999;stroke-linecap:butt;stroke-linejoin:miter;stroke-miterlimit:10;stroke-opacity:1;stroke-dasharray:none"
       id="path3336"
       inkscape:connector-curvature="0" /><text
       transform="matrix(0.99998398,0,0,-1,276.7409,509.8487)"
       id="text3338"><tspan
         style="font-size:6.24030018px;font-variant:normal;font-weight:normal;writing-mode:lr-tb;fill:#231f20;fill-opacity:1;fill-rule:nonzero;stroke:none;font-family:Helvetica;-inkscape-font-specification:Helvetica"
         x="0 4.5054965 6.5835166 7.968863 9.7036667 13.173273 16.642879 20.112488 21.84729"
         y="0"
         sodipodi:role="line"
         id="tspan3340">writedata</tspan></text>
<path
       d="m 399.146,511.769 1.92,-4.321 0,8.64 -1.92,-4.319"
       style="fill:#918f90;fill-opacity:1;fill-rule:nonzero;stroke:none"
       id="path3342"
       inkscape:connector-curvature="0" /><path
       d="m 397.707,507.448 2.88,8.64 m -2.88,0 2.88,-8.64"
       style="fill:none;stroke:#231f20;stroke-width:0.47999999;stroke-linecap:butt;stroke-linejoin:miter;stroke-miterlimit:10;stroke-opacity:1;stroke-dasharray:none"
       id="path3344"
       inkscape:connector-curvature="0" /><g
       id="g3346"><g
         id="g3348"
         clip-path="url(#clipPath3350)"><path
           d="m 400.587,507.448 49.413,0 0,8.64 -49.413,0 0,-8.64 z"
           style="fill:#918f90;fill-opacity:1;fill-rule:nonzero;stroke:none"
           id="path3354"
           inkscape:connector-curvature="0" /><path
           d="m 400.587,507.448 49.921,0 m -49.921,8.64 49.921,0"
           style="fill:none;stroke:#231f20;stroke-width:0.47999999;stroke-linecap:butt;stroke-linejoin:miter;stroke-miterlimit:10;stroke-opacity:1;stroke-dasharray:none"
           id="path3356"
           inkscape:connector-curvature="0" /></g></g><path
       d="m 134.655,494.967 43.682,0 0,8.6411 -43.682,0 0,-8.6411 z"
       style="fill:#918f90;fill-opacity:1;fill-rule:nonzero;stroke:none"
       id="path3358"
       inkscape:connector-curvature="0" /><path
       d="m 134.655,494.967 43.202,0 m -43.202,8.641 43.202,0"
       style="fill:none;stroke:#231f20;stroke-width:0.47999999;stroke-linecap:butt;stroke-linejoin:miter;stroke-miterlimit:10;stroke-opacity:1;stroke-dasharray:none"
       id="path3360"
       inkscape:connector-curvature="0" /><path
       d="m 180.737,503.608 -2.88,-8.641 0,8.641 2.88,0"
       style="fill:#918f90;fill-opacity:1;fill-rule:nonzero;stroke:none"
       id="path3362"
       inkscape:connector-curvature="0" /><path
       d="m 177.857,494.967 2.88,8.641 m -2.88,0 2.88,0 m 0,0 217.449,0"
       style="fill:none;stroke:#231f20;stroke-width:0.47999999;stroke-linecap:butt;stroke-linejoin:miter;stroke-miterlimit:10;stroke-opacity:1;stroke-dasharray:none"
       id="path3364"
       inkscape:connector-curvature="0" /><path
       d="m 398.186,503.608 3.361,-8.641 0,8.641 -3.361,0"
       style="fill:#918f90;fill-opacity:1;fill-rule:nonzero;stroke:none"
       id="path3366"
       inkscape:connector-curvature="0" /><path
       d="m 398.186,503.608 3.361,-8.641 0,8.641 -3.361,0"
       style="fill:#918f90;fill-opacity:1;fill-rule:nonzero;stroke:none"
       id="path3368"
       inkscape:connector-curvature="0" /><path
       d="m 398.186,503.608 2.88,-8.641 m -2.88,8.641 2.88,0"
       style="fill:none;stroke:#231f20;stroke-width:0.47999999;stroke-linecap:butt;stroke-linejoin:miter;stroke-miterlimit:10;stroke-opacity:1;stroke-dasharray:none"
       id="path3370"
       inkscape:connector-curvature="0" /><g
       id="g3372"><g
         id="g3374"
         clip-path="url(#clipPath3376)"><path
           d="m 401.066,494.967 48.934,0 0,8.6411 -48.934,0 0,-8.6411 z"
           style="fill:#918f90;fill-opacity:1;fill-rule:nonzero;stroke:none"
           id="path3380"
           inkscape:connector-curvature="0" /><path
           d="m 401.066,494.967 49.442,0 m -49.442,8.641 49.442,0"
           style="fill:none;stroke:#231f20;stroke-width:0.47999999;stroke-linecap:butt;stroke-linejoin:miter;stroke-miterlimit:10;stroke-opacity:1;stroke-dasharray:none"
           id="path3382"
           inkscape:connector-curvature="0" /></g></g><path
       d="m 134.655,482.486 70.083,0 0,8.641 -70.083,0 0,-8.641 z"
       style="fill:#918f90;fill-opacity:1;fill-rule:nonzero;stroke:none"
       id="path3384"
       inkscape:connector-curvature="0" /><g
       id="g3386"><g
         id="g3388"
         clip-path="url(#clipPath3390)"><path
           d="m 134.655,482.486 69.603,0 m -69.603,8.641 69.603,0"
           style="fill:none;stroke:#231f20;stroke-width:0.47999999;stroke-linecap:butt;stroke-linejoin:miter;stroke-miterlimit:10;stroke-opacity:1;stroke-dasharray:none"
           id="path3394"
           inkscape:connector-curvature="0" /></g></g><path
       d="m 207.138,491.127 -2.88,-8.641 0,8.641 2.88,0"
       style="fill:#918f90;fill-opacity:1;fill-rule:nonzero;stroke:none"
       id="path3396"
       inkscape:connector-curvature="0" /><g
       id="g3398"><g
         id="g3400"
         clip-path="url(#clipPath3402)"><path
           d="m 204.258,482.486 2.88,8.641 m -2.88,0 2.88,0 137.766,0 m 0,0 2.88,-8.641 m 0,0 60.962,0"
           style="fill:none;stroke:#231f20;stroke-width:0.47999999;stroke-linecap:butt;stroke-linejoin:miter;stroke-miterlimit:10;stroke-opacity:1;stroke-dasharray:none"
           id="path3406"
           inkscape:connector-curvature="0" /></g></g><path
       d="m 408.746,482.486 3.36,0 0,8.641 -3.36,-8.641"
       style="fill:#918f90;fill-opacity:1;fill-rule:nonzero;stroke:none"
       id="path3408"
       inkscape:connector-curvature="0" /><path
       d="m 408.746,482.486 3.36,0 0,8.641 -3.36,-8.641"
       style="fill:#918f90;fill-opacity:1;fill-rule:nonzero;stroke:none"
       id="path3410"
       inkscape:connector-curvature="0" /><g
       id="g3412"><g
         id="g3414"
         clip-path="url(#clipPath3416)"><path
           d="m 408.746,482.486 2.881,0 m -2.881,0 2.881,8.641"
           style="fill:none;stroke:#231f20;stroke-width:0.47999999;stroke-linecap:butt;stroke-linejoin:miter;stroke-miterlimit:10;stroke-opacity:1;stroke-dasharray:none"
           id="path3420"
           inkscape:connector-curvature="0" /><path
           d="m 411.627,482.486 38.373,0 0,8.641 -38.373,0 0,-8.641 z"
           style="fill:#918f90;fill-opacity:1;fill-rule:nonzero;stroke:none"
           id="path3422"
           inkscape:connector-curvature="0" /><path
           d="m 411.627,482.486 38.881,0 m -38.881,8.641 38.881,0"
           style="fill:none;stroke:#231f20;stroke-width:0.47999999;stroke-linecap:butt;stroke-linejoin:miter;stroke-miterlimit:10;stroke-opacity:1;stroke-dasharray:none"
           id="path3424"
           inkscape:connector-curvature="0" /><path
           d="m 163.937,555.45 0,-74.884 m 18.24,74.884 0,-74.884 m 55.202,74.884 0,-74.884 m 73.443,74.884 0,-74.884 m 38.402,74.884 0,-74.884 m 35.041,74.884 0,-74.884"
           style="fill:none;stroke:none"
           id="path3426"
           inkscape:connector-curvature="0" /></g></g><text
       transform="matrix(0.99998398,0,0,-1,164.4167,547.7698)"
       id="text3428"><tspan
         style="font-size:6.24030018px;font-variant:normal;font-weight:normal;writing-mode:lr-tb;fill:#231f20;fill-opacity:1;fill-rule:nonzero;stroke:none;font-family:Helvetica;-inkscape-font-specification:Helvetica"
         x="0 18.240396 73.923218 140.83171 186.7285 221.76778"
         y="0"
         sodipodi:role="line"
         id="tspan3430">ABCDEF</tspan></text>
</g></svg>