<?xml version="1.0" encoding="UTF-8" standalone="no"?>
<!-- Created with Inkscape (http://www.inkscape.org/) -->

<svg
   xmlns:dc="http://purl.org/dc/elements/1.1/"
   xmlns:cc="http://creativecommons.org/ns#"
   xmlns:rdf="http://www.w3.org/1999/02/22-rdf-syntax-ns#"
   xmlns:svg="http://www.w3.org/2000/svg"
   xmlns="http://www.w3.org/2000/svg"
   xmlns:sodipodi="http://sodipodi.sourceforge.net/DTD/sodipodi-0.dtd"
   xmlns:inkscape="http://www.inkscape.org/namespaces/inkscape"
   id="svg4651"
   version="1.1"
   inkscape:version="0.48.4 r9939"
   width="495"
   height="112.5"
   xml:space="preserve"
   sodipodi:docname="mnl_avalon_spec.pdf"
   inkscape:export-filename="/home/player999/Work/disseratation/My_articles/monography/pics/master_read.png"
   inkscape:export-xdpi="300"
   inkscape:export-ydpi="300"><metadata
     id="metadata4657"><rdf:RDF><cc:Work
         rdf:about=""><dc:format>image/svg+xml</dc:format><dc:type
           rdf:resource="http://purl.org/dc/dcmitype/StillImage" /><dc:title></dc:title></cc:Work></rdf:RDF></metadata><defs
     id="defs4655"><clipPath
       clipPathUnits="userSpaceOnUse"
       id="clipPath4677"><path
         d="m 54,584.04 396,0 0,-6 -396,0 0,6 z"
         clip-rule="evenodd"
         id="path4679"
         inkscape:connector-curvature="0" /></clipPath><clipPath
       clipPathUnits="userSpaceOnUse"
       id="clipPath4829"><path
         d="m 54,357 396,0 0,-10.02 -396,0 0,10.02 z"
         clip-rule="evenodd"
         id="path4831"
         inkscape:connector-curvature="0" /></clipPath><clipPath
       clipPathUnits="userSpaceOnUse"
       id="clipPath4955"><path
         d="m 54,562.98 396,0 0,-90 -396,0 0,90 z"
         clip-rule="evenodd"
         id="path4957"
         inkscape:connector-curvature="0" /></clipPath><clipPath
       clipPathUnits="userSpaceOnUse"
       id="clipPath4979"><path
         d="m 77.04,556.98 372.96,0 0,-74.853 -372.96,0 0,74.853 z"
         id="path4981"
         inkscape:connector-curvature="0" /></clipPath><clipPath
       clipPathUnits="userSpaceOnUse"
       id="clipPath5005"><path
         d="m 77.04,556.98 372.96,0 0,-74.853 -372.96,0 0,74.853 z"
         id="path5007"
         inkscape:connector-curvature="0" /></clipPath><clipPath
       clipPathUnits="userSpaceOnUse"
       id="clipPath5031"><path
         d="m 77.04,556.98 372.96,0 0,-74.853 -372.96,0 0,74.853 z"
         id="path5033"
         inkscape:connector-curvature="0" /></clipPath><clipPath
       clipPathUnits="userSpaceOnUse"
       id="clipPath5057"><path
         d="m 77.04,556.98 372.96,0 0,-74.853 -372.96,0 0,74.853 z"
         id="path5059"
         inkscape:connector-curvature="0" /></clipPath><clipPath
       clipPathUnits="userSpaceOnUse"
       id="clipPath5071"><path
         d="m 77.04,556.98 372.96,0 0,-74.853 -372.96,0 0,74.853 z"
         id="path5073"
         inkscape:connector-curvature="0" /></clipPath><clipPath
       clipPathUnits="userSpaceOnUse"
       id="clipPath5083"><path
         d="m 77.04,556.98 372.96,0 0,-74.853 -372.96,0 0,74.853 z"
         id="path5085"
         inkscape:connector-curvature="0" /></clipPath><clipPath
       clipPathUnits="userSpaceOnUse"
       id="clipPath5099"><path
         d="m 77.04,556.98 372.96,0 0,-74.853 -372.96,0 0,74.853 z"
         id="path5101"
         inkscape:connector-curvature="0" /></clipPath><clipPath
       clipPathUnits="userSpaceOnUse"
       id="clipPath5165"><path
         d="m 77.04,556.98 372.96,0 0,-74.853 -372.96,0 0,74.853 z"
         id="path5167"
         inkscape:connector-curvature="0" /></clipPath><clipPath
       clipPathUnits="userSpaceOnUse"
       id="clipPath5177"><path
         d="m 77.04,556.98 372.96,0 0,-74.853 -372.96,0 0,74.853 z"
         id="path5179"
         inkscape:connector-curvature="0" /></clipPath><clipPath
       clipPathUnits="userSpaceOnUse"
       id="clipPath5189"><path
         d="m 77.04,556.98 372.96,0 0,-74.853 -372.96,0 0,74.853 z"
         id="path5191"
         inkscape:connector-curvature="0" /></clipPath><clipPath
       clipPathUnits="userSpaceOnUse"
       id="clipPath5249"><path
         d="m 77.04,556.98 372.96,0 0,-74.853 -372.96,0 0,74.853 z"
         id="path5251"
         inkscape:connector-curvature="0" /></clipPath><clipPath
       clipPathUnits="userSpaceOnUse"
       id="clipPath5261"><path
         d="m 77.04,556.98 372.96,0 0,-74.853 -372.96,0 0,74.853 z"
         id="path5263"
         inkscape:connector-curvature="0" /></clipPath><clipPath
       clipPathUnits="userSpaceOnUse"
       id="clipPath5273"><path
         d="m 77.04,556.98 372.96,0 0,-74.853 -372.96,0 0,74.853 z"
         id="path5275"
         inkscape:connector-curvature="0" /></clipPath></defs><sodipodi:namedview
     pagecolor="#ffffff"
     bordercolor="#666666"
     borderopacity="1"
     objecttolerance="10"
     gridtolerance="10"
     guidetolerance="10"
     inkscape:pageopacity="0"
     inkscape:pageshadow="2"
     inkscape:window-width="1366"
     inkscape:window-height="744"
     id="namedview4653"
     showgrid="false"
     fit-margin-top="0"
     fit-margin-left="0"
     fit-margin-right="0"
     fit-margin-bottom="0"
     inkscape:zoom="1.1654321"
     inkscape:cx="432.89779"
     inkscape:cy="-50.896397"
     inkscape:window-x="0"
     inkscape:window-y="24"
     inkscape:window-maximized="1"
     inkscape:current-layer="g4659" /><g
     id="g4659"
     inkscape:groupmode="layer"
     inkscape:label="mnl_avalon_spec"
     transform="matrix(1.25,0,0,-1.25,-67.5,703.725)"><g
       id="g4951"><g
         id="g4953"
         clip-path="url(#clipPath4955)"><path
           d="m 54,472.98 396,0 0,90 -396,0 0,-90 z"
           style="fill:#ffffff;fill-opacity:1;fill-rule:nonzero;stroke:none"
           id="path4959"
           inkscape:connector-curvature="0" /></g></g><path
       d="m 77.04,482.1 372.96,0 0,74.88 -372.96,0 0,-74.88 z"
       style="fill:#ffffff;fill-opacity:1;fill-rule:nonzero;stroke:none"
       id="path4961"
       inkscape:connector-curvature="0" /><text
       transform="scale(1,-1)"
       id="text4963"
       x="123.11501"
       y="-536.36877"><tspan
         style="font-size:6.24020004px;font-variant:normal;font-weight:normal;writing-mode:lr-tb;fill:#231f20;fill-opacity:1;fill-rule:nonzero;stroke:none;font-family:Helvetica;-inkscape-font-specification:Helvetica"
         x="123.11501 126.23513 127.62045"
         y="-536.36877"
         sodipodi:role="line"
         id="tspan4965">clk</tspan><tspan
         style="font-size:6.24020004px;font-variant:normal;font-weight:normal;writing-mode:lr-tb;fill:#231f20;fill-opacity:1;fill-rule:nonzero;stroke:none;font-family:Helvetica;-inkscape-font-specification:Helvetica"
         x="77.033623 80.503166 83.97271 87.442253 89.520256 92.989799 96.109917 99.230034 100.96478 104.43438 107.55447 109.28921 112.75875 116.22836 119.6979 123.16744 126.63699 128.02231"
         y="-523.88837"
         sodipodi:role="line"
         id="tspan4967">address,byteenable</tspan><tspan
         style="font-size:6.24020004px;font-variant:normal;font-weight:normal;writing-mode:lr-tb;fill:#231f20;fill-opacity:1;fill-rule:nonzero;stroke:none;font-family:Helvetica;-inkscape-font-specification:Helvetica"
         x="119.27541 121.35342 124.82296 128.29251"
         y="-511.40738"
         sodipodi:role="line"
         id="tspan4969">read</tspan><tspan
         style="font-size:6.24020004px;font-variant:normal;font-weight:normal;writing-mode:lr-tb;fill:#231f20;fill-opacity:1;fill-rule:nonzero;stroke:none;font-family:Helvetica;-inkscape-font-specification:Helvetica"
         x="99.594414 104.09985 107.56942 108.95473 110.68954 112.76754 116.23708 119.70663 123.17617 126.64571 129.76584"
         y="-498.92758"
         sodipodi:role="line"
         id="tspan4971">waitrequest</tspan><tspan
         style="font-size:6.24020004px;font-variant:normal;font-weight:normal;writing-mode:lr-tb;fill:#231f20;fill-opacity:1;fill-rule:nonzero;stroke:none;font-family:Helvetica;-inkscape-font-specification:Helvetica"
         x="107.27486 109.35287 112.82241 116.29195 119.76156 123.2311 126.70065 128.43539"
         y="-486.44656"
         sodipodi:role="line"
         id="tspan4973">readdata</tspan></text>
<g
       id="g4975"><g
         id="g4977"
         clip-path="url(#clipPath4979)"><path
           d="m 162.957,533.969 -29.282,0 m 29.282,0 0,8.64 m 0,0 36.961,0 m 0,0 0,-8.64 m 0,0 36.481,0 m 0,0 0,8.64 m 0,0 36.962,0 m 0,0 0,-8.64 m 0,0 36.481,0 m 0,0 0,8.64 m 0,0 36.962,0 m 0,0 0,-8.64 m 0,0 36.481,0 m 0,0 0,8.64 m 0,0 36.962,0 m 0,0 0,-8.64 m 0,0 29.281,0"
           style="fill:none;stroke:#231f20;stroke-width:0.47999999;stroke-linecap:butt;stroke-linejoin:miter;stroke-miterlimit:10;stroke-opacity:1;stroke-dasharray:none"
           id="path4983"
           inkscape:connector-curvature="0" /></g></g><path
       d="m 133.675,521.488 43.682,0 0,8.64 -43.682,0 0,-8.64 z"
       style="fill:#918f90;fill-opacity:1;fill-rule:nonzero;stroke:none"
       id="path4985"
       inkscape:connector-curvature="0" /><path
       d="m 133.675,521.488 43.202,0 m -43.202,8.64 43.202,0"
       style="fill:none;stroke:#231f20;stroke-width:0.47999999;stroke-linecap:butt;stroke-linejoin:miter;stroke-miterlimit:10;stroke-opacity:1;stroke-dasharray:none"
       id="path4987"
       inkscape:connector-curvature="0" /><path
       d="m 178.317,525.808 -1.44,-4.32 0,8.64 1.44,-4.32"
       style="fill:#918f90;fill-opacity:1;fill-rule:nonzero;stroke:none"
       id="path4989"
       inkscape:connector-curvature="0" /><path
       d="m 176.877,521.488 2.88,8.64 m -2.88,0 2.88,-8.64 m 0,0 216.97,0 m -216.97,8.64 216.97,0"
       style="fill:none;stroke:#231f20;stroke-width:0.47999999;stroke-linecap:butt;stroke-linejoin:miter;stroke-miterlimit:10;stroke-opacity:1;stroke-dasharray:none"
       id="path4991"
       inkscape:connector-curvature="0" /><text
       transform="matrix(1,0,0,-1,260.8805,523.8883)"
       id="text4993"><tspan
         style="font-size:6.24020004px;font-variant:normal;font-weight:normal;writing-mode:lr-tb;fill:#231f20;fill-opacity:1;fill-rule:nonzero;stroke:none;font-family:Helvetica;-inkscape-font-specification:Helvetica"
         x="0 3.4695511 6.9391022 10.408653 12.48664 15.956191 19.076292 22.196392 23.931168 27.400719 30.520819 32.255592 35.725143 39.194695 42.664246 46.133801 49.603352 50.988674"
         y="0"
         sodipodi:role="line"
         id="tspan4995">address,byteenable</tspan></text>
<path
       d="m 398.166,525.808 1.92,-4.32 0,8.64 -1.92,-4.32"
       style="fill:#918f90;fill-opacity:1;fill-rule:nonzero;stroke:none"
       id="path4997"
       inkscape:connector-curvature="0" /><path
       d="m 396.727,521.488 2.88,8.64 m -2.88,0 2.88,-8.64"
       style="fill:none;stroke:#231f20;stroke-width:0.47999999;stroke-linecap:butt;stroke-linejoin:miter;stroke-miterlimit:10;stroke-opacity:1;stroke-dasharray:none"
       id="path4999"
       inkscape:connector-curvature="0" /><g
       id="g5001"><g
         id="g5003"
         clip-path="url(#clipPath5005)"><path
           d="m 399.607,521.488 50.393,0 0,8.64 -50.393,0 0,-8.64 z"
           style="fill:#918f90;fill-opacity:1;fill-rule:nonzero;stroke:none"
           id="path5009"
           inkscape:connector-curvature="0" /><path
           d="m 399.607,521.488 49.921,0 m -49.921,8.64 49.921,0"
           style="fill:none;stroke:#231f20;stroke-width:0.47999999;stroke-linecap:butt;stroke-linejoin:miter;stroke-miterlimit:10;stroke-opacity:1;stroke-dasharray:none"
           id="path5011"
           inkscape:connector-curvature="0" /></g></g><path
       d="m 133.675,509.008 43.202,0 0,8.64 -43.202,0 0,-8.64 z"
       style="fill:#918f90;fill-opacity:1;fill-rule:nonzero;stroke:none"
       id="path5013"
       inkscape:connector-curvature="0" /><path
       d="m 133.675,509.008 42.722,0 m -42.722,8.64 42.722,0"
       style="fill:none;stroke:#231f20;stroke-width:0.47999999;stroke-linecap:butt;stroke-linejoin:miter;stroke-miterlimit:10;stroke-opacity:1;stroke-dasharray:none"
       id="path5015"
       inkscape:connector-curvature="0" /><path
       d="m 179.277,517.648 -2.88,-8.64 0,8.64 2.88,0"
       style="fill:#918f90;fill-opacity:1;fill-rule:nonzero;stroke:none"
       id="path5017"
       inkscape:connector-curvature="0" /><path
       d="m 176.397,509.008 2.88,8.64 m -2.88,0 2.88,0 m 0,0 217.929,0"
       style="fill:none;stroke:#231f20;stroke-width:0.47999999;stroke-linecap:butt;stroke-linejoin:miter;stroke-miterlimit:10;stroke-opacity:1;stroke-dasharray:none"
       id="path5019"
       inkscape:connector-curvature="0" /><path
       d="m 397.206,517.648 3.361,-8.64 0,8.64 -3.361,0"
       style="fill:#918f90;fill-opacity:1;fill-rule:nonzero;stroke:none"
       id="path5021"
       inkscape:connector-curvature="0" /><path
       d="m 397.206,517.648 3.361,-8.64 0,8.64 -3.361,0"
       style="fill:#918f90;fill-opacity:1;fill-rule:nonzero;stroke:none"
       id="path5023"
       inkscape:connector-curvature="0" /><path
       d="m 397.206,517.648 2.88,-8.64 m -2.88,8.64 2.88,0"
       style="fill:none;stroke:#231f20;stroke-width:0.47999999;stroke-linecap:butt;stroke-linejoin:miter;stroke-miterlimit:10;stroke-opacity:1;stroke-dasharray:none"
       id="path5025"
       inkscape:connector-curvature="0" /><g
       id="g5027"><g
         id="g5029"
         clip-path="url(#clipPath5031)"><path
           d="m 400.086,509.008 49.914,0 0,8.64 -49.914,0 0,-8.64 z"
           style="fill:#918f90;fill-opacity:1;fill-rule:nonzero;stroke:none"
           id="path5035"
           inkscape:connector-curvature="0" /><path
           d="m 400.086,509.008 49.442,0 m -49.442,8.64 49.442,0"
           style="fill:none;stroke:#231f20;stroke-width:0.47999999;stroke-linecap:butt;stroke-linejoin:miter;stroke-miterlimit:10;stroke-opacity:1;stroke-dasharray:none"
           id="path5037"
           inkscape:connector-curvature="0" /></g></g><path
       d="m 133.675,496.527 70.083,0 0,8.6411 -70.083,0 0,-8.6411 z"
       style="fill:#918f90;fill-opacity:1;fill-rule:nonzero;stroke:none"
       id="path5039"
       inkscape:connector-curvature="0" /><path
       d="m 133.675,496.527 69.603,0 m -69.603,8.641 69.603,0"
       style="fill:none;stroke:#231f20;stroke-width:0.47999999;stroke-linecap:butt;stroke-linejoin:miter;stroke-miterlimit:10;stroke-opacity:1;stroke-dasharray:none"
       id="path5041"
       inkscape:connector-curvature="0" /><path
       d="m 206.158,505.168 -2.88,-8.641 0,8.641 2.88,0"
       style="fill:#918f90;fill-opacity:1;fill-rule:nonzero;stroke:none"
       id="path5043"
       inkscape:connector-curvature="0" /><path
       d="m 203.278,496.527 2.88,8.641 m -2.88,0 2.88,0 137.766,0 m 0,0 2.88,-8.641 m 0,0 60.962,0"
       style="fill:none;stroke:#231f20;stroke-width:0.47999999;stroke-linecap:butt;stroke-linejoin:miter;stroke-miterlimit:10;stroke-opacity:1;stroke-dasharray:none"
       id="path5045"
       inkscape:connector-curvature="0" /><path
       d="m 407.766,496.527 3.36,0 0,8.641 -3.36,-8.641"
       style="fill:#918f90;fill-opacity:1;fill-rule:nonzero;stroke:none"
       id="path5047"
       inkscape:connector-curvature="0" /><path
       d="m 407.766,496.527 3.36,0 0,8.641 -3.36,-8.641"
       style="fill:#918f90;fill-opacity:1;fill-rule:nonzero;stroke:none"
       id="path5049"
       inkscape:connector-curvature="0" /><path
       d="m 407.766,496.527 2.882,0 m -2.882,0 2.882,8.641"
       style="fill:none;stroke:#231f20;stroke-width:0.47999999;stroke-linecap:butt;stroke-linejoin:miter;stroke-miterlimit:10;stroke-opacity:1;stroke-dasharray:none"
       id="path5051"
       inkscape:connector-curvature="0" /><g
       id="g5053"><g
         id="g5055"
         clip-path="url(#clipPath5057)"><path
           d="m 410.648,496.527 39.352,0 0,8.6411 -39.352,0 0,-8.6411 z"
           style="fill:#918f90;fill-opacity:1;fill-rule:nonzero;stroke:none"
           id="path5061"
           inkscape:connector-curvature="0" /><path
           d="m 410.648,496.527 38.88,0 m -38.88,8.641 38.88,0"
           style="fill:none;stroke:#231f20;stroke-width:0.47999999;stroke-linecap:butt;stroke-linejoin:miter;stroke-miterlimit:10;stroke-opacity:1;stroke-dasharray:none"
           id="path5063"
           inkscape:connector-curvature="0" /></g></g><path
       d="m 133.675,484.047 195.368,0 0,8.64 -195.368,0 0,-8.64 z"
       style="fill:#918f90;fill-opacity:1;fill-rule:nonzero;stroke:none"
       id="path5065"
       inkscape:connector-curvature="0" /><g
       id="g5067"><g
         id="g5069"
         clip-path="url(#clipPath5071)"><path
           d="m 133.675,484.047 194.889,0 m -194.889,8.64 194.889,0"
           style="fill:none;stroke:#231f20;stroke-width:0.47999999;stroke-linecap:butt;stroke-linejoin:miter;stroke-miterlimit:10;stroke-opacity:1;stroke-dasharray:none"
           id="path5075"
           inkscape:connector-curvature="0" /></g></g><path
       d="m 330.003,488.366 -1.439,-4.319 0,8.64 1.439,-4.321"
       style="fill:#918f90;fill-opacity:1;fill-rule:nonzero;stroke:none"
       id="path5077"
       inkscape:connector-curvature="0" /><g
       id="g5079"><g
         id="g5081"
         clip-path="url(#clipPath5083)"><path
           d="m 328.564,484.047 2.879,8.64 m -2.879,0 2.879,-8.64 m 0,0 70.563,0 m -70.563,8.64 70.563,0"
           style="fill:none;stroke:#231f20;stroke-width:0.47999999;stroke-linecap:butt;stroke-linejoin:miter;stroke-miterlimit:10;stroke-opacity:1;stroke-dasharray:none"
           id="path5087"
           inkscape:connector-curvature="0" /></g></g><text
       transform="matrix(1,0,0,-1,354.4842,486.4463)"
       id="text5089"><tspan
         style="font-size:6.24020004px;font-variant:normal;font-weight:normal;writing-mode:lr-tb;fill:#231f20;fill-opacity:1;fill-rule:nonzero;stroke:none;font-family:Helvetica;-inkscape-font-specification:Helvetica"
         x="0 2.0779867 5.5475378 9.0170889 12.48664 15.956191 19.425743 21.160519"
         y="0"
         sodipodi:role="line"
         id="tspan5091">readdata</tspan></text>
<path
       d="m 403.446,488.366 1.92,-4.319 0,8.64 -1.92,-4.321"
       style="fill:#918f90;fill-opacity:1;fill-rule:nonzero;stroke:none"
       id="path5093"
       inkscape:connector-curvature="0" /><g
       id="g5095"><g
         id="g5097"
         clip-path="url(#clipPath5099)"><path
           d="m 402.006,484.047 2.88,8.64 m -2.88,0 2.88,-8.64"
           style="fill:none;stroke:#231f20;stroke-width:0.47999999;stroke-linecap:butt;stroke-linejoin:miter;stroke-miterlimit:10;stroke-opacity:1;stroke-dasharray:none"
           id="path5103"
           inkscape:connector-curvature="0" /><path
           d="m 404.886,484.047 45.114,0 0,8.64 -45.114,0 0,-8.64 z"
           style="fill:#918f90;fill-opacity:1;fill-rule:nonzero;stroke:none"
           id="path5105"
           inkscape:connector-curvature="0" /><path
           d="m 404.886,484.047 44.642,0 m -44.642,8.64 44.642,0"
           style="fill:none;stroke:#231f20;stroke-width:0.47999999;stroke-linecap:butt;stroke-linejoin:miter;stroke-miterlimit:10;stroke-opacity:1;stroke-dasharray:none"
           id="path5107"
           inkscape:connector-curvature="0" /><path
           d="m 162.957,557.01 0,-74.883 m 20.16,74.883 0,-74.883 m 24.001,74.883 0,-74.883 m 29.281,74.883 0,-74.883 m 22.081,74.883 0,-74.883 m 30.722,74.883 0,-74.883 m 42.721,74.883 0,-74.883 m 15.361,74.883 0,-74.883 m 36.001,74.883 0,-74.883"
           style="fill:none;stroke:none"
           id="path5109"
           inkscape:connector-curvature="0" /></g></g><path
       d="m 288.242,543.569 -0.96,-1.44 0,-1.92 1.441,-4.32 0,-0.96 -0.481,-1.44 0.96,1.44 0,1.92 -1.44,4.32 0,0.96 0.48,1.44"
       style="fill:#231f20;fill-opacity:1;fill-rule:nonzero;stroke:none"
       id="path5111"
       inkscape:connector-curvature="0" /><path
       d="m 288.242,543.569 -0.96,-1.44 m 0,0 0,-1.92 m 0,0 1.441,-4.32 m 0,0 0,-0.96 m 0,0 -0.481,-1.44 m 0,0 0,0 m 0,0 0.96,1.44 m 0,0 0,1.92 m 0,0 -1.44,4.32 m 0,0 0,0.96 m 0,0 0.48,1.44 m 0,0 0,0"
       style="fill:none;stroke:#231f20;stroke-width:0.47999999;stroke-linecap:butt;stroke-linejoin:miter;stroke-miterlimit:10;stroke-opacity:1;stroke-dasharray:none"
       id="path5113"
       inkscape:connector-curvature="0" /><path
       d="m 290.162,543.569 -0.96,-1.44 0,-1.92 1.441,-4.32 0,-0.96 -0.481,-1.44 0.96,1.44 0,1.92 -1.439,4.32 0,0.96 0.479,1.44"
       style="fill:#231f20;fill-opacity:1;fill-rule:nonzero;stroke:none"
       id="path5115"
       inkscape:connector-curvature="0" /><path
       d="m 290.162,543.569 -0.96,-1.44 m 0,0 0,-1.92 m 0,0 1.441,-4.32 m 0,0 0,-0.96 m 0,0 -0.481,-1.44 m 0,0 0,0 m 0,0 0.96,1.44 m 0,0 0,1.92 m 0,0 -1.439,4.32 m 0,0 0,0.96 m 0,0 0.479,1.44 m 0,0 0,0"
       style="fill:none;stroke:#231f20;stroke-width:0.47999999;stroke-linecap:butt;stroke-linejoin:miter;stroke-miterlimit:10;stroke-opacity:1;stroke-dasharray:none"
       id="path5117"
       inkscape:connector-curvature="0" /><path
       d="m 290.162,543.569 -0.96,-1.44 0,-1.92 1.441,-4.32 0,-0.96 -0.481,-1.44 -1.92,0 0.96,1.44 0,1.92 -1.44,4.32 0,0.96 0.48,1.44 1.92,0"
       style="fill:#ffffff;fill-opacity:1;fill-rule:nonzero;stroke:none"
       id="path5119"
       inkscape:connector-curvature="0" /><path
       d="m 290.162,543.569 -0.96,-1.44 m 0,0 0,-1.92 m 0,0 1.441,-4.32 m 0,0 0,-0.96 m 0,0 -0.481,-1.44 m 0,0 -1.92,0 m 0,0 0.96,1.44 m 0,0 0,1.92 m 0,0 -1.44,4.32 m 0,0 0,0.96 m 0,0 0.48,1.44 m 0,0 1.92,0"
       style="fill:none;stroke:#231f20;stroke-width:0.47999999;stroke-linecap:butt;stroke-linejoin:miter;stroke-miterlimit:10;stroke-opacity:1;stroke-dasharray:none"
       id="path5121"
       inkscape:connector-curvature="0" /><path
       d="m 288.242,531.088 -0.96,-1.44 0,-1.92 1.441,-4.32 0,-0.96 -0.481,-1.44 0.96,1.44 0,1.92 -1.44,4.32 0,0.96 0.48,1.44"
       style="fill:#231f20;fill-opacity:1;fill-rule:nonzero;stroke:none"
       id="path5123"
       inkscape:connector-curvature="0" /><path
       d="m 288.242,531.088 -0.96,-1.44 m 0,0 0,-1.92 m 0,0 1.441,-4.32 m 0,0 0,-0.96 m 0,0 -0.481,-1.44 m 0,0 0,0 m 0,0 0.96,1.44 m 0,0 0,1.92 m 0,0 -1.44,4.32 m 0,0 0,0.96 m 0,0 0.48,1.44 m 0,0 0,0"
       style="fill:none;stroke:#231f20;stroke-width:0.47999999;stroke-linecap:butt;stroke-linejoin:miter;stroke-miterlimit:10;stroke-opacity:1;stroke-dasharray:none"
       id="path5125"
       inkscape:connector-curvature="0" /><path
       d="m 290.162,531.088 -0.96,-1.44 0,-1.92 1.441,-4.32 0,-0.96 -0.481,-1.44 0.96,1.44 0,1.92 -1.439,4.32 0,0.96 0.479,1.44"
       style="fill:#231f20;fill-opacity:1;fill-rule:nonzero;stroke:none"
       id="path5127"
       inkscape:connector-curvature="0" /><path
       d="m 290.162,531.088 -0.96,-1.44 m 0,0 0,-1.92 m 0,0 1.441,-4.32 m 0,0 0,-0.96 m 0,0 -0.481,-1.44 m 0,0 0,0 m 0,0 0.96,1.44 m 0,0 0,1.92 m 0,0 -1.439,4.32 m 0,0 0,0.96 m 0,0 0.479,1.44 m 0,0 0,0"
       style="fill:none;stroke:#231f20;stroke-width:0.47999999;stroke-linecap:butt;stroke-linejoin:miter;stroke-miterlimit:10;stroke-opacity:1;stroke-dasharray:none"
       id="path5129"
       inkscape:connector-curvature="0" /><path
       d="m 290.162,531.088 -0.96,-1.44 0,-1.92 1.441,-4.32 0,-0.96 -0.481,-1.44 -1.92,0 0.96,1.44 0,1.92 -1.44,4.32 0,0.96 0.48,1.44 1.92,0"
       style="fill:#ffffff;fill-opacity:1;fill-rule:nonzero;stroke:none"
       id="path5131"
       inkscape:connector-curvature="0" /><path
       d="m 290.162,531.088 -0.96,-1.44 m 0,0 0,-1.92 m 0,0 1.441,-4.32 m 0,0 0,-0.96 m 0,0 -0.481,-1.44 m 0,0 -1.92,0 m 0,0 0.96,1.44 m 0,0 0,1.92 m 0,0 -1.44,4.32 m 0,0 0,0.96 m 0,0 0.48,1.44 m 0,0 1.92,0"
       style="fill:none;stroke:#231f20;stroke-width:0.47999999;stroke-linecap:butt;stroke-linejoin:miter;stroke-miterlimit:10;stroke-opacity:1;stroke-dasharray:none"
       id="path5133"
       inkscape:connector-curvature="0" /><path
       d="m 288.242,518.608 -0.96,-1.44 0,-1.921 1.441,-4.319 0,-0.96 -0.481,-1.441 0.96,1.441 0,1.92 -1.44,4.319 0,0.961 0.48,1.44"
       style="fill:#231f20;fill-opacity:1;fill-rule:nonzero;stroke:none"
       id="path5135"
       inkscape:connector-curvature="0" /><path
       d="m 288.242,518.608 -0.96,-1.44 m 0,0 0,-1.921 m 0,0 1.441,-4.319 m 0,0 0,-0.96 m 0,0 -0.481,-1.441 m 0,0 0,0 m 0,0 0.96,1.441 m 0,0 0,1.92 m 0,0 -1.44,4.319 m 0,0 0,0.961 m 0,0 0.48,1.44 m 0,0 0,0"
       style="fill:none;stroke:#231f20;stroke-width:0.47999999;stroke-linecap:butt;stroke-linejoin:miter;stroke-miterlimit:10;stroke-opacity:1;stroke-dasharray:none"
       id="path5137"
       inkscape:connector-curvature="0" /><path
       d="m 290.162,518.608 -0.96,-1.44 0,-1.921 1.441,-4.319 0,-0.96 -0.481,-1.441 0.96,1.441 0,1.92 -1.439,4.319 0,0.961 0.479,1.44"
       style="fill:#231f20;fill-opacity:1;fill-rule:nonzero;stroke:none"
       id="path5139"
       inkscape:connector-curvature="0" /><path
       d="m 290.162,518.608 -0.96,-1.44 m 0,0 0,-1.921 m 0,0 1.441,-4.319 m 0,0 0,-0.96 m 0,0 -0.481,-1.441 m 0,0 0,0 m 0,0 0.96,1.441 m 0,0 0,1.92 m 0,0 -1.439,4.319 m 0,0 0,0.961 m 0,0 0.479,1.44 m 0,0 0,0"
       style="fill:none;stroke:#231f20;stroke-width:0.47999999;stroke-linecap:butt;stroke-linejoin:miter;stroke-miterlimit:10;stroke-opacity:1;stroke-dasharray:none"
       id="path5141"
       inkscape:connector-curvature="0" /><path
       d="m 290.162,518.608 -0.96,-1.44 0,-1.921 1.441,-4.319 0,-0.96 -0.481,-1.441 -1.92,0 0.96,1.441 0,1.92 -1.44,4.319 0,0.961 0.48,1.44 1.92,0"
       style="fill:#ffffff;fill-opacity:1;fill-rule:nonzero;stroke:none"
       id="path5143"
       inkscape:connector-curvature="0" /><path
       d="m 290.162,518.608 -0.96,-1.44 m 0,0 0,-1.921 m 0,0 1.441,-4.319 m 0,0 0,-0.96 m 0,0 -0.481,-1.441 m 0,0 -1.92,0 m 0,0 0.96,1.441 m 0,0 0,1.92 m 0,0 -1.44,4.319 m 0,0 0,0.961 m 0,0 0.48,1.44 m 0,0 1.92,0"
       style="fill:none;stroke:#231f20;stroke-width:0.47999999;stroke-linecap:butt;stroke-linejoin:miter;stroke-miterlimit:10;stroke-opacity:1;stroke-dasharray:none"
       id="path5145"
       inkscape:connector-curvature="0" /><path
       d="m 288.242,506.128 -0.96,-1.441 0,-1.92 1.441,-4.32 0,-0.96 -0.481,-1.44 0.96,1.44 0,1.92 -1.44,4.32 0,0.96 0.48,1.441"
       style="fill:#231f20;fill-opacity:1;fill-rule:nonzero;stroke:none"
       id="path5147"
       inkscape:connector-curvature="0" /><path
       d="m 288.242,506.128 -0.96,-1.441 m 0,0 0,-1.92 m 0,0 1.441,-4.32 m 0,0 0,-0.96 m 0,0 -0.481,-1.44 m 0,0 0,0 m 0,0 0.96,1.44 m 0,0 0,1.92 m 0,0 -1.44,4.32 m 0,0 0,0.96 m 0,0 0.48,1.441 m 0,0 0,0"
       style="fill:none;stroke:#231f20;stroke-width:0.47999999;stroke-linecap:butt;stroke-linejoin:miter;stroke-miterlimit:10;stroke-opacity:1;stroke-dasharray:none"
       id="path5149"
       inkscape:connector-curvature="0" /><path
       d="m 290.162,506.128 -0.96,-1.441 0,-1.92 1.441,-4.32 0,-0.96 -0.481,-1.44 0.96,1.44 0,1.92 -1.439,4.32 0,0.96 0.479,1.441"
       style="fill:#231f20;fill-opacity:1;fill-rule:nonzero;stroke:none"
       id="path5151"
       inkscape:connector-curvature="0" /><path
       d="m 290.162,506.128 -0.96,-1.441 m 0,0 0,-1.92 m 0,0 1.441,-4.32 m 0,0 0,-0.96 m 0,0 -0.481,-1.44 m 0,0 0,0 m 0,0 0.96,1.44 m 0,0 0,1.92 m 0,0 -1.439,4.32 m 0,0 0,0.96 m 0,0 0.479,1.441 m 0,0 0,0"
       style="fill:none;stroke:#231f20;stroke-width:0.47999999;stroke-linecap:butt;stroke-linejoin:miter;stroke-miterlimit:10;stroke-opacity:1;stroke-dasharray:none"
       id="path5153"
       inkscape:connector-curvature="0" /><path
       d="m 290.162,506.128 -0.96,-1.441 0,-1.92 1.441,-4.32 0,-0.96 -0.481,-1.44 -1.92,0 0.96,1.44 0,1.92 -1.44,4.32 0,0.96 0.48,1.441 1.92,0"
       style="fill:#ffffff;fill-opacity:1;fill-rule:nonzero;stroke:none"
       id="path5155"
       inkscape:connector-curvature="0" /><path
       d="m 290.162,506.128 -0.96,-1.441 m 0,0 0,-1.92 m 0,0 1.441,-4.32 m 0,0 0,-0.96 m 0,0 -0.481,-1.44 m 0,0 -1.92,0 m 0,0 0.96,1.44 m 0,0 0,1.92 m 0,0 -1.44,4.32 m 0,0 0,0.96 m 0,0 0.48,1.441 m 0,0 1.92,0"
       style="fill:none;stroke:#231f20;stroke-width:0.47999999;stroke-linecap:butt;stroke-linejoin:miter;stroke-miterlimit:10;stroke-opacity:1;stroke-dasharray:none"
       id="path5157"
       inkscape:connector-curvature="0" /><path
       d="m 288.242,493.647 -0.96,-1.44 0,-1.92 1.441,-4.32 0,-0.96 -0.481,-1.441 0.96,1.441 0,1.92 -1.44,4.319 0,0.961 0.48,1.44"
       style="fill:#231f20;fill-opacity:1;fill-rule:nonzero;stroke:none"
       id="path5159"
       inkscape:connector-curvature="0" /><g
       id="g5161"><g
         id="g5163"
         clip-path="url(#clipPath5165)"><path
           d="m 288.242,493.647 -0.96,-1.44 m 0,0 0,-1.92 m 0,0 1.441,-4.32 m 0,0 0,-0.96 m 0,0 -0.481,-1.441 m 0,0 0,0 m 0,0 0.96,1.441 m 0,0 0,1.92 m 0,0 -1.44,4.319 m 0,0 0,0.961 m 0,0 0.48,1.44 m 0,0 0,0"
           style="fill:none;stroke:#231f20;stroke-width:0.47999999;stroke-linecap:butt;stroke-linejoin:miter;stroke-miterlimit:10;stroke-opacity:1;stroke-dasharray:none"
           id="path5169"
           inkscape:connector-curvature="0" /></g></g><path
       d="m 290.162,493.647 -0.96,-1.44 0,-1.92 1.441,-4.32 0,-0.96 -0.481,-1.441 0.96,1.441 0,1.92 -1.439,4.319 0,0.961 0.479,1.44"
       style="fill:#231f20;fill-opacity:1;fill-rule:nonzero;stroke:none"
       id="path5171"
       inkscape:connector-curvature="0" /><g
       id="g5173"><g
         id="g5175"
         clip-path="url(#clipPath5177)"><path
           d="m 290.162,493.647 -0.96,-1.44 m 0,0 0,-1.92 m 0,0 1.441,-4.32 m 0,0 0,-0.96 m 0,0 -0.481,-1.441 m 0,0 0,0 m 0,0 0.96,1.441 m 0,0 0,1.92 m 0,0 -1.439,4.319 m 0,0 0,0.961 m 0,0 0.479,1.44 m 0,0 0,0"
           style="fill:none;stroke:#231f20;stroke-width:0.47999999;stroke-linecap:butt;stroke-linejoin:miter;stroke-miterlimit:10;stroke-opacity:1;stroke-dasharray:none"
           id="path5181"
           inkscape:connector-curvature="0" /></g></g><path
       d="m 290.162,493.647 -0.96,-1.44 0,-1.92 1.441,-4.32 0,-0.96 -0.481,-1.441 -1.92,0 0.96,1.441 0,1.92 -1.44,4.319 0,0.961 0.48,1.44 1.92,0"
       style="fill:#ffffff;fill-opacity:1;fill-rule:nonzero;stroke:none"
       id="path5183"
       inkscape:connector-curvature="0" /><g
       id="g5185"><g
         id="g5187"
         clip-path="url(#clipPath5189)"><path
           d="m 290.162,493.647 -0.96,-1.44 m 0,0 0,-1.92 m 0,0 1.441,-4.32 m 0,0 0,-0.96 m 0,0 -0.481,-1.441 m 0,0 -1.92,0 m 0,0 0.96,1.441 m 0,0 0,1.92 m 0,0 -1.44,4.319 m 0,0 0,0.961 m 0,0 0.48,1.44 m 0,0 1.92,0"
           style="fill:none;stroke:#231f20;stroke-width:0.47999999;stroke-linecap:butt;stroke-linejoin:miter;stroke-miterlimit:10;stroke-opacity:1;stroke-dasharray:none"
           id="path5193"
           inkscape:connector-curvature="0" /></g></g><path
       d="m 257.52,543.569 -0.96,-1.44 0,-1.92 1.44,-4.32 0,-0.96 -0.48,-1.44 0.96,1.44 0,1.92 -1.44,4.32 0,0.96 0.48,1.44"
       style="fill:#231f20;fill-opacity:1;fill-rule:nonzero;stroke:none"
       id="path5195"
       inkscape:connector-curvature="0" /><path
       d="m 257.52,543.569 -0.96,-1.44 m 0,0 0,-1.92 m 0,0 1.44,-4.32 m 0,0 0,-0.96 m 0,0 -0.48,-1.44 m 0,0 0,0 m 0,0 0.96,1.44 m 0,0 0,1.92 m 0,0 -1.44,4.32 m 0,0 0,0.96 m 0,0 0.48,1.44 m 0,0 0,0"
       style="fill:none;stroke:#231f20;stroke-width:0.47999999;stroke-linecap:butt;stroke-linejoin:miter;stroke-miterlimit:10;stroke-opacity:1;stroke-dasharray:none"
       id="path5197"
       inkscape:connector-curvature="0" /><path
       d="m 259.44,543.569 -0.96,-1.44 0,-1.92 1.44,-4.32 0,-0.96 -0.48,-1.44 0.96,1.44 0,1.92 -1.44,4.32 0,0.96 0.48,1.44"
       style="fill:#231f20;fill-opacity:1;fill-rule:nonzero;stroke:none"
       id="path5199"
       inkscape:connector-curvature="0" /><path
       d="m 259.44,543.569 -0.96,-1.44 m 0,0 0,-1.92 m 0,0 1.44,-4.32 m 0,0 0,-0.96 m 0,0 -0.48,-1.44 m 0,0 0,0 m 0,0 0.96,1.44 m 0,0 0,1.92 m 0,0 -1.44,4.32 m 0,0 0,0.96 m 0,0 0.48,1.44 m 0,0 0,0"
       style="fill:none;stroke:#231f20;stroke-width:0.47999999;stroke-linecap:butt;stroke-linejoin:miter;stroke-miterlimit:10;stroke-opacity:1;stroke-dasharray:none"
       id="path5201"
       inkscape:connector-curvature="0" /><path
       d="m 259.44,543.569 -0.96,-1.44 0,-1.92 1.44,-4.32 0,-0.96 -0.48,-1.44 -1.92,0 0.96,1.44 0,1.92 -1.44,4.32 0,0.96 0.48,1.44 1.92,0"
       style="fill:#ffffff;fill-opacity:1;fill-rule:nonzero;stroke:none"
       id="path5203"
       inkscape:connector-curvature="0" /><path
       d="m 259.44,543.569 -0.96,-1.44 m 0,0 0,-1.92 m 0,0 1.44,-4.32 m 0,0 0,-0.96 m 0,0 -0.48,-1.44 m 0,0 -1.92,0 m 0,0 0.96,1.44 m 0,0 0,1.92 m 0,0 -1.44,4.32 m 0,0 0,0.96 m 0,0 0.48,1.44 m 0,0 1.92,0"
       style="fill:none;stroke:#231f20;stroke-width:0.47999999;stroke-linecap:butt;stroke-linejoin:miter;stroke-miterlimit:10;stroke-opacity:1;stroke-dasharray:none"
       id="path5205"
       inkscape:connector-curvature="0" /><path
       d="m 257.52,531.088 -0.96,-1.44 0,-1.92 1.44,-4.32 0,-0.96 -0.48,-1.44 0.96,1.44 0,1.92 -1.44,4.32 0,0.96 0.48,1.44"
       style="fill:#231f20;fill-opacity:1;fill-rule:nonzero;stroke:none"
       id="path5207"
       inkscape:connector-curvature="0" /><path
       d="m 257.52,531.088 -0.96,-1.44 m 0,0 0,-1.92 m 0,0 1.44,-4.32 m 0,0 0,-0.96 m 0,0 -0.48,-1.44 m 0,0 0,0 m 0,0 0.96,1.44 m 0,0 0,1.92 m 0,0 -1.44,4.32 m 0,0 0,0.96 m 0,0 0.48,1.44 m 0,0 0,0"
       style="fill:none;stroke:#231f20;stroke-width:0.47999999;stroke-linecap:butt;stroke-linejoin:miter;stroke-miterlimit:10;stroke-opacity:1;stroke-dasharray:none"
       id="path5209"
       inkscape:connector-curvature="0" /><path
       d="m 259.44,531.088 -0.96,-1.44 0,-1.92 1.44,-4.32 0,-0.96 -0.48,-1.44 0.96,1.44 0,1.92 -1.44,4.32 0,0.96 0.48,1.44"
       style="fill:#231f20;fill-opacity:1;fill-rule:nonzero;stroke:none"
       id="path5211"
       inkscape:connector-curvature="0" /><path
       d="m 259.44,531.088 -0.96,-1.44 m 0,0 0,-1.92 m 0,0 1.44,-4.32 m 0,0 0,-0.96 m 0,0 -0.48,-1.44 m 0,0 0,0 m 0,0 0.96,1.44 m 0,0 0,1.92 m 0,0 -1.44,4.32 m 0,0 0,0.96 m 0,0 0.48,1.44 m 0,0 0,0"
       style="fill:none;stroke:#231f20;stroke-width:0.47999999;stroke-linecap:butt;stroke-linejoin:miter;stroke-miterlimit:10;stroke-opacity:1;stroke-dasharray:none"
       id="path5213"
       inkscape:connector-curvature="0" /><path
       d="m 259.44,531.088 -0.96,-1.44 0,-1.92 1.44,-4.32 0,-0.96 -0.48,-1.44 -1.92,0 0.96,1.44 0,1.92 -1.44,4.32 0,0.96 0.48,1.44 1.92,0"
       style="fill:#ffffff;fill-opacity:1;fill-rule:nonzero;stroke:none"
       id="path5215"
       inkscape:connector-curvature="0" /><path
       d="m 259.44,531.088 -0.96,-1.44 m 0,0 0,-1.92 m 0,0 1.44,-4.32 m 0,0 0,-0.96 m 0,0 -0.48,-1.44 m 0,0 -1.92,0 m 0,0 0.96,1.44 m 0,0 0,1.92 m 0,0 -1.44,4.32 m 0,0 0,0.96 m 0,0 0.48,1.44 m 0,0 1.92,0"
       style="fill:none;stroke:#231f20;stroke-width:0.47999999;stroke-linecap:butt;stroke-linejoin:miter;stroke-miterlimit:10;stroke-opacity:1;stroke-dasharray:none"
       id="path5217"
       inkscape:connector-curvature="0" /><path
       d="m 257.52,518.608 -0.96,-1.44 0,-1.921 1.44,-4.319 0,-0.96 -0.48,-1.441 0.96,1.441 0,1.92 -1.44,4.319 0,0.961 0.48,1.44"
       style="fill:#231f20;fill-opacity:1;fill-rule:nonzero;stroke:none"
       id="path5219"
       inkscape:connector-curvature="0" /><path
       d="m 257.52,518.608 -0.96,-1.44 m 0,0 0,-1.921 m 0,0 1.44,-4.319 m 0,0 0,-0.96 m 0,0 -0.48,-1.441 m 0,0 0,0 m 0,0 0.96,1.441 m 0,0 0,1.92 m 0,0 -1.44,4.319 m 0,0 0,0.961 m 0,0 0.48,1.44 m 0,0 0,0"
       style="fill:none;stroke:#231f20;stroke-width:0.47999999;stroke-linecap:butt;stroke-linejoin:miter;stroke-miterlimit:10;stroke-opacity:1;stroke-dasharray:none"
       id="path5221"
       inkscape:connector-curvature="0" /><path
       d="m 259.44,518.608 -0.96,-1.44 0,-1.921 1.44,-4.319 0,-0.96 -0.48,-1.441 0.96,1.441 0,1.92 -1.44,4.319 0,0.961 0.48,1.44"
       style="fill:#231f20;fill-opacity:1;fill-rule:nonzero;stroke:none"
       id="path5223"
       inkscape:connector-curvature="0" /><path
       d="m 259.44,518.608 -0.96,-1.44 m 0,0 0,-1.921 m 0,0 1.44,-4.319 m 0,0 0,-0.96 m 0,0 -0.48,-1.441 m 0,0 0,0 m 0,0 0.96,1.441 m 0,0 0,1.92 m 0,0 -1.44,4.319 m 0,0 0,0.961 m 0,0 0.48,1.44 m 0,0 0,0"
       style="fill:none;stroke:#231f20;stroke-width:0.47999999;stroke-linecap:butt;stroke-linejoin:miter;stroke-miterlimit:10;stroke-opacity:1;stroke-dasharray:none"
       id="path5225"
       inkscape:connector-curvature="0" /><path
       d="m 259.44,518.608 -0.96,-1.44 0,-1.921 1.44,-4.319 0,-0.96 -0.48,-1.441 -1.92,0 0.96,1.441 0,1.92 -1.44,4.319 0,0.961 0.48,1.44 1.92,0"
       style="fill:#ffffff;fill-opacity:1;fill-rule:nonzero;stroke:none"
       id="path5227"
       inkscape:connector-curvature="0" /><path
       d="m 259.44,518.608 -0.96,-1.44 m 0,0 0,-1.921 m 0,0 1.44,-4.319 m 0,0 0,-0.96 m 0,0 -0.48,-1.441 m 0,0 -1.92,0 m 0,0 0.96,1.441 m 0,0 0,1.92 m 0,0 -1.44,4.319 m 0,0 0,0.961 m 0,0 0.48,1.44 m 0,0 1.92,0"
       style="fill:none;stroke:#231f20;stroke-width:0.47999999;stroke-linecap:butt;stroke-linejoin:miter;stroke-miterlimit:10;stroke-opacity:1;stroke-dasharray:none"
       id="path5229"
       inkscape:connector-curvature="0" /><path
       d="m 257.52,506.128 -0.96,-1.441 0,-1.92 1.44,-4.32 0,-0.96 -0.48,-1.44 0.96,1.44 0,1.92 -1.44,4.32 0,0.96 0.48,1.441"
       style="fill:#231f20;fill-opacity:1;fill-rule:nonzero;stroke:none"
       id="path5231"
       inkscape:connector-curvature="0" /><path
       d="m 257.52,506.128 -0.96,-1.441 m 0,0 0,-1.92 m 0,0 1.44,-4.32 m 0,0 0,-0.96 m 0,0 -0.48,-1.44 m 0,0 0,0 m 0,0 0.96,1.44 m 0,0 0,1.92 m 0,0 -1.44,4.32 m 0,0 0,0.96 m 0,0 0.48,1.441 m 0,0 0,0"
       style="fill:none;stroke:#231f20;stroke-width:0.47999999;stroke-linecap:butt;stroke-linejoin:miter;stroke-miterlimit:10;stroke-opacity:1;stroke-dasharray:none"
       id="path5233"
       inkscape:connector-curvature="0" /><path
       d="m 259.44,506.128 -0.96,-1.441 0,-1.92 1.44,-4.32 0,-0.96 -0.48,-1.44 0.96,1.44 0,1.92 -1.44,4.32 0,0.96 0.48,1.441"
       style="fill:#231f20;fill-opacity:1;fill-rule:nonzero;stroke:none"
       id="path5235"
       inkscape:connector-curvature="0" /><path
       d="m 259.44,506.128 -0.96,-1.441 m 0,0 0,-1.92 m 0,0 1.44,-4.32 m 0,0 0,-0.96 m 0,0 -0.48,-1.44 m 0,0 0,0 m 0,0 0.96,1.44 m 0,0 0,1.92 m 0,0 -1.44,4.32 m 0,0 0,0.96 m 0,0 0.48,1.441 m 0,0 0,0"
       style="fill:none;stroke:#231f20;stroke-width:0.47999999;stroke-linecap:butt;stroke-linejoin:miter;stroke-miterlimit:10;stroke-opacity:1;stroke-dasharray:none"
       id="path5237"
       inkscape:connector-curvature="0" /><path
       d="m 259.44,506.128 -0.96,-1.441 0,-1.92 1.44,-4.32 0,-0.96 -0.48,-1.44 -1.92,0 0.96,1.44 0,1.92 -1.44,4.32 0,0.96 0.48,1.441 1.92,0"
       style="fill:#ffffff;fill-opacity:1;fill-rule:nonzero;stroke:none"
       id="path5239"
       inkscape:connector-curvature="0" /><path
       d="m 259.44,506.128 -0.96,-1.441 m 0,0 0,-1.92 m 0,0 1.44,-4.32 m 0,0 0,-0.96 m 0,0 -0.48,-1.44 m 0,0 -1.92,0 m 0,0 0.96,1.44 m 0,0 0,1.92 m 0,0 -1.44,4.32 m 0,0 0,0.96 m 0,0 0.48,1.441 m 0,0 1.92,0"
       style="fill:none;stroke:#231f20;stroke-width:0.47999999;stroke-linecap:butt;stroke-linejoin:miter;stroke-miterlimit:10;stroke-opacity:1;stroke-dasharray:none"
       id="path5241"
       inkscape:connector-curvature="0" /><path
       d="m 257.52,493.647 -0.96,-1.44 0,-1.92 1.44,-4.32 0,-0.96 -0.48,-1.441 0.96,1.441 0,1.92 -1.44,4.319 0,0.961 0.48,1.44"
       style="fill:#231f20;fill-opacity:1;fill-rule:nonzero;stroke:none"
       id="path5243"
       inkscape:connector-curvature="0" /><g
       id="g5245"><g
         id="g5247"
         clip-path="url(#clipPath5249)"><path
           d="m 257.52,493.647 -0.96,-1.44 m 0,0 0,-1.92 m 0,0 1.44,-4.32 m 0,0 0,-0.96 m 0,0 -0.48,-1.441 m 0,0 0,0 m 0,0 0.96,1.441 m 0,0 0,1.92 m 0,0 -1.44,4.319 m 0,0 0,0.961 m 0,0 0.48,1.44 m 0,0 0,0"
           style="fill:none;stroke:#231f20;stroke-width:0.47999999;stroke-linecap:butt;stroke-linejoin:miter;stroke-miterlimit:10;stroke-opacity:1;stroke-dasharray:none"
           id="path5253"
           inkscape:connector-curvature="0" /></g></g><path
       d="m 259.44,493.647 -0.96,-1.44 0,-1.92 1.44,-4.32 0,-0.96 -0.48,-1.441 0.96,1.441 0,1.92 -1.44,4.319 0,0.961 0.48,1.44"
       style="fill:#231f20;fill-opacity:1;fill-rule:nonzero;stroke:none"
       id="path5255"
       inkscape:connector-curvature="0" /><g
       id="g5257"><g
         id="g5259"
         clip-path="url(#clipPath5261)"><path
           d="m 259.44,493.647 -0.96,-1.44 m 0,0 0,-1.92 m 0,0 1.44,-4.32 m 0,0 0,-0.96 m 0,0 -0.48,-1.441 m 0,0 0,0 m 0,0 0.96,1.441 m 0,0 0,1.92 m 0,0 -1.44,4.319 m 0,0 0,0.961 m 0,0 0.48,1.44 m 0,0 0,0"
           style="fill:none;stroke:#231f20;stroke-width:0.47999999;stroke-linecap:butt;stroke-linejoin:miter;stroke-miterlimit:10;stroke-opacity:1;stroke-dasharray:none"
           id="path5265"
           inkscape:connector-curvature="0" /></g></g><path
       d="m 259.44,493.647 -0.96,-1.44 0,-1.92 1.44,-4.32 0,-0.96 -0.48,-1.441 -1.92,0 0.96,1.441 0,1.92 -1.44,4.319 0,0.961 0.48,1.44 1.92,0"
       style="fill:#ffffff;fill-opacity:1;fill-rule:nonzero;stroke:none"
       id="path5267"
       inkscape:connector-curvature="0" /><g
       id="g5269"><g
         id="g5271"
         clip-path="url(#clipPath5273)"><path
           d="m 259.44,493.647 -0.96,-1.44 m 0,0 0,-1.92 m 0,0 1.44,-4.32 m 0,0 0,-0.96 m 0,0 -0.48,-1.441 m 0,0 -1.92,0 m 0,0 0.96,1.441 m 0,0 0,1.92 m 0,0 -1.44,4.319 m 0,0 0,0.961 m 0,0 0.48,1.44 m 0,0 1.92,0"
           style="fill:none;stroke:#231f20;stroke-width:0.47999999;stroke-linecap:butt;stroke-linejoin:miter;stroke-miterlimit:10;stroke-opacity:1;stroke-dasharray:none"
           id="path5277"
           inkscape:connector-curvature="0" /></g></g><text
       transform="matrix(1,0,0,-1,164.1572,548.8092)"
       id="text5279"><tspan
         style="font-size:6.24020004px;font-variant:normal;font-weight:normal;writing-mode:lr-tb;fill:#231f20;fill-opacity:1;fill-rule:nonzero;stroke:none;font-family:Helvetica;-inkscape-font-specification:Helvetica"
         x="0 20.162086 44.641144 74.400658 184.60696 95.302834 169.46512 220.74707"
         y="0"
         sodipodi:role="line"
         id="tspan5281">ABCDGEFH</tspan></text>
</g></svg>