<?xml version="1.0" encoding="UTF-8" standalone="no"?>
<!-- Created with Inkscape (http://www.inkscape.org/) -->

<svg
   xmlns:dc="http://purl.org/dc/elements/1.1/"
   xmlns:cc="http://creativecommons.org/ns#"
   xmlns:rdf="http://www.w3.org/1999/02/22-rdf-syntax-ns#"
   xmlns:svg="http://www.w3.org/2000/svg"
   xmlns="http://www.w3.org/2000/svg"
   xmlns:sodipodi="http://sodipodi.sourceforge.net/DTD/sodipodi-0.dtd"
   xmlns:inkscape="http://www.inkscape.org/namespaces/inkscape"
   id="svg3020"
   version="1.1"
   inkscape:version="0.48.4 r9939"
   width="495"
   height="121.5"
   xml:space="preserve"
   sodipodi:docname="mnl_avalon_spec.pdf"><metadata
     id="metadata3026"><rdf:RDF><cc:Work
         rdf:about=""><dc:format>image/svg+xml</dc:format><dc:type
           rdf:resource="http://purl.org/dc/dcmitype/StillImage" /><dc:title></dc:title></cc:Work></rdf:RDF></metadata><defs
     id="defs3024"><clipPath
       clipPathUnits="userSpaceOnUse"
       id="clipPath3134"><path
         d="m 54,430.02 396,0 0,-6 -396,0 0,6 z"
         clip-rule="evenodd"
         id="path3136"
         inkscape:connector-curvature="0" /></clipPath><clipPath
       clipPathUnits="userSpaceOnUse"
       id="clipPath3352"><path
         d="m 54,186.3 396,0 0,-10.02 -396,0 0,10.02 z"
         clip-rule="evenodd"
         id="path3354"
         inkscape:connector-curvature="0" /></clipPath><clipPath
       clipPathUnits="userSpaceOnUse"
       id="clipPath3386"><path
         d="m 54,409.02 396,0 0,-97.2 -396,0 0,97.2 z"
         clip-rule="evenodd"
         id="path3388"
         inkscape:connector-curvature="0" /></clipPath><clipPath
       clipPathUnits="userSpaceOnUse"
       id="clipPath3412"><path
         d="m 65.52,402.18 372.96,0 0,-83.565 -372.96,0 0,83.565 z"
         id="path3414"
         inkscape:connector-curvature="0" /></clipPath><clipPath
       clipPathUnits="userSpaceOnUse"
       id="clipPath3438"><path
         d="m 65.52,402.18 372.96,0 0,-83.565 -372.96,0 0,83.565 z"
         id="path3440"
         inkscape:connector-curvature="0" /></clipPath><clipPath
       clipPathUnits="userSpaceOnUse"
       id="clipPath3466"><path
         d="m 65.52,402.18 372.96,0 0,-83.565 -372.96,0 0,83.565 z"
         id="path3468"
         inkscape:connector-curvature="0" /></clipPath><clipPath
       clipPathUnits="userSpaceOnUse"
       id="clipPath3492"><path
         d="m 65.52,402.18 372.96,0 0,-83.565 -372.96,0 0,83.565 z"
         id="path3494"
         inkscape:connector-curvature="0" /></clipPath><clipPath
       clipPathUnits="userSpaceOnUse"
       id="clipPath3518"><path
         d="m 65.52,402.18 372.96,0 0,-83.565 -372.96,0 0,83.565 z"
         id="path3520"
         inkscape:connector-curvature="0" /></clipPath><clipPath
       clipPathUnits="userSpaceOnUse"
       id="clipPath3532"><path
         d="m 65.52,402.18 372.96,0 0,-83.565 -372.96,0 0,83.565 z"
         id="path3534"
         inkscape:connector-curvature="0" /></clipPath><clipPath
       clipPathUnits="userSpaceOnUse"
       id="clipPath3544"><path
         d="m 65.52,402.18 372.96,0 0,-83.565 -372.96,0 0,83.565 z"
         id="path3546"
         inkscape:connector-curvature="0" /></clipPath><clipPath
       clipPathUnits="userSpaceOnUse"
       id="clipPath3558"><path
         d="m 65.52,402.18 372.96,0 0,-83.565 -372.96,0 0,83.565 z"
         id="path3560"
         inkscape:connector-curvature="0" /></clipPath><clipPath
       clipPathUnits="userSpaceOnUse"
       id="clipPath3636"><path
         d="m 65.52,402.18 372.96,0 0,-83.565 -372.96,0 0,83.565 z"
         id="path3638"
         inkscape:connector-curvature="0" /></clipPath><clipPath
       clipPathUnits="userSpaceOnUse"
       id="clipPath3648"><path
         d="m 65.52,402.18 372.96,0 0,-83.565 -372.96,0 0,83.565 z"
         id="path3650"
         inkscape:connector-curvature="0" /></clipPath><clipPath
       clipPathUnits="userSpaceOnUse"
       id="clipPath3660"><path
         d="m 65.52,402.18 372.96,0 0,-83.565 -372.96,0 0,83.565 z"
         id="path3662"
         inkscape:connector-curvature="0" /></clipPath><clipPath
       clipPathUnits="userSpaceOnUse"
       id="clipPath3732"><path
         d="m 65.52,402.18 372.96,0 0,-83.565 -372.96,0 0,83.565 z"
         id="path3734"
         inkscape:connector-curvature="0" /></clipPath><clipPath
       clipPathUnits="userSpaceOnUse"
       id="clipPath3744"><path
         d="m 65.52,402.18 372.96,0 0,-83.565 -372.96,0 0,83.565 z"
         id="path3746"
         inkscape:connector-curvature="0" /></clipPath><clipPath
       clipPathUnits="userSpaceOnUse"
       id="clipPath3756"><path
         d="m 65.52,402.18 372.96,0 0,-83.565 -372.96,0 0,83.565 z"
         id="path3758"
         inkscape:connector-curvature="0" /></clipPath></defs><sodipodi:namedview
     pagecolor="#ffffff"
     bordercolor="#666666"
     borderopacity="1"
     objecttolerance="10"
     gridtolerance="10"
     guidetolerance="10"
     inkscape:pageopacity="0"
     inkscape:pageshadow="2"
     inkscape:window-width="1366"
     inkscape:window-height="744"
     id="namedview3022"
     showgrid="false"
     fit-margin-top="0"
     fit-margin-left="0"
     fit-margin-right="0"
     fit-margin-bottom="0"
     inkscape:zoom="0.82408494"
     inkscape:cx="394.73611"
     inkscape:cy="-52.268248"
     inkscape:window-x="0"
     inkscape:window-y="24"
     inkscape:window-maximized="1"
     inkscape:current-layer="g3028" /><g
     id="g3028"
     inkscape:groupmode="layer"
     inkscape:label="mnl_avalon_spec"
     transform="matrix(1.25,0,0,-1.25,-67.5,511.275)"><g
       id="g3382"><g
         id="g3384"
         clip-path="url(#clipPath3386)"><path
           d="m 54,311.82 396,0 0,97.2 -396,0 0,-97.2 z"
           style="fill:#ffffff;fill-opacity:1;fill-rule:nonzero;stroke:none"
           id="path3390"
           inkscape:connector-curvature="0" /></g></g><path
       d="m 65.52,318.6 372.96,0 0,83.58 -372.96,0 0,-83.58 z"
       style="fill:#ffffff;fill-opacity:1;fill-rule:nonzero;stroke:none"
       id="path3392"
       inkscape:connector-curvature="0" /><text
       transform="matrix(1,0,0,-1,111.5944,385.3374)"
       id="text3394"><tspan
         style="font-size:6.24020004px;font-variant:normal;font-weight:normal;writing-mode:lr-tb;fill:#231f20;fill-opacity:1;fill-rule:nonzero;stroke:none;font-family:Helvetica;-inkscape-font-specification:Helvetica"
         x="0 3.1201 4.5054245"
         y="0"
         sodipodi:role="line"
         id="tspan3396">clk</tspan><tspan
         style="font-size:6.24020004px;font-variant:normal;font-weight:normal;writing-mode:lr-tb;fill:#231f20;fill-opacity:1;fill-rule:nonzero;stroke:none;font-family:Helvetica;-inkscape-font-specification:Helvetica"
         x="-46.081383 -42.611828 -39.142277 -35.672726 -33.594742 -30.125189 -27.005089 -23.884989 -22.150213 -18.680662 -15.560563 -13.825788 -10.356236 -6.8866849 -3.4171336 0.052417681 3.5219688 4.9072933"
         y="12.4804"
         sodipodi:role="line"
         id="tspan3398">address,byteenable</tspan><tspan
         style="font-size:6.24020004px;font-variant:normal;font-weight:normal;writing-mode:lr-tb;fill:#231f20;fill-opacity:1;fill-rule:nonzero;stroke:none;font-family:Helvetica;-inkscape-font-specification:Helvetica"
         x="-16.799866 -12.294442 -10.216455 -8.831131 -7.0963554 -3.6268044 -0.15725304 3.3122981 5.0470738"
         y="24.9608"
         sodipodi:role="line"
         id="tspan3400">writedata</tspan><tspan
         style="font-size:6.24020004px;font-variant:normal;font-weight:normal;writing-mode:lr-tb;fill:#231f20;fill-opacity:1;fill-rule:nonzero;stroke:none;font-family:Helvetica;-inkscape-font-specification:Helvetica"
         x="-4.7993379 -0.29391342 1.7840732 3.1693976 4.9041734"
         y="37.441826"
         sodipodi:role="line"
         id="tspan3402">write</tspan><tspan
         style="font-size:6.24020004px;font-variant:normal;font-weight:normal;writing-mode:lr-tb;fill:#231f20;fill-opacity:1;fill-rule:nonzero;stroke:none;font-family:Helvetica;-inkscape-font-specification:Helvetica"
         x="-20.15959 -17.03949 -13.569939 -12.184614 -8.7150631 -5.5949636 -2.1254122 -0.74008775 2.7294636 5.8495636"
         y="49.9216"
         sodipodi:role="line"
         id="tspan3404">chipselect</tspan><tspan
         style="font-size:6.24020004px;font-variant:normal;font-weight:normal;writing-mode:lr-tb;fill:#231f20;fill-opacity:1;fill-rule:nonzero;stroke:none;font-family:Helvetica;-inkscape-font-specification:Helvetica"
         x="-23.519938 -19.014513 -15.544962 -14.159637 -12.424862 -10.346875 -6.8773246 -3.4077733 0.061777979 3.5313292 6.6514292"
         y="62.402622"
         sodipodi:role="line"
         id="tspan3406">waitrequest</tspan></text>
<g
       id="g3408"><g
         id="g3410"
         clip-path="url(#clipPath3412)"><path
           d="m 151.436,382.937 -29.281,0 m 29.281,0 0,8.64 m 0,0 36.961,0 m 0,0 0,-8.64 m 0,0 36.482,0 m 0,0 0,8.64 m 0,0 36.961,0 m 0,0 0,-8.64 m 0,0 36.482,0 m 0,0 0,8.64 m 0,0 36.961,0 m 0,0 0,-8.64 m 0,0 36.482,0 m 0,0 0,8.64 m 0,0 36.961,0 m 0,0 0,-8.64 m 0,0 29.281,0"
           style="fill:none;stroke:#231f20;stroke-width:0.47999999;stroke-linecap:butt;stroke-linejoin:miter;stroke-miterlimit:10;stroke-opacity:1;stroke-dasharray:none"
           id="path3416"
           inkscape:connector-curvature="0" /></g></g><path
       d="m 122.155,370.457 43.202,0 0,8.64 -43.202,0 0,-8.64 z"
       style="fill:#918f90;fill-opacity:1;fill-rule:nonzero;stroke:none"
       id="path3418"
       inkscape:connector-curvature="0" /><path
       d="m 122.155,370.457 42.722,0 m -42.722,8.64 42.722,0"
       style="fill:none;stroke:#231f20;stroke-width:0.47999999;stroke-linecap:butt;stroke-linejoin:miter;stroke-miterlimit:10;stroke-opacity:1;stroke-dasharray:none"
       id="path3420"
       inkscape:connector-curvature="0" /><path
       d="m 166.317,374.777 -1.44,-4.32 0,8.64 1.44,-4.32"
       style="fill:#918f90;fill-opacity:1;fill-rule:nonzero;stroke:none"
       id="path3422"
       inkscape:connector-curvature="0" /><path
       d="m 164.877,370.457 2.88,8.64 m -2.88,0 2.88,-8.64 m 0,0 217.449,0 m -217.449,8.64 217.449,0"
       style="fill:none;stroke:#231f20;stroke-width:0.47999999;stroke-linecap:butt;stroke-linejoin:miter;stroke-miterlimit:10;stroke-opacity:1;stroke-dasharray:none"
       id="path3424"
       inkscape:connector-curvature="0" /><text
       transform="matrix(1,0,0,-1,248.3998,372.8569)"
       id="text3426"><tspan
         style="font-size:6.24020004px;font-variant:normal;font-weight:normal;writing-mode:lr-tb;fill:#231f20;fill-opacity:1;fill-rule:nonzero;stroke:none;font-family:Helvetica;-inkscape-font-specification:Helvetica"
         x="0 3.4695511 6.9391022 10.408653 12.48664 15.956191 19.076292 22.196392 23.931168 25.665943 29.135494 32.255592 33.990368 37.459919 40.92947 44.399021 47.868576 51.338127 52.72345"
         y="0"
         sodipodi:role="line"
         id="tspan3428">address, byteenable</tspan></text>
<path
       d="m 386.645,374.777 1.92,-4.32 0,8.64 -1.92,-4.32"
       style="fill:#918f90;fill-opacity:1;fill-rule:nonzero;stroke:none"
       id="path3430"
       inkscape:connector-curvature="0" /><path
       d="m 385.206,370.457 2.88,8.64 m -2.88,0 2.88,-8.64"
       style="fill:none;stroke:#231f20;stroke-width:0.47999999;stroke-linecap:butt;stroke-linejoin:miter;stroke-miterlimit:10;stroke-opacity:1;stroke-dasharray:none"
       id="path3432"
       inkscape:connector-curvature="0" /><g
       id="g3434"><g
         id="g3436"
         clip-path="url(#clipPath3438)"><path
           d="m 388.086,370.457 50.394,0 0,8.64 -50.394,0 0,-8.64 z"
           style="fill:#918f90;fill-opacity:1;fill-rule:nonzero;stroke:none"
           id="path3442"
           inkscape:connector-curvature="0" /><path
           d="m 388.086,370.457 49.921,0 m -49.921,8.64 49.921,0"
           style="fill:none;stroke:#231f20;stroke-width:0.47999999;stroke-linecap:butt;stroke-linejoin:miter;stroke-miterlimit:10;stroke-opacity:1;stroke-dasharray:none"
           id="path3444"
           inkscape:connector-curvature="0" /></g></g><path
       d="m 122.155,357.976 43.202,0 0,8.6406 -43.202,0 0,-8.6406 z"
       style="fill:#918f90;fill-opacity:1;fill-rule:nonzero;stroke:none"
       id="path3446"
       inkscape:connector-curvature="0" /><path
       d="m 122.155,357.976 42.722,0 m -42.722,8.64 42.722,0"
       style="fill:none;stroke:#231f20;stroke-width:0.47999999;stroke-linecap:butt;stroke-linejoin:miter;stroke-miterlimit:10;stroke-opacity:1;stroke-dasharray:none"
       id="path3448"
       inkscape:connector-curvature="0" /><path
       d="m 166.317,362.296 -1.44,-4.32 0,8.64 1.44,-4.32"
       style="fill:#918f90;fill-opacity:1;fill-rule:nonzero;stroke:none"
       id="path3450"
       inkscape:connector-curvature="0" /><path
       d="m 164.877,357.976 2.88,8.64 m -2.88,0 2.88,-8.64 m 0,0 217.449,0 m -217.449,8.64 217.449,0"
       style="fill:none;stroke:#231f20;stroke-width:0.47999999;stroke-linecap:butt;stroke-linejoin:miter;stroke-miterlimit:10;stroke-opacity:1;stroke-dasharray:none"
       id="path3452"
       inkscape:connector-curvature="0" /><text
       transform="matrix(1,0,0,-1,260.8803,360.3764)"
       id="text3454"><tspan
         style="font-size:6.24020004px;font-variant:normal;font-weight:normal;writing-mode:lr-tb;fill:#231f20;fill-opacity:1;fill-rule:nonzero;stroke:none;font-family:Helvetica;-inkscape-font-specification:Helvetica"
         x="0 4.5054245 6.5834112 7.9687352 9.7035112 13.173062 16.642612 20.112165 21.846941 25.316492"
         y="0"
         sodipodi:role="line"
         id="tspan3456">writedata </tspan></text>
<path
       d="m 386.645,362.296 1.92,-4.32 0,8.64 -1.92,-4.32"
       style="fill:#918f90;fill-opacity:1;fill-rule:nonzero;stroke:none"
       id="path3458"
       inkscape:connector-curvature="0" /><path
       d="m 385.206,357.976 2.88,8.64 m -2.88,0 2.88,-8.64"
       style="fill:none;stroke:#231f20;stroke-width:0.47999999;stroke-linecap:butt;stroke-linejoin:miter;stroke-miterlimit:10;stroke-opacity:1;stroke-dasharray:none"
       id="path3460"
       inkscape:connector-curvature="0" /><g
       id="g3462"><g
         id="g3464"
         clip-path="url(#clipPath3466)"><path
           d="m 388.086,357.976 50.394,0 0,8.6406 -50.394,0 0,-8.6406 z"
           style="fill:#918f90;fill-opacity:1;fill-rule:nonzero;stroke:none"
           id="path3470"
           inkscape:connector-curvature="0" /><path
           d="m 388.086,357.976 49.921,0 m -49.921,8.64 49.921,0"
           style="fill:none;stroke:#231f20;stroke-width:0.47999999;stroke-linecap:butt;stroke-linejoin:miter;stroke-miterlimit:10;stroke-opacity:1;stroke-dasharray:none"
           id="path3472"
           inkscape:connector-curvature="0" /></g></g><path
       d="m 122.155,345.496 43.202,0 0,8.64 -43.202,0 0,-8.64 z"
       style="fill:#918f90;fill-opacity:1;fill-rule:nonzero;stroke:none"
       id="path3474"
       inkscape:connector-curvature="0" /><path
       d="m 122.155,345.496 42.722,0 m -42.722,8.64 42.722,0"
       style="fill:none;stroke:#231f20;stroke-width:0.47999999;stroke-linecap:butt;stroke-linejoin:miter;stroke-miterlimit:10;stroke-opacity:1;stroke-dasharray:none"
       id="path3476"
       inkscape:connector-curvature="0" /><path
       d="m 167.757,354.136 -2.88,-8.64 0,8.64 2.88,0"
       style="fill:#918f90;fill-opacity:1;fill-rule:nonzero;stroke:none"
       id="path3478"
       inkscape:connector-curvature="0" /><path
       d="m 164.877,345.496 2.88,8.64 m -2.88,0 2.88,0 m 0,0 217.928,0"
       style="fill:none;stroke:#231f20;stroke-width:0.47999999;stroke-linecap:butt;stroke-linejoin:miter;stroke-miterlimit:10;stroke-opacity:1;stroke-dasharray:none"
       id="path3480"
       inkscape:connector-curvature="0" /><path
       d="m 385.685,354.136 3.361,-8.64 0,8.64 -3.361,0"
       style="fill:#918f90;fill-opacity:1;fill-rule:nonzero;stroke:none"
       id="path3482"
       inkscape:connector-curvature="0" /><path
       d="m 385.685,354.136 3.361,-8.64 0,8.64 -3.361,0"
       style="fill:#918f90;fill-opacity:1;fill-rule:nonzero;stroke:none"
       id="path3484"
       inkscape:connector-curvature="0" /><path
       d="m 385.685,354.136 2.88,-8.64 m -2.88,8.64 2.88,0"
       style="fill:none;stroke:#231f20;stroke-width:0.47999999;stroke-linecap:butt;stroke-linejoin:miter;stroke-miterlimit:10;stroke-opacity:1;stroke-dasharray:none"
       id="path3486"
       inkscape:connector-curvature="0" /><g
       id="g3488"><g
         id="g3490"
         clip-path="url(#clipPath3492)"><path
           d="m 388.565,345.496 49.914,0 0,8.64 -49.914,0 0,-8.64 z"
           style="fill:#918f90;fill-opacity:1;fill-rule:nonzero;stroke:none"
           id="path3496"
           inkscape:connector-curvature="0" /><path
           d="m 388.565,345.496 49.442,0 m -49.442,8.64 49.442,0"
           style="fill:none;stroke:#231f20;stroke-width:0.47999999;stroke-linecap:butt;stroke-linejoin:miter;stroke-miterlimit:10;stroke-opacity:1;stroke-dasharray:none"
           id="path3498"
           inkscape:connector-curvature="0" /></g></g><path
       d="m 122.155,333.015 55.682,0 0,8.641 -55.682,0 0,-8.641 z"
       style="fill:#918f90;fill-opacity:1;fill-rule:nonzero;stroke:none"
       id="path3500"
       inkscape:connector-curvature="0" /><path
       d="m 122.155,333.015 55.202,0 m -55.202,8.641 55.202,0"
       style="fill:none;stroke:#231f20;stroke-width:0.47999999;stroke-linecap:butt;stroke-linejoin:miter;stroke-miterlimit:10;stroke-opacity:1;stroke-dasharray:none"
       id="path3502"
       inkscape:connector-curvature="0" /><path
       d="m 180.237,341.656 -2.88,-8.641 0,8.641 2.88,0"
       style="fill:#918f90;fill-opacity:1;fill-rule:nonzero;stroke:none"
       id="path3504"
       inkscape:connector-curvature="0" /><path
       d="m 177.357,333.015 2.88,8.641 m -2.88,0 2.88,0 m 0,0 215.049,0"
       style="fill:none;stroke:#231f20;stroke-width:0.47999999;stroke-linecap:butt;stroke-linejoin:miter;stroke-miterlimit:10;stroke-opacity:1;stroke-dasharray:none"
       id="path3506"
       inkscape:connector-curvature="0" /><path
       d="m 395.286,341.656 3.36,-8.641 0,8.641 -3.36,0"
       style="fill:#918f90;fill-opacity:1;fill-rule:nonzero;stroke:none"
       id="path3508"
       inkscape:connector-curvature="0" /><path
       d="m 395.286,341.656 3.36,-8.641 0,8.641 -3.36,0"
       style="fill:#918f90;fill-opacity:1;fill-rule:nonzero;stroke:none"
       id="path3510"
       inkscape:connector-curvature="0" /><path
       d="m 395.286,341.656 2.881,-8.641 m -2.881,8.641 2.881,0"
       style="fill:none;stroke:#231f20;stroke-width:0.47999999;stroke-linecap:butt;stroke-linejoin:miter;stroke-miterlimit:10;stroke-opacity:1;stroke-dasharray:none"
       id="path3512"
       inkscape:connector-curvature="0" /><g
       id="g3514"><g
         id="g3516"
         clip-path="url(#clipPath3518)"><path
           d="m 398.167,333.015 40.313,0 0,8.641 -40.313,0 0,-8.641 z"
           style="fill:#918f90;fill-opacity:1;fill-rule:nonzero;stroke:none"
           id="path3522"
           inkscape:connector-curvature="0" /><path
           d="m 398.167,333.015 39.84,0 m -39.84,8.641 39.84,0"
           style="fill:none;stroke:#231f20;stroke-width:0.47999999;stroke-linecap:butt;stroke-linejoin:miter;stroke-miterlimit:10;stroke-opacity:1;stroke-dasharray:none"
           id="path3524"
           inkscape:connector-curvature="0" /></g></g><path
       d="m 122.155,320.535 70.083,0 0,8.64 -70.083,0 0,-8.64 z"
       style="fill:#918f90;fill-opacity:1;fill-rule:nonzero;stroke:none"
       id="path3526"
       inkscape:connector-curvature="0" /><g
       id="g3528"><g
         id="g3530"
         clip-path="url(#clipPath3532)"><path
           d="m 122.155,320.535 69.603,0 m -69.603,8.64 69.603,0"
           style="fill:none;stroke:#231f20;stroke-width:0.47999999;stroke-linecap:butt;stroke-linejoin:miter;stroke-miterlimit:10;stroke-opacity:1;stroke-dasharray:none"
           id="path3536"
           inkscape:connector-curvature="0" /></g></g><path
       d="m 194.638,329.175 -2.88,-8.64 0,8.64 2.88,0"
       style="fill:#918f90;fill-opacity:1;fill-rule:nonzero;stroke:none"
       id="path3538"
       inkscape:connector-curvature="0" /><g
       id="g3540"><g
         id="g3542"
         clip-path="url(#clipPath3544)"><path
           d="m 191.758,320.535 2.88,8.64 m -2.88,0 2.88,0 142.566,0 m 0,0 2.881,-8.64 m 0,0 56.161,0"
           style="fill:none;stroke:#231f20;stroke-width:0.47999999;stroke-linecap:butt;stroke-linejoin:miter;stroke-miterlimit:10;stroke-opacity:1;stroke-dasharray:none"
           id="path3548"
           inkscape:connector-curvature="0" /></g></g><path
       d="m 396.246,320.535 3.36,0 0,8.64 -3.36,-8.64"
       style="fill:#918f90;fill-opacity:1;fill-rule:nonzero;stroke:none"
       id="path3550"
       inkscape:connector-curvature="0" /><path
       d="m 396.246,320.535 3.36,0 0,8.64 -3.36,-8.64"
       style="fill:#918f90;fill-opacity:1;fill-rule:nonzero;stroke:none"
       id="path3552"
       inkscape:connector-curvature="0" /><g
       id="g3554"><g
         id="g3556"
         clip-path="url(#clipPath3558)"><path
           d="m 396.246,320.535 2.881,0 m -2.881,0 2.881,8.64"
           style="fill:none;stroke:#231f20;stroke-width:0.47999999;stroke-linecap:butt;stroke-linejoin:miter;stroke-miterlimit:10;stroke-opacity:1;stroke-dasharray:none"
           id="path3562"
           inkscape:connector-curvature="0" /><path
           d="m 399.127,320.535 39.353,0 0,8.64 -39.353,0 0,-8.64 z"
           style="fill:#918f90;fill-opacity:1;fill-rule:nonzero;stroke:none"
           id="path3564"
           inkscape:connector-curvature="0" /><path
           d="m 399.127,320.535 38.88,0 m -38.88,8.64 38.88,0"
           style="fill:none;stroke:#231f20;stroke-width:0.47999999;stroke-linecap:butt;stroke-linejoin:miter;stroke-miterlimit:10;stroke-opacity:1;stroke-dasharray:none"
           id="path3566"
           inkscape:connector-curvature="0" /></g></g><path
       d="m 151.436,393.498 0,-74.883 m 17.761,74.883 0,-74.883 m 12.96,74.883 0,-74.883 m 15.841,74.883 0,-74.883 m 26.881,74.883 0,-74.883 m 96.964,74.883 0,-74.883 m 21.601,74.883 0,-74.883 m 28.321,74.883 0,-74.883"
       style="fill:none;stroke:none"
       id="path3568"
       inkscape:connector-curvature="0" /><path
       d="m 289.681,392.538 -0.96,-1.441 0,-1.92 1.442,-4.32 0,-0.96 -0.482,-1.44 0.961,1.44 0,1.92 -1.44,4.32 0,0.96 0.479,1.441"
       style="fill:#231f20;fill-opacity:1;fill-rule:nonzero;stroke:none"
       id="path3570"
       inkscape:connector-curvature="0" /><path
       d="m 289.681,392.538 -0.96,-1.441 m 0,0 0,-1.92 m 0,0 1.442,-4.32 m 0,0 0,-0.96 m 0,0 -0.482,-1.44 m 0,0 0,0 m 0,0 0.961,1.44 m 0,0 0,1.92 m 0,0 -1.44,4.32 m 0,0 0,0.96 m 0,0 0.479,1.441 m 0,0 0,0"
       style="fill:none;stroke:#231f20;stroke-width:0.47999999;stroke-linecap:butt;stroke-linejoin:miter;stroke-miterlimit:10;stroke-opacity:1;stroke-dasharray:none"
       id="path3572"
       inkscape:connector-curvature="0" /><path
       d="m 291.602,392.538 -0.96,-1.441 0,-1.92 1.441,-4.32 0,-0.96 -0.481,-1.44 0.96,1.44 0,1.92 -1.439,4.32 0,0.96 0.479,1.441"
       style="fill:#231f20;fill-opacity:1;fill-rule:nonzero;stroke:none"
       id="path3574"
       inkscape:connector-curvature="0" /><path
       d="m 291.602,392.538 -0.96,-1.441 m 0,0 0,-1.92 m 0,0 1.441,-4.32 m 0,0 0,-0.96 m 0,0 -0.481,-1.44 m 0,0 0,0 m 0,0 0.96,1.44 m 0,0 0,1.92 m 0,0 -1.439,4.32 m 0,0 0,0.96 m 0,0 0.479,1.441 m 0,0 0,0"
       style="fill:none;stroke:#231f20;stroke-width:0.47999999;stroke-linecap:butt;stroke-linejoin:miter;stroke-miterlimit:10;stroke-opacity:1;stroke-dasharray:none"
       id="path3576"
       inkscape:connector-curvature="0" /><path
       d="m 291.602,392.538 -0.96,-1.441 0,-1.92 1.441,-4.32 0,-0.96 -0.481,-1.44 -1.921,0 0.961,1.44 0,1.92 -1.44,4.32 0,0.96 0.479,1.441 1.921,0"
       style="fill:#ffffff;fill-opacity:1;fill-rule:nonzero;stroke:none"
       id="path3578"
       inkscape:connector-curvature="0" /><path
       d="m 291.602,392.538 -0.96,-1.441 m 0,0 0,-1.92 m 0,0 1.441,-4.32 m 0,0 0,-0.96 m 0,0 -0.481,-1.44 m 0,0 -1.921,0 m 0,0 0.961,1.44 m 0,0 0,1.92 m 0,0 -1.44,4.32 m 0,0 0,0.96 m 0,0 0.479,1.441 m 0,0 1.921,0"
       style="fill:none;stroke:#231f20;stroke-width:0.47999999;stroke-linecap:butt;stroke-linejoin:miter;stroke-miterlimit:10;stroke-opacity:1;stroke-dasharray:none"
       id="path3580"
       inkscape:connector-curvature="0" /><path
       d="m 289.681,380.057 -0.96,-1.44 0,-1.92 1.442,-4.32 0,-0.96 -0.482,-1.44 0.961,1.44 0,1.92 -1.44,4.32 0,0.96 0.479,1.44"
       style="fill:#231f20;fill-opacity:1;fill-rule:nonzero;stroke:none"
       id="path3582"
       inkscape:connector-curvature="0" /><path
       d="m 289.681,380.057 -0.96,-1.44 m 0,0 0,-1.92 m 0,0 1.442,-4.32 m 0,0 0,-0.96 m 0,0 -0.482,-1.44 m 0,0 0,0 m 0,0 0.961,1.44 m 0,0 0,1.92 m 0,0 -1.44,4.32 m 0,0 0,0.96 m 0,0 0.479,1.44 m 0,0 0,0"
       style="fill:none;stroke:#231f20;stroke-width:0.47999999;stroke-linecap:butt;stroke-linejoin:miter;stroke-miterlimit:10;stroke-opacity:1;stroke-dasharray:none"
       id="path3584"
       inkscape:connector-curvature="0" /><path
       d="m 291.602,380.057 -0.96,-1.44 0,-1.92 1.441,-4.32 0,-0.96 -0.481,-1.44 0.96,1.44 0,1.92 -1.439,4.32 0,0.96 0.479,1.44"
       style="fill:#231f20;fill-opacity:1;fill-rule:nonzero;stroke:none"
       id="path3586"
       inkscape:connector-curvature="0" /><path
       d="m 291.602,380.057 -0.96,-1.44 m 0,0 0,-1.92 m 0,0 1.441,-4.32 m 0,0 0,-0.96 m 0,0 -0.481,-1.44 m 0,0 0,0 m 0,0 0.96,1.44 m 0,0 0,1.92 m 0,0 -1.439,4.32 m 0,0 0,0.96 m 0,0 0.479,1.44 m 0,0 0,0"
       style="fill:none;stroke:#231f20;stroke-width:0.47999999;stroke-linecap:butt;stroke-linejoin:miter;stroke-miterlimit:10;stroke-opacity:1;stroke-dasharray:none"
       id="path3588"
       inkscape:connector-curvature="0" /><path
       d="m 291.602,380.057 -0.96,-1.44 0,-1.92 1.441,-4.32 0,-0.96 -0.481,-1.44 -1.921,0 0.961,1.44 0,1.92 -1.44,4.32 0,0.96 0.479,1.44 1.921,0"
       style="fill:#ffffff;fill-opacity:1;fill-rule:nonzero;stroke:none"
       id="path3590"
       inkscape:connector-curvature="0" /><path
       d="m 291.602,380.057 -0.96,-1.44 m 0,0 0,-1.92 m 0,0 1.441,-4.32 m 0,0 0,-0.96 m 0,0 -0.481,-1.44 m 0,0 -1.921,0 m 0,0 0.961,1.44 m 0,0 0,1.92 m 0,0 -1.44,4.32 m 0,0 0,0.96 m 0,0 0.479,1.44 m 0,0 1.921,0"
       style="fill:none;stroke:#231f20;stroke-width:0.47999999;stroke-linecap:butt;stroke-linejoin:miter;stroke-miterlimit:10;stroke-opacity:1;stroke-dasharray:none"
       id="path3592"
       inkscape:connector-curvature="0" /><path
       d="m 289.681,367.576 -0.96,-1.44 0,-1.92 1.442,-4.32 0,-0.959 -0.482,-1.441 0.961,1.441 0,1.919 -1.44,4.32 0,0.96 0.479,1.44"
       style="fill:#231f20;fill-opacity:1;fill-rule:nonzero;stroke:none"
       id="path3594"
       inkscape:connector-curvature="0" /><path
       d="m 289.681,367.576 -0.96,-1.44 m 0,0 0,-1.92 m 0,0 1.442,-4.32 m 0,0 0,-0.959 m 0,0 -0.482,-1.441 m 0,0 0,0 m 0,0 0.961,1.441 m 0,0 0,1.919 m 0,0 -1.44,4.32 m 0,0 0,0.96 m 0,0 0.479,1.44 m 0,0 0,0"
       style="fill:none;stroke:#231f20;stroke-width:0.47999999;stroke-linecap:butt;stroke-linejoin:miter;stroke-miterlimit:10;stroke-opacity:1;stroke-dasharray:none"
       id="path3596"
       inkscape:connector-curvature="0" /><path
       d="m 291.602,367.576 -0.96,-1.44 0,-1.92 1.441,-4.32 0,-0.959 -0.481,-1.441 0.96,1.441 0,1.919 -1.439,4.32 0,0.96 0.479,1.44"
       style="fill:#231f20;fill-opacity:1;fill-rule:nonzero;stroke:none"
       id="path3598"
       inkscape:connector-curvature="0" /><path
       d="m 291.602,367.576 -0.96,-1.44 m 0,0 0,-1.92 m 0,0 1.441,-4.32 m 0,0 0,-0.959 m 0,0 -0.481,-1.441 m 0,0 0,0 m 0,0 0.96,1.441 m 0,0 0,1.919 m 0,0 -1.439,4.32 m 0,0 0,0.96 m 0,0 0.479,1.44 m 0,0 0,0"
       style="fill:none;stroke:#231f20;stroke-width:0.47999999;stroke-linecap:butt;stroke-linejoin:miter;stroke-miterlimit:10;stroke-opacity:1;stroke-dasharray:none"
       id="path3600"
       inkscape:connector-curvature="0" /><path
       d="m 291.602,367.576 -0.96,-1.44 0,-1.92 1.441,-4.32 0,-0.959 -0.481,-1.441 -1.921,0 0.961,1.441 0,1.919 -1.44,4.32 0,0.96 0.479,1.44 1.921,0"
       style="fill:#ffffff;fill-opacity:1;fill-rule:nonzero;stroke:none"
       id="path3602"
       inkscape:connector-curvature="0" /><path
       d="m 291.602,367.576 -0.96,-1.44 m 0,0 0,-1.92 m 0,0 1.441,-4.32 m 0,0 0,-0.959 m 0,0 -0.481,-1.441 m 0,0 -1.921,0 m 0,0 0.961,1.441 m 0,0 0,1.919 m 0,0 -1.44,4.32 m 0,0 0,0.96 m 0,0 0.479,1.44 m 0,0 1.921,0"
       style="fill:none;stroke:#231f20;stroke-width:0.47999999;stroke-linecap:butt;stroke-linejoin:miter;stroke-miterlimit:10;stroke-opacity:1;stroke-dasharray:none"
       id="path3604"
       inkscape:connector-curvature="0" /><path
       d="m 289.681,355.096 -0.96,-1.441 0,-1.92 1.442,-4.319 0,-0.96 -0.482,-1.441 0.961,1.441 0,1.92 -1.44,4.32 0,0.959 0.479,1.441"
       style="fill:#231f20;fill-opacity:1;fill-rule:nonzero;stroke:none"
       id="path3606"
       inkscape:connector-curvature="0" /><path
       d="m 289.681,355.096 -0.96,-1.441 m 0,0 0,-1.92 m 0,0 1.442,-4.319 m 0,0 0,-0.96 m 0,0 -0.482,-1.441 m 0,0 0,0 m 0,0 0.961,1.441 m 0,0 0,1.92 m 0,0 -1.44,4.32 m 0,0 0,0.959 m 0,0 0.479,1.441 m 0,0 0,0"
       style="fill:none;stroke:#231f20;stroke-width:0.47999999;stroke-linecap:butt;stroke-linejoin:miter;stroke-miterlimit:10;stroke-opacity:1;stroke-dasharray:none"
       id="path3608"
       inkscape:connector-curvature="0" /><path
       d="m 291.602,355.096 -0.96,-1.441 0,-1.92 1.441,-4.319 0,-0.96 -0.481,-1.441 0.96,1.441 0,1.92 -1.439,4.32 0,0.959 0.479,1.441"
       style="fill:#231f20;fill-opacity:1;fill-rule:nonzero;stroke:none"
       id="path3610"
       inkscape:connector-curvature="0" /><path
       d="m 291.602,355.096 -0.96,-1.441 m 0,0 0,-1.92 m 0,0 1.441,-4.319 m 0,0 0,-0.96 m 0,0 -0.481,-1.441 m 0,0 0,0 m 0,0 0.96,1.441 m 0,0 0,1.92 m 0,0 -1.439,4.32 m 0,0 0,0.959 m 0,0 0.479,1.441 m 0,0 0,0"
       style="fill:none;stroke:#231f20;stroke-width:0.47999999;stroke-linecap:butt;stroke-linejoin:miter;stroke-miterlimit:10;stroke-opacity:1;stroke-dasharray:none"
       id="path3612"
       inkscape:connector-curvature="0" /><path
       d="m 291.602,355.096 -0.96,-1.441 0,-1.92 1.441,-4.319 0,-0.96 -0.481,-1.441 -1.921,0 0.961,1.441 0,1.92 -1.44,4.32 0,0.959 0.479,1.441 1.921,0"
       style="fill:#ffffff;fill-opacity:1;fill-rule:nonzero;stroke:none"
       id="path3614"
       inkscape:connector-curvature="0" /><path
       d="m 291.602,355.096 -0.96,-1.441 m 0,0 0,-1.92 m 0,0 1.441,-4.319 m 0,0 0,-0.96 m 0,0 -0.481,-1.441 m 0,0 -1.921,0 m 0,0 0.961,1.441 m 0,0 0,1.92 m 0,0 -1.44,4.32 m 0,0 0,0.959 m 0,0 0.479,1.441 m 0,0 1.921,0"
       style="fill:none;stroke:#231f20;stroke-width:0.47999999;stroke-linecap:butt;stroke-linejoin:miter;stroke-miterlimit:10;stroke-opacity:1;stroke-dasharray:none"
       id="path3616"
       inkscape:connector-curvature="0" /><path
       d="m 289.681,342.616 -0.96,-1.441 0,-1.92 1.442,-4.32 0,-0.96 -0.482,-1.44 0.961,1.44 0,1.92 -1.44,4.32 0,0.96 0.479,1.441"
       style="fill:#231f20;fill-opacity:1;fill-rule:nonzero;stroke:none"
       id="path3618"
       inkscape:connector-curvature="0" /><path
       d="m 289.681,342.616 -0.96,-1.441 m 0,0 0,-1.92 m 0,0 1.442,-4.32 m 0,0 0,-0.96 m 0,0 -0.482,-1.44 m 0,0 0,0 m 0,0 0.961,1.44 m 0,0 0,1.92 m 0,0 -1.44,4.32 m 0,0 0,0.96 m 0,0 0.479,1.441 m 0,0 0,0"
       style="fill:none;stroke:#231f20;stroke-width:0.47999999;stroke-linecap:butt;stroke-linejoin:miter;stroke-miterlimit:10;stroke-opacity:1;stroke-dasharray:none"
       id="path3620"
       inkscape:connector-curvature="0" /><path
       d="m 291.602,342.616 -0.96,-1.441 0,-1.92 1.441,-4.32 0,-0.96 -0.481,-1.44 0.96,1.44 0,1.92 -1.439,4.32 0,0.96 0.479,1.441"
       style="fill:#231f20;fill-opacity:1;fill-rule:nonzero;stroke:none"
       id="path3622"
       inkscape:connector-curvature="0" /><path
       d="m 291.602,342.616 -0.96,-1.441 m 0,0 0,-1.92 m 0,0 1.441,-4.32 m 0,0 0,-0.96 m 0,0 -0.481,-1.44 m 0,0 0,0 m 0,0 0.96,1.44 m 0,0 0,1.92 m 0,0 -1.439,4.32 m 0,0 0,0.96 m 0,0 0.479,1.441 m 0,0 0,0"
       style="fill:none;stroke:#231f20;stroke-width:0.47999999;stroke-linecap:butt;stroke-linejoin:miter;stroke-miterlimit:10;stroke-opacity:1;stroke-dasharray:none"
       id="path3624"
       inkscape:connector-curvature="0" /><path
       d="m 291.602,342.616 -0.96,-1.441 0,-1.92 1.441,-4.32 0,-0.96 -0.481,-1.44 -1.921,0 0.961,1.44 0,1.92 -1.44,4.32 0,0.96 0.479,1.441 1.921,0"
       style="fill:#ffffff;fill-opacity:1;fill-rule:nonzero;stroke:none"
       id="path3626"
       inkscape:connector-curvature="0" /><path
       d="m 291.602,342.616 -0.96,-1.441 m 0,0 0,-1.92 m 0,0 1.441,-4.32 m 0,0 0,-0.96 m 0,0 -0.481,-1.44 m 0,0 -1.921,0 m 0,0 0.961,1.44 m 0,0 0,1.92 m 0,0 -1.44,4.32 m 0,0 0,0.96 m 0,0 0.479,1.441 m 0,0 1.921,0"
       style="fill:none;stroke:#231f20;stroke-width:0.47999999;stroke-linecap:butt;stroke-linejoin:miter;stroke-miterlimit:10;stroke-opacity:1;stroke-dasharray:none"
       id="path3628"
       inkscape:connector-curvature="0" /><path
       d="m 289.681,330.135 -0.96,-1.44 0,-1.92 1.442,-4.32 0,-0.96 -0.482,-1.441 0.961,1.441 0,1.92 -1.44,4.319 0,0.961 0.479,1.44"
       style="fill:#231f20;fill-opacity:1;fill-rule:nonzero;stroke:none"
       id="path3630"
       inkscape:connector-curvature="0" /><g
       id="g3632"><g
         id="g3634"
         clip-path="url(#clipPath3636)"><path
           d="m 289.681,330.135 -0.96,-1.44 m 0,0 0,-1.92 m 0,0 1.442,-4.32 m 0,0 0,-0.96 m 0,0 -0.482,-1.441 m 0,0 0,0 m 0,0 0.961,1.441 m 0,0 0,1.92 m 0,0 -1.44,4.319 m 0,0 0,0.961 m 0,0 0.479,1.44 m 0,0 0,0"
           style="fill:none;stroke:#231f20;stroke-width:0.47999999;stroke-linecap:butt;stroke-linejoin:miter;stroke-miterlimit:10;stroke-opacity:1;stroke-dasharray:none"
           id="path3640"
           inkscape:connector-curvature="0" /></g></g><path
       d="m 291.602,330.135 -0.96,-1.44 0,-1.92 1.441,-4.32 0,-0.96 -0.481,-1.441 0.96,1.441 0,1.92 -1.439,4.319 0,0.961 0.479,1.44"
       style="fill:#231f20;fill-opacity:1;fill-rule:nonzero;stroke:none"
       id="path3642"
       inkscape:connector-curvature="0" /><g
       id="g3644"><g
         id="g3646"
         clip-path="url(#clipPath3648)"><path
           d="m 291.602,330.135 -0.96,-1.44 m 0,0 0,-1.92 m 0,0 1.441,-4.32 m 0,0 0,-0.96 m 0,0 -0.481,-1.441 m 0,0 0,0 m 0,0 0.96,1.441 m 0,0 0,1.92 m 0,0 -1.439,4.319 m 0,0 0,0.961 m 0,0 0.479,1.44 m 0,0 0,0"
           style="fill:none;stroke:#231f20;stroke-width:0.47999999;stroke-linecap:butt;stroke-linejoin:miter;stroke-miterlimit:10;stroke-opacity:1;stroke-dasharray:none"
           id="path3652"
           inkscape:connector-curvature="0" /></g></g><path
       d="m 291.602,330.135 -0.96,-1.44 0,-1.92 1.441,-4.32 0,-0.96 -0.481,-1.441 -1.921,0 0.961,1.441 0,1.92 -1.44,4.319 0,0.961 0.479,1.44 1.921,0"
       style="fill:#ffffff;fill-opacity:1;fill-rule:nonzero;stroke:none"
       id="path3654"
       inkscape:connector-curvature="0" /><g
       id="g3656"><g
         id="g3658"
         clip-path="url(#clipPath3660)"><path
           d="m 291.602,330.135 -0.96,-1.44 m 0,0 0,-1.92 m 0,0 1.441,-4.32 m 0,0 0,-0.96 m 0,0 -0.481,-1.441 m 0,0 -1.921,0 m 0,0 0.961,1.441 m 0,0 0,1.92 m 0,0 -1.44,4.319 m 0,0 0,0.961 m 0,0 0.479,1.44 m 0,0 1.921,0"
           style="fill:none;stroke:#231f20;stroke-width:0.47999999;stroke-linecap:butt;stroke-linejoin:miter;stroke-miterlimit:10;stroke-opacity:1;stroke-dasharray:none"
           id="path3664"
           inkscape:connector-curvature="0" /></g></g><path
       d="m 247.44,392.538 -0.96,-1.441 0,-1.92 1.44,-4.32 0,-0.96 -0.48,-1.44 0.96,1.44 0,1.92 -1.44,4.32 0,0.96 0.48,1.441"
       style="fill:#231f20;fill-opacity:1;fill-rule:nonzero;stroke:none"
       id="path3666"
       inkscape:connector-curvature="0" /><path
       d="m 247.44,392.538 -0.96,-1.441 m 0,0 0,-1.92 m 0,0 1.44,-4.32 m 0,0 0,-0.96 m 0,0 -0.48,-1.44 m 0,0 0,0 m 0,0 0.96,1.44 m 0,0 0,1.92 m 0,0 -1.44,4.32 m 0,0 0,0.96 m 0,0 0.48,1.441 m 0,0 0,0"
       style="fill:none;stroke:#231f20;stroke-width:0.47999999;stroke-linecap:butt;stroke-linejoin:miter;stroke-miterlimit:10;stroke-opacity:1;stroke-dasharray:none"
       id="path3668"
       inkscape:connector-curvature="0" /><path
       d="m 249.36,392.538 -0.96,-1.441 0,-1.92 1.44,-4.32 0,-0.96 -0.48,-1.44 0.96,1.44 0,1.92 -1.44,4.32 0,0.96 0.48,1.441"
       style="fill:#231f20;fill-opacity:1;fill-rule:nonzero;stroke:none"
       id="path3670"
       inkscape:connector-curvature="0" /><path
       d="m 249.36,392.538 -0.96,-1.441 m 0,0 0,-1.92 m 0,0 1.44,-4.32 m 0,0 0,-0.96 m 0,0 -0.48,-1.44 m 0,0 0,0 m 0,0 0.96,1.44 m 0,0 0,1.92 m 0,0 -1.44,4.32 m 0,0 0,0.96 m 0,0 0.48,1.441 m 0,0 0,0"
       style="fill:none;stroke:#231f20;stroke-width:0.47999999;stroke-linecap:butt;stroke-linejoin:miter;stroke-miterlimit:10;stroke-opacity:1;stroke-dasharray:none"
       id="path3672"
       inkscape:connector-curvature="0" /><path
       d="m 249.36,392.538 -0.96,-1.441 0,-1.92 1.44,-4.32 0,-0.96 -0.48,-1.44 -1.92,0 0.96,1.44 0,1.92 -1.44,4.32 0,0.96 0.48,1.441 1.92,0"
       style="fill:#ffffff;fill-opacity:1;fill-rule:nonzero;stroke:none"
       id="path3674"
       inkscape:connector-curvature="0" /><path
       d="m 249.36,392.538 -0.96,-1.441 m 0,0 0,-1.92 m 0,0 1.44,-4.32 m 0,0 0,-0.96 m 0,0 -0.48,-1.44 m 0,0 -1.92,0 m 0,0 0.96,1.44 m 0,0 0,1.92 m 0,0 -1.44,4.32 m 0,0 0,0.96 m 0,0 0.48,1.441 m 0,0 1.92,0"
       style="fill:none;stroke:#231f20;stroke-width:0.47999999;stroke-linecap:butt;stroke-linejoin:miter;stroke-miterlimit:10;stroke-opacity:1;stroke-dasharray:none"
       id="path3676"
       inkscape:connector-curvature="0" /><path
       d="m 247.44,380.057 -0.96,-1.44 0,-1.92 1.44,-4.32 0,-0.96 -0.48,-1.44 0.96,1.44 0,1.92 -1.44,4.32 0,0.96 0.48,1.44"
       style="fill:#231f20;fill-opacity:1;fill-rule:nonzero;stroke:none"
       id="path3678"
       inkscape:connector-curvature="0" /><path
       d="m 247.44,380.057 -0.96,-1.44 m 0,0 0,-1.92 m 0,0 1.44,-4.32 m 0,0 0,-0.96 m 0,0 -0.48,-1.44 m 0,0 0,0 m 0,0 0.96,1.44 m 0,0 0,1.92 m 0,0 -1.44,4.32 m 0,0 0,0.96 m 0,0 0.48,1.44 m 0,0 0,0"
       style="fill:none;stroke:#231f20;stroke-width:0.47999999;stroke-linecap:butt;stroke-linejoin:miter;stroke-miterlimit:10;stroke-opacity:1;stroke-dasharray:none"
       id="path3680"
       inkscape:connector-curvature="0" /><path
       d="m 249.36,380.057 -0.96,-1.44 0,-1.92 1.44,-4.32 0,-0.96 -0.48,-1.44 0.96,1.44 0,1.92 -1.44,4.32 0,0.96 0.48,1.44"
       style="fill:#231f20;fill-opacity:1;fill-rule:nonzero;stroke:none"
       id="path3682"
       inkscape:connector-curvature="0" /><path
       d="m 249.36,380.057 -0.96,-1.44 m 0,0 0,-1.92 m 0,0 1.44,-4.32 m 0,0 0,-0.96 m 0,0 -0.48,-1.44 m 0,0 0,0 m 0,0 0.96,1.44 m 0,0 0,1.92 m 0,0 -1.44,4.32 m 0,0 0,0.96 m 0,0 0.48,1.44 m 0,0 0,0"
       style="fill:none;stroke:#231f20;stroke-width:0.47999999;stroke-linecap:butt;stroke-linejoin:miter;stroke-miterlimit:10;stroke-opacity:1;stroke-dasharray:none"
       id="path3684"
       inkscape:connector-curvature="0" /><path
       d="m 249.36,380.057 -0.96,-1.44 0,-1.92 1.44,-4.32 0,-0.96 -0.48,-1.44 -1.92,0 0.96,1.44 0,1.92 -1.44,4.32 0,0.96 0.48,1.44 1.92,0"
       style="fill:#ffffff;fill-opacity:1;fill-rule:nonzero;stroke:none"
       id="path3686"
       inkscape:connector-curvature="0" /><path
       d="m 249.36,380.057 -0.96,-1.44 m 0,0 0,-1.92 m 0,0 1.44,-4.32 m 0,0 0,-0.96 m 0,0 -0.48,-1.44 m 0,0 -1.92,0 m 0,0 0.96,1.44 m 0,0 0,1.92 m 0,0 -1.44,4.32 m 0,0 0,0.96 m 0,0 0.48,1.44 m 0,0 1.92,0"
       style="fill:none;stroke:#231f20;stroke-width:0.47999999;stroke-linecap:butt;stroke-linejoin:miter;stroke-miterlimit:10;stroke-opacity:1;stroke-dasharray:none"
       id="path3688"
       inkscape:connector-curvature="0" /><path
       d="m 247.44,367.576 -0.96,-1.44 0,-1.92 1.44,-4.32 0,-0.959 -0.48,-1.441 0.96,1.441 0,1.919 -1.44,4.32 0,0.96 0.48,1.44"
       style="fill:#231f20;fill-opacity:1;fill-rule:nonzero;stroke:none"
       id="path3690"
       inkscape:connector-curvature="0" /><path
       d="m 247.44,367.576 -0.96,-1.44 m 0,0 0,-1.92 m 0,0 1.44,-4.32 m 0,0 0,-0.959 m 0,0 -0.48,-1.441 m 0,0 0,0 m 0,0 0.96,1.441 m 0,0 0,1.919 m 0,0 -1.44,4.32 m 0,0 0,0.96 m 0,0 0.48,1.44 m 0,0 0,0"
       style="fill:none;stroke:#231f20;stroke-width:0.47999999;stroke-linecap:butt;stroke-linejoin:miter;stroke-miterlimit:10;stroke-opacity:1;stroke-dasharray:none"
       id="path3692"
       inkscape:connector-curvature="0" /><path
       d="m 249.36,367.576 -0.96,-1.44 0,-1.92 1.44,-4.32 0,-0.959 -0.48,-1.441 0.96,1.441 0,1.919 -1.44,4.32 0,0.96 0.48,1.44"
       style="fill:#231f20;fill-opacity:1;fill-rule:nonzero;stroke:none"
       id="path3694"
       inkscape:connector-curvature="0" /><path
       d="m 249.36,367.576 -0.96,-1.44 m 0,0 0,-1.92 m 0,0 1.44,-4.32 m 0,0 0,-0.959 m 0,0 -0.48,-1.441 m 0,0 0,0 m 0,0 0.96,1.441 m 0,0 0,1.919 m 0,0 -1.44,4.32 m 0,0 0,0.96 m 0,0 0.48,1.44 m 0,0 0,0"
       style="fill:none;stroke:#231f20;stroke-width:0.47999999;stroke-linecap:butt;stroke-linejoin:miter;stroke-miterlimit:10;stroke-opacity:1;stroke-dasharray:none"
       id="path3696"
       inkscape:connector-curvature="0" /><path
       d="m 249.36,367.576 -0.96,-1.44 0,-1.92 1.44,-4.32 0,-0.959 -0.48,-1.441 -1.92,0 0.96,1.441 0,1.919 -1.44,4.32 0,0.96 0.48,1.44 1.92,0"
       style="fill:#ffffff;fill-opacity:1;fill-rule:nonzero;stroke:none"
       id="path3698"
       inkscape:connector-curvature="0" /><path
       d="m 249.36,367.576 -0.96,-1.44 m 0,0 0,-1.92 m 0,0 1.44,-4.32 m 0,0 0,-0.959 m 0,0 -0.48,-1.441 m 0,0 -1.92,0 m 0,0 0.96,1.441 m 0,0 0,1.919 m 0,0 -1.44,4.32 m 0,0 0,0.96 m 0,0 0.48,1.44 m 0,0 1.92,0"
       style="fill:none;stroke:#231f20;stroke-width:0.47999999;stroke-linecap:butt;stroke-linejoin:miter;stroke-miterlimit:10;stroke-opacity:1;stroke-dasharray:none"
       id="path3700"
       inkscape:connector-curvature="0" /><path
       d="m 247.44,355.096 -0.96,-1.441 0,-1.92 1.44,-4.319 0,-0.96 -0.48,-1.441 0.96,1.441 0,1.92 -1.44,4.32 0,0.959 0.48,1.441"
       style="fill:#231f20;fill-opacity:1;fill-rule:nonzero;stroke:none"
       id="path3702"
       inkscape:connector-curvature="0" /><path
       d="m 247.44,355.096 -0.96,-1.441 m 0,0 0,-1.92 m 0,0 1.44,-4.319 m 0,0 0,-0.96 m 0,0 -0.48,-1.441 m 0,0 0,0 m 0,0 0.96,1.441 m 0,0 0,1.92 m 0,0 -1.44,4.32 m 0,0 0,0.959 m 0,0 0.48,1.441 m 0,0 0,0"
       style="fill:none;stroke:#231f20;stroke-width:0.47999999;stroke-linecap:butt;stroke-linejoin:miter;stroke-miterlimit:10;stroke-opacity:1;stroke-dasharray:none"
       id="path3704"
       inkscape:connector-curvature="0" /><path
       d="m 249.36,355.096 -0.96,-1.441 0,-1.92 1.44,-4.319 0,-0.96 -0.48,-1.441 0.96,1.441 0,1.92 -1.44,4.32 0,0.959 0.48,1.441"
       style="fill:#231f20;fill-opacity:1;fill-rule:nonzero;stroke:none"
       id="path3706"
       inkscape:connector-curvature="0" /><path
       d="m 249.36,355.096 -0.96,-1.441 m 0,0 0,-1.92 m 0,0 1.44,-4.319 m 0,0 0,-0.96 m 0,0 -0.48,-1.441 m 0,0 0,0 m 0,0 0.96,1.441 m 0,0 0,1.92 m 0,0 -1.44,4.32 m 0,0 0,0.959 m 0,0 0.48,1.441 m 0,0 0,0"
       style="fill:none;stroke:#231f20;stroke-width:0.47999999;stroke-linecap:butt;stroke-linejoin:miter;stroke-miterlimit:10;stroke-opacity:1;stroke-dasharray:none"
       id="path3708"
       inkscape:connector-curvature="0" /><path
       d="m 249.36,355.096 -0.96,-1.441 0,-1.92 1.44,-4.319 0,-0.96 -0.48,-1.441 -1.92,0 0.96,1.441 0,1.92 -1.44,4.32 0,0.959 0.48,1.441 1.92,0"
       style="fill:#ffffff;fill-opacity:1;fill-rule:nonzero;stroke:none"
       id="path3710"
       inkscape:connector-curvature="0" /><path
       d="m 249.36,355.096 -0.96,-1.441 m 0,0 0,-1.92 m 0,0 1.44,-4.319 m 0,0 0,-0.96 m 0,0 -0.48,-1.441 m 0,0 -1.92,0 m 0,0 0.96,1.441 m 0,0 0,1.92 m 0,0 -1.44,4.32 m 0,0 0,0.959 m 0,0 0.48,1.441 m 0,0 1.92,0"
       style="fill:none;stroke:#231f20;stroke-width:0.47999999;stroke-linecap:butt;stroke-linejoin:miter;stroke-miterlimit:10;stroke-opacity:1;stroke-dasharray:none"
       id="path3712"
       inkscape:connector-curvature="0" /><path
       d="m 247.44,342.616 -0.96,-1.441 0,-1.92 1.44,-4.32 0,-0.96 -0.48,-1.44 0.96,1.44 0,1.92 -1.44,4.32 0,0.96 0.48,1.441"
       style="fill:#231f20;fill-opacity:1;fill-rule:nonzero;stroke:none"
       id="path3714"
       inkscape:connector-curvature="0" /><path
       d="m 247.44,342.616 -0.96,-1.441 m 0,0 0,-1.92 m 0,0 1.44,-4.32 m 0,0 0,-0.96 m 0,0 -0.48,-1.44 m 0,0 0,0 m 0,0 0.96,1.44 m 0,0 0,1.92 m 0,0 -1.44,4.32 m 0,0 0,0.96 m 0,0 0.48,1.441 m 0,0 0,0"
       style="fill:none;stroke:#231f20;stroke-width:0.47999999;stroke-linecap:butt;stroke-linejoin:miter;stroke-miterlimit:10;stroke-opacity:1;stroke-dasharray:none"
       id="path3716"
       inkscape:connector-curvature="0" /><path
       d="m 249.36,342.616 -0.96,-1.441 0,-1.92 1.44,-4.32 0,-0.96 -0.48,-1.44 0.96,1.44 0,1.92 -1.44,4.32 0,0.96 0.48,1.441"
       style="fill:#231f20;fill-opacity:1;fill-rule:nonzero;stroke:none"
       id="path3718"
       inkscape:connector-curvature="0" /><path
       d="m 249.36,342.616 -0.96,-1.441 m 0,0 0,-1.92 m 0,0 1.44,-4.32 m 0,0 0,-0.96 m 0,0 -0.48,-1.44 m 0,0 0,0 m 0,0 0.96,1.44 m 0,0 0,1.92 m 0,0 -1.44,4.32 m 0,0 0,0.96 m 0,0 0.48,1.441 m 0,0 0,0"
       style="fill:none;stroke:#231f20;stroke-width:0.47999999;stroke-linecap:butt;stroke-linejoin:miter;stroke-miterlimit:10;stroke-opacity:1;stroke-dasharray:none"
       id="path3720"
       inkscape:connector-curvature="0" /><path
       d="m 249.36,342.616 -0.96,-1.441 0,-1.92 1.44,-4.32 0,-0.96 -0.48,-1.44 -1.92,0 0.96,1.44 0,1.92 -1.44,4.32 0,0.96 0.48,1.441 1.92,0"
       style="fill:#ffffff;fill-opacity:1;fill-rule:nonzero;stroke:none"
       id="path3722"
       inkscape:connector-curvature="0" /><path
       d="m 249.36,342.616 -0.96,-1.441 m 0,0 0,-1.92 m 0,0 1.44,-4.32 m 0,0 0,-0.96 m 0,0 -0.48,-1.44 m 0,0 -1.92,0 m 0,0 0.96,1.44 m 0,0 0,1.92 m 0,0 -1.44,4.32 m 0,0 0,0.96 m 0,0 0.48,1.441 m 0,0 1.92,0"
       style="fill:none;stroke:#231f20;stroke-width:0.47999999;stroke-linecap:butt;stroke-linejoin:miter;stroke-miterlimit:10;stroke-opacity:1;stroke-dasharray:none"
       id="path3724"
       inkscape:connector-curvature="0" /><path
       d="m 247.44,330.135 -0.96,-1.44 0,-1.92 1.44,-4.32 0,-0.96 -0.48,-1.441 0.96,1.441 0,1.92 -1.44,4.319 0,0.961 0.48,1.44"
       style="fill:#231f20;fill-opacity:1;fill-rule:nonzero;stroke:none"
       id="path3726"
       inkscape:connector-curvature="0" /><g
       id="g3728"><g
         id="g3730"
         clip-path="url(#clipPath3732)"><path
           d="m 247.44,330.135 -0.96,-1.44 m 0,0 0,-1.92 m 0,0 1.44,-4.32 m 0,0 0,-0.96 m 0,0 -0.48,-1.441 m 0,0 0,0 m 0,0 0.96,1.441 m 0,0 0,1.92 m 0,0 -1.44,4.319 m 0,0 0,0.961 m 0,0 0.48,1.44 m 0,0 0,0"
           style="fill:none;stroke:#231f20;stroke-width:0.47999999;stroke-linecap:butt;stroke-linejoin:miter;stroke-miterlimit:10;stroke-opacity:1;stroke-dasharray:none"
           id="path3736"
           inkscape:connector-curvature="0" /></g></g><path
       d="m 249.36,330.135 -0.96,-1.44 0,-1.92 1.44,-4.32 0,-0.96 -0.48,-1.441 0.96,1.441 0,1.92 -1.44,4.319 0,0.961 0.48,1.44"
       style="fill:#231f20;fill-opacity:1;fill-rule:nonzero;stroke:none"
       id="path3738"
       inkscape:connector-curvature="0" /><g
       id="g3740"><g
         id="g3742"
         clip-path="url(#clipPath3744)"><path
           d="m 249.36,330.135 -0.96,-1.44 m 0,0 0,-1.92 m 0,0 1.44,-4.32 m 0,0 0,-0.96 m 0,0 -0.48,-1.441 m 0,0 0,0 m 0,0 0.96,1.441 m 0,0 0,1.92 m 0,0 -1.44,4.319 m 0,0 0,0.961 m 0,0 0.48,1.44 m 0,0 0,0"
           style="fill:none;stroke:#231f20;stroke-width:0.47999999;stroke-linecap:butt;stroke-linejoin:miter;stroke-miterlimit:10;stroke-opacity:1;stroke-dasharray:none"
           id="path3748"
           inkscape:connector-curvature="0" /></g></g><path
       d="m 249.36,330.135 -0.96,-1.44 0,-1.92 1.44,-4.32 0,-0.96 -0.48,-1.441 -1.92,0 0.96,1.441 0,1.92 -1.44,4.319 0,0.961 0.48,1.44 1.92,0"
       style="fill:#ffffff;fill-opacity:1;fill-rule:nonzero;stroke:none"
       id="path3750"
       inkscape:connector-curvature="0" /><g
       id="g3752"><g
         id="g3754"
         clip-path="url(#clipPath3756)"><path
           d="m 249.36,330.135 -0.96,-1.44 m 0,0 0,-1.92 m 0,0 1.44,-4.32 m 0,0 0,-0.96 m 0,0 -0.48,-1.441 m 0,0 -1.92,0 m 0,0 0.96,1.441 m 0,0 0,1.92 m 0,0 -1.44,4.319 m 0,0 0,0.961 m 0,0 0.48,1.44 m 0,0 1.92,0"
           style="fill:none;stroke:#231f20;stroke-width:0.47999999;stroke-linecap:butt;stroke-linejoin:miter;stroke-miterlimit:10;stroke-opacity:1;stroke-dasharray:none"
           id="path3760"
           inkscape:connector-curvature="0" /></g></g><text
       transform="matrix(1,0,0,-1,168.7166,396.3779)"
       id="text3762"><tspan
         style="font-size:6.24020004px;font-variant:normal;font-weight:normal;writing-mode:lr-tb;fill:#231f20;fill-opacity:1;fill-rule:nonzero;stroke:none;font-family:Helvetica;-inkscape-font-specification:Helvetica"
         x="0 11.038914 26.401037 54.244812 77.762878 -18.240728 149.99319 172.14465 201.58342"
         y="0"
         sodipodi:role="line"
         id="tspan3764">BCDEFAGHI</tspan></text>
</g></svg>