<?xml version="1.0" encoding="UTF-8" standalone="no"?>
<!-- Created with Inkscape (http://www.inkscape.org/) -->

<svg
   xmlns:dc="http://purl.org/dc/elements/1.1/"
   xmlns:cc="http://creativecommons.org/ns#"
   xmlns:rdf="http://www.w3.org/1999/02/22-rdf-syntax-ns#"
   xmlns:svg="http://www.w3.org/2000/svg"
   xmlns="http://www.w3.org/2000/svg"
   xmlns:sodipodi="http://sodipodi.sourceforge.net/DTD/sodipodi-0.dtd"
   xmlns:inkscape="http://www.inkscape.org/namespaces/inkscape"
   id="svg3020"
   version="1.1"
   inkscape:version="0.48.4 r9939"
   width="495"
   height="112.5"
   xml:space="preserve"
   sodipodi:docname="mnl_avalon_spec.pdf"><metadata
     id="metadata3026"><rdf:RDF><cc:Work
         rdf:about=""><dc:format>image/svg+xml</dc:format><dc:type
           rdf:resource="http://purl.org/dc/dcmitype/StillImage" /><dc:title></dc:title></cc:Work></rdf:RDF></metadata><defs
     id="defs3024"><clipPath
       clipPathUnits="userSpaceOnUse"
       id="clipPath3046"><path
         d="m 54,584.04 396,0 0,-6 -396,0 0,6 z"
         clip-rule="evenodd"
         id="path3048"
         inkscape:connector-curvature="0" /></clipPath><clipPath
       clipPathUnits="userSpaceOnUse"
       id="clipPath3226"><path
         d="m 54,337.98 396,0 0,-9.96 -396,0 0,9.96 z"
         clip-rule="evenodd"
         id="path3228"
         inkscape:connector-curvature="0" /></clipPath><clipPath
       clipPathUnits="userSpaceOnUse"
       id="clipPath3360"><path
         d="m 54,562.98 396,0 0,-90 -396,0 0,90 z"
         clip-rule="evenodd"
         id="path3362"
         inkscape:connector-curvature="0" /></clipPath><clipPath
       clipPathUnits="userSpaceOnUse"
       id="clipPath3386"><path
         d="m 81,562.98 369,0 0,-83.52 -369,0 0,83.52 z"
         id="path3388"
         inkscape:connector-curvature="0" /></clipPath><clipPath
       clipPathUnits="userSpaceOnUse"
       id="clipPath3412"><path
         d="m 81,562.98 369,0 0,-83.52 -369,0 0,83.52 z"
         id="path3414"
         inkscape:connector-curvature="0" /></clipPath><clipPath
       clipPathUnits="userSpaceOnUse"
       id="clipPath3438"><path
         d="m 81,562.98 369,0 0,-83.52 -369,0 0,83.52 z"
         id="path3440"
         inkscape:connector-curvature="0" /></clipPath><clipPath
       clipPathUnits="userSpaceOnUse"
       id="clipPath3464"><path
         d="m 81,562.98 369,0 0,-83.52 -369,0 0,83.52 z"
         id="path3466"
         inkscape:connector-curvature="0" /></clipPath><clipPath
       clipPathUnits="userSpaceOnUse"
       id="clipPath3490"><path
         d="m 81,562.98 369,0 0,-83.52 -369,0 0,83.52 z"
         id="path3492"
         inkscape:connector-curvature="0" /></clipPath><clipPath
       clipPathUnits="userSpaceOnUse"
       id="clipPath3504"><path
         d="m 81,562.98 369,0 0,-83.52 -369,0 0,83.52 z"
         id="path3506"
         inkscape:connector-curvature="0" /></clipPath><clipPath
       clipPathUnits="userSpaceOnUse"
       id="clipPath3516"><path
         d="m 81,562.98 369,0 0,-83.52 -369,0 0,83.52 z"
         id="path3518"
         inkscape:connector-curvature="0" /></clipPath><clipPath
       clipPathUnits="userSpaceOnUse"
       id="clipPath3532"><path
         d="m 81,562.98 369,0 0,-83.52 -369,0 0,83.52 z"
         id="path3534"
         inkscape:connector-curvature="0" /></clipPath><clipPath
       clipPathUnits="userSpaceOnUse"
       id="clipPath3610"><path
         d="m 81,562.98 369,0 0,-83.52 -369,0 0,83.52 z"
         id="path3612"
         inkscape:connector-curvature="0" /></clipPath><clipPath
       clipPathUnits="userSpaceOnUse"
       id="clipPath3622"><path
         d="m 81,562.98 369,0 0,-83.52 -369,0 0,83.52 z"
         id="path3624"
         inkscape:connector-curvature="0" /></clipPath><clipPath
       clipPathUnits="userSpaceOnUse"
       id="clipPath3634"><path
         d="m 81,562.98 369,0 0,-83.52 -369,0 0,83.52 z"
         id="path3636"
         inkscape:connector-curvature="0" /></clipPath><clipPath
       clipPathUnits="userSpaceOnUse"
       id="clipPath3706"><path
         d="m 81,562.98 369,0 0,-83.52 -369,0 0,83.52 z"
         id="path3708"
         inkscape:connector-curvature="0" /></clipPath><clipPath
       clipPathUnits="userSpaceOnUse"
       id="clipPath3718"><path
         d="m 81,562.98 369,0 0,-83.52 -369,0 0,83.52 z"
         id="path3720"
         inkscape:connector-curvature="0" /></clipPath><clipPath
       clipPathUnits="userSpaceOnUse"
       id="clipPath3730"><path
         d="m 81,562.98 369,0 0,-83.52 -369,0 0,83.52 z"
         id="path3732"
         inkscape:connector-curvature="0" /></clipPath></defs><sodipodi:namedview
     pagecolor="#ffffff"
     bordercolor="#666666"
     borderopacity="1"
     objecttolerance="10"
     gridtolerance="10"
     guidetolerance="10"
     inkscape:pageopacity="0"
     inkscape:pageshadow="2"
     inkscape:window-width="1366"
     inkscape:window-height="744"
     id="namedview3022"
     showgrid="false"
     fit-margin-top="0"
     fit-margin-left="0"
     fit-margin-right="0"
     fit-margin-bottom="0"
     inkscape:zoom="1.4740741"
     inkscape:cx="233.33821"
     inkscape:cy="50.673827"
     inkscape:window-x="0"
     inkscape:window-y="24"
     inkscape:window-maximized="1"
     inkscape:current-layer="g3028" /><g
     id="g3028"
     inkscape:groupmode="layer"
     inkscape:label="mnl_avalon_spec"
     transform="matrix(1.25,0,0,-1.25,-67.5,703.725)"><g
       id="g3356"><g
         id="g3358"
         clip-path="url(#clipPath3360)"><path
           d="m 54,472.98 396,0 0,90 -396,0 0,-90 z"
           style="fill:#ffffff;fill-opacity:1;fill-rule:nonzero;stroke:none"
           id="path3364"
           inkscape:connector-curvature="0" /><path
           d="m 81,479.46 369,0 0,83.52 -369,0 0,-83.52 z"
           style="fill:#ffffff;fill-opacity:1;fill-rule:nonzero;stroke:none"
           id="path3366"
           inkscape:connector-curvature="0" /></g></g><text
       transform="matrix(0.99998398,0,0,-1,127.075,546.159)"
       id="text3368"><tspan
         style="font-size:6.24030018px;font-variant:normal;font-weight:normal;writing-mode:lr-tb;fill:#231f20;fill-opacity:1;fill-rule:nonzero;stroke:none;font-family:Helvetica;-inkscape-font-specification:Helvetica"
         x="0 3.1201501 4.5054965"
         y="0"
         sodipodi:role="line"
         id="tspan3370">clk</tspan><tspan
         style="font-size:6.24030018px;font-variant:normal;font-weight:normal;writing-mode:lr-tb;fill:#231f20;fill-opacity:1;fill-rule:nonzero;stroke:none;font-family:Helvetica;-inkscape-font-specification:Helvetica"
         x="-46.082119 -42.612511 -39.142906 -35.673298 -33.59528 -30.125671 -27.005522 -23.885372 -22.150568 -18.680962 -15.560812 -13.826009 -10.356401 -6.886795 -3.4171882 0.052418519 3.5220253 4.907372"
         y="12.481224"
         sodipodi:role="line"
         id="tspan3372">address,byteenable</tspan><tspan
         style="font-size:6.24030018px;font-variant:normal;font-weight:normal;writing-mode:lr-tb;fill:#231f20;fill-opacity:1;fill-rule:nonzero;stroke:none;font-family:Helvetica;-inkscape-font-specification:Helvetica"
         x="-3.8396566 -1.7616367 1.7079701 5.177577"
         y="24.961824"
         sodipodi:role="line"
         id="tspan3374">read</tspan><tspan
         style="font-size:6.24030018px;font-variant:normal;font-weight:normal;writing-mode:lr-tb;fill:#231f20;fill-opacity:1;fill-rule:nonzero;stroke:none;font-family:Helvetica;-inkscape-font-specification:Helvetica"
         x="-20.160538 -17.040388 -13.570781 -12.185433 -8.715827 -5.5956769 -2.1260703 -0.74072361 2.7288833 5.8490334"
         y="37.442425"
         sodipodi:role="line"
         id="tspan3376">chipselect</tspan><tspan
         style="font-size:6.24030018px;font-variant:normal;font-weight:normal;writing-mode:lr-tb;fill:#231f20;fill-opacity:1;fill-rule:nonzero;stroke:none;font-family:Helvetica;-inkscape-font-specification:Helvetica"
         x="-23.520939 -19.015442 -15.545835 -14.160489 -12.425685 -10.347666 -6.8780584 -3.4084518 0.061154939 3.5307617 6.6509118"
         y="49.923023"
         sodipodi:role="line"
         id="tspan3378">waitrequest</tspan><tspan
         style="font-size:6.24030018px;font-variant:normal;font-weight:normal;writing-mode:lr-tb;fill:#231f20;fill-opacity:1;fill-rule:nonzero;stroke:none;font-family:Helvetica;-inkscape-font-specification:Helvetica"
         x="-15.840378 -13.762358 -10.29275 -6.823144 -3.3535373 0.11606958 3.5856764 5.3204799"
         y="62.403625"
         sodipodi:role="line"
         id="tspan3380">readdata</tspan></text>
<g
       id="g3382"><g
         id="g3384"
         clip-path="url(#clipPath3386)"><path
           d="m 166.917,543.759 -29.282,0 m 29.282,0 0,8.64 m 0,0 36.961,0 m 0,0 0,-8.64 m 0,0 36.481,0 m 0,0 0,8.64 m 0,0 36.962,0 m 0,0 0,-8.64 m 0,0 36.481,0 m 0,0 0,8.64 m 0,0 36.962,0 m 0,0 0,-8.64 m 0,0 36.481,0 m 0,0 0,8.64 m 0,0 36.962,0 m 0,0 0,-8.64 m 0,0 29.281,0"
           style="fill:none;stroke:#231f20;stroke-width:0.47999999;stroke-linecap:butt;stroke-linejoin:miter;stroke-miterlimit:10;stroke-opacity:1;stroke-dasharray:none"
           id="path3390"
           inkscape:connector-curvature="0" /></g></g><path
       d="m 137.635,531.279 43.682,0 0,8.6396 -43.682,0 0,-8.6396 z"
       style="fill:#918f90;fill-opacity:1;fill-rule:nonzero;stroke:none"
       id="path3392"
       inkscape:connector-curvature="0" /><path
       d="m 137.635,531.279 43.202,0 m -43.202,8.64 43.202,0"
       style="fill:none;stroke:#231f20;stroke-width:0.47999999;stroke-linecap:butt;stroke-linejoin:miter;stroke-miterlimit:10;stroke-opacity:1;stroke-dasharray:none"
       id="path3394"
       inkscape:connector-curvature="0" /><path
       d="m 182.277,535.598 -1.44,-4.319 0,8.64 1.44,-4.321"
       style="fill:#918f90;fill-opacity:1;fill-rule:nonzero;stroke:none"
       id="path3396"
       inkscape:connector-curvature="0" /><path
       d="m 180.837,531.279 2.88,8.64 m -2.88,0 2.88,-8.64 m 0,0 216.97,0 m -216.97,8.64 216.97,0"
       style="fill:none;stroke:#231f20;stroke-width:0.47999999;stroke-linecap:butt;stroke-linejoin:miter;stroke-miterlimit:10;stroke-opacity:1;stroke-dasharray:none"
       id="path3398"
       inkscape:connector-curvature="0" /><text
       transform="matrix(0.99998398,0,0,-1,263.8804,533.678)"
       id="text3400"><tspan
         style="font-size:6.24030018px;font-variant:normal;font-weight:normal;writing-mode:lr-tb;fill:#231f20;fill-opacity:1;fill-rule:nonzero;stroke:none;font-family:Helvetica;-inkscape-font-specification:Helvetica"
         x="0 3.4696069 6.9392138 10.40882 12.48684 15.956447 19.076597 22.196747 23.931551 25.666353 29.135962 32.256111 33.990913 37.460522 40.930126 44.399734 47.869343 51.338947 52.724297"
         y="0"
         sodipodi:role="line"
         id="tspan3402">address, byteenable</tspan></text>
<path
       d="m 402.126,535.598 1.92,-4.319 0,8.64 -1.92,-4.321"
       style="fill:#918f90;fill-opacity:1;fill-rule:nonzero;stroke:none"
       id="path3404"
       inkscape:connector-curvature="0" /><path
       d="m 400.687,531.279 2.88,8.64 m -2.88,0 2.88,-8.64"
       style="fill:none;stroke:#231f20;stroke-width:0.47999999;stroke-linecap:butt;stroke-linejoin:miter;stroke-miterlimit:10;stroke-opacity:1;stroke-dasharray:none"
       id="path3406"
       inkscape:connector-curvature="0" /><g
       id="g3408"><g
         id="g3410"
         clip-path="url(#clipPath3412)"><path
           d="m 403.567,531.279 46.433,0 0,8.6396 -46.433,0 0,-8.6396 z"
           style="fill:#918f90;fill-opacity:1;fill-rule:nonzero;stroke:none"
           id="path3416"
           inkscape:connector-curvature="0" /><path
           d="m 403.567,531.279 49.921,0 m -49.921,8.64 49.921,0"
           style="fill:none;stroke:#231f20;stroke-width:0.47999999;stroke-linecap:butt;stroke-linejoin:miter;stroke-miterlimit:10;stroke-opacity:1;stroke-dasharray:none"
           id="path3418"
           inkscape:connector-curvature="0" /></g></g><path
       d="m 137.635,518.797 43.202,0 0,8.6404 -43.202,0 0,-8.6404 z"
       style="fill:#918f90;fill-opacity:1;fill-rule:nonzero;stroke:none"
       id="path3420"
       inkscape:connector-curvature="0" /><path
       d="m 137.635,518.797 42.722,0 m -42.722,8.641 42.722,0"
       style="fill:none;stroke:#231f20;stroke-width:0.47999999;stroke-linecap:butt;stroke-linejoin:miter;stroke-miterlimit:10;stroke-opacity:1;stroke-dasharray:none"
       id="path3422"
       inkscape:connector-curvature="0" /><path
       d="m 183.237,527.438 -2.88,-8.641 0,8.641 2.88,0"
       style="fill:#918f90;fill-opacity:1;fill-rule:nonzero;stroke:none"
       id="path3424"
       inkscape:connector-curvature="0" /><path
       d="m 180.357,518.797 2.88,8.641 m -2.88,0 2.88,0 m 0,0 217.929,0"
       style="fill:none;stroke:#231f20;stroke-width:0.47999999;stroke-linecap:butt;stroke-linejoin:miter;stroke-miterlimit:10;stroke-opacity:1;stroke-dasharray:none"
       id="path3426"
       inkscape:connector-curvature="0" /><path
       d="m 401.166,527.438 3.361,-8.641 0,8.641 -3.361,0"
       style="fill:#918f90;fill-opacity:1;fill-rule:nonzero;stroke:none"
       id="path3428"
       inkscape:connector-curvature="0" /><path
       d="m 401.166,527.438 3.361,-8.641 0,8.641 -3.361,0"
       style="fill:#918f90;fill-opacity:1;fill-rule:nonzero;stroke:none"
       id="path3430"
       inkscape:connector-curvature="0" /><path
       d="m 401.166,527.438 2.88,-8.641 m -2.88,8.641 2.88,0"
       style="fill:none;stroke:#231f20;stroke-width:0.47999999;stroke-linecap:butt;stroke-linejoin:miter;stroke-miterlimit:10;stroke-opacity:1;stroke-dasharray:none"
       id="path3432"
       inkscape:connector-curvature="0" /><g
       id="g3434"><g
         id="g3436"
         clip-path="url(#clipPath3438)"><path
           d="m 404.046,518.797 45.954,0 0,8.6404 -45.954,0 0,-8.6404 z"
           style="fill:#918f90;fill-opacity:1;fill-rule:nonzero;stroke:none"
           id="path3442"
           inkscape:connector-curvature="0" /><path
           d="m 404.046,518.797 49.442,0 m -49.442,8.641 49.442,0"
           style="fill:none;stroke:#231f20;stroke-width:0.47999999;stroke-linecap:butt;stroke-linejoin:miter;stroke-miterlimit:10;stroke-opacity:1;stroke-dasharray:none"
           id="path3444"
           inkscape:connector-curvature="0" /></g></g><path
       d="m 137.635,506.318 55.682,0 0,8.6394 -55.682,0 0,-8.6394 z"
       style="fill:#918f90;fill-opacity:1;fill-rule:nonzero;stroke:none"
       id="path3446"
       inkscape:connector-curvature="0" /><path
       d="m 137.635,506.318 55.203,0 m -55.203,8.639 55.203,0"
       style="fill:none;stroke:#231f20;stroke-width:0.47999999;stroke-linecap:butt;stroke-linejoin:miter;stroke-miterlimit:10;stroke-opacity:1;stroke-dasharray:none"
       id="path3448"
       inkscape:connector-curvature="0" /><path
       d="m 195.718,514.957 -2.88,-8.639 0,8.639 2.88,0"
       style="fill:#918f90;fill-opacity:1;fill-rule:nonzero;stroke:none"
       id="path3450"
       inkscape:connector-curvature="0" /><path
       d="m 192.838,506.318 2.88,8.639 m -2.88,0 2.88,0 m 0,0 209.288,0"
       style="fill:none;stroke:#231f20;stroke-width:0.47999999;stroke-linecap:butt;stroke-linejoin:miter;stroke-miterlimit:10;stroke-opacity:1;stroke-dasharray:none"
       id="path3452"
       inkscape:connector-curvature="0" /><path
       d="m 405.006,514.957 3.36,-8.639 0,8.639 -3.36,0"
       style="fill:#918f90;fill-opacity:1;fill-rule:nonzero;stroke:none"
       id="path3454"
       inkscape:connector-curvature="0" /><path
       d="m 405.006,514.957 3.36,-8.639 0,8.639 -3.36,0"
       style="fill:#918f90;fill-opacity:1;fill-rule:nonzero;stroke:none"
       id="path3456"
       inkscape:connector-curvature="0" /><path
       d="m 405.006,514.957 2.88,-8.639 m -2.88,8.639 2.88,0"
       style="fill:none;stroke:#231f20;stroke-width:0.47999999;stroke-linecap:butt;stroke-linejoin:miter;stroke-miterlimit:10;stroke-opacity:1;stroke-dasharray:none"
       id="path3458"
       inkscape:connector-curvature="0" /><g
       id="g3460"><g
         id="g3462"
         clip-path="url(#clipPath3464)"><path
           d="m 407.886,506.318 42.114,0 0,8.6394 -42.114,0 0,-8.6394 z"
           style="fill:#918f90;fill-opacity:1;fill-rule:nonzero;stroke:none"
           id="path3468"
           inkscape:connector-curvature="0" /><path
           d="m 407.886,506.318 45.602,0 m -45.602,8.639 45.602,0"
           style="fill:none;stroke:#231f20;stroke-width:0.47999999;stroke-linecap:butt;stroke-linejoin:miter;stroke-miterlimit:10;stroke-opacity:1;stroke-dasharray:none"
           id="path3470"
           inkscape:connector-curvature="0" /></g></g><path
       d="m 137.635,493.836 70.083,0 0,8.6414 -70.083,0 0,-8.6414 z"
       style="fill:#918f90;fill-opacity:1;fill-rule:nonzero;stroke:none"
       id="path3472"
       inkscape:connector-curvature="0" /><path
       d="m 137.635,493.836 69.603,0 m -69.603,8.642 69.603,0"
       style="fill:none;stroke:#231f20;stroke-width:0.47999999;stroke-linecap:butt;stroke-linejoin:miter;stroke-miterlimit:10;stroke-opacity:1;stroke-dasharray:none"
       id="path3474"
       inkscape:connector-curvature="0" /><path
       d="m 210.118,502.478 -2.88,-8.642 0,8.642 2.88,0"
       style="fill:#918f90;fill-opacity:1;fill-rule:nonzero;stroke:none"
       id="path3476"
       inkscape:connector-curvature="0" /><path
       d="m 207.238,493.836 2.88,8.642 m -2.88,0 2.88,0 137.766,0 m 0,0 2.88,-8.642 m 0,0 60.962,0"
       style="fill:none;stroke:#231f20;stroke-width:0.47999999;stroke-linecap:butt;stroke-linejoin:miter;stroke-miterlimit:10;stroke-opacity:1;stroke-dasharray:none"
       id="path3478"
       inkscape:connector-curvature="0" /><path
       d="m 411.726,493.836 3.36,0 0,8.642 -3.36,-8.642"
       style="fill:#918f90;fill-opacity:1;fill-rule:nonzero;stroke:none"
       id="path3480"
       inkscape:connector-curvature="0" /><path
       d="m 411.726,493.836 3.36,0 0,8.642 -3.36,-8.642"
       style="fill:#918f90;fill-opacity:1;fill-rule:nonzero;stroke:none"
       id="path3482"
       inkscape:connector-curvature="0" /><path
       d="m 411.726,493.836 2.882,0 m -2.882,0 2.882,8.642"
       style="fill:none;stroke:#231f20;stroke-width:0.47999999;stroke-linecap:butt;stroke-linejoin:miter;stroke-miterlimit:10;stroke-opacity:1;stroke-dasharray:none"
       id="path3484"
       inkscape:connector-curvature="0" /><g
       id="g3486"><g
         id="g3488"
         clip-path="url(#clipPath3490)"><path
           d="m 414.608,493.836 35.392,0 0,8.6414 -35.392,0 0,-8.6414 z"
           style="fill:#918f90;fill-opacity:1;fill-rule:nonzero;stroke:none"
           id="path3494"
           inkscape:connector-curvature="0" /><path
           d="m 414.608,493.836 38.88,0 m -38.88,8.642 38.88,0"
           style="fill:none;stroke:#231f20;stroke-width:0.47999999;stroke-linecap:butt;stroke-linejoin:miter;stroke-miterlimit:10;stroke-opacity:1;stroke-dasharray:none"
           id="path3496"
           inkscape:connector-curvature="0" /></g></g><path
       d="m 137.635,481.357 195.368,0 0,8.6394 -195.368,0 0,-8.6394 z"
       style="fill:#918f90;fill-opacity:1;fill-rule:nonzero;stroke:none"
       id="path3498"
       inkscape:connector-curvature="0" /><g
       id="g3500"><g
         id="g3502"
         clip-path="url(#clipPath3504)"><path
           d="m 137.635,481.357 194.889,0 m -194.889,8.639 194.889,0"
           style="fill:none;stroke:#231f20;stroke-width:0.47999999;stroke-linecap:butt;stroke-linejoin:miter;stroke-miterlimit:10;stroke-opacity:1;stroke-dasharray:none"
           id="path3508"
           inkscape:connector-curvature="0" /></g></g><path
       d="m 333.963,485.676 -1.439,-4.319 0,8.639 1.439,-4.32"
       style="fill:#918f90;fill-opacity:1;fill-rule:nonzero;stroke:none"
       id="path3510"
       inkscape:connector-curvature="0" /><g
       id="g3512"><g
         id="g3514"
         clip-path="url(#clipPath3516)"><path
           d="m 332.524,481.357 2.879,8.639 m -2.879,0 2.879,-8.639 m 0,0 65.284,0 m -65.284,8.639 65.284,0"
           style="fill:none;stroke:#231f20;stroke-width:0.47999999;stroke-linecap:butt;stroke-linejoin:miter;stroke-miterlimit:10;stroke-opacity:1;stroke-dasharray:none"
           id="path3520"
           inkscape:connector-curvature="0" /></g></g><text
       transform="matrix(0.99998398,0,0,-1,356.0441,483.7559)"
       id="text3522"><tspan
         style="font-size:6.24030018px;font-variant:normal;font-weight:normal;writing-mode:lr-tb;fill:#231f20;fill-opacity:1;fill-rule:nonzero;stroke:none;font-family:Helvetica;-inkscape-font-specification:Helvetica"
         x="0 2.0780199 5.5476265 9.0172338 12.48684 15.956447 19.426054 21.160858"
         y="0"
         sodipodi:role="line"
         id="tspan3524">readdata</tspan></text>
<path
       d="m 402.126,485.676 1.92,-4.319 0,8.639 -1.92,-4.32"
       style="fill:#918f90;fill-opacity:1;fill-rule:nonzero;stroke:none"
       id="path3526"
       inkscape:connector-curvature="0" /><g
       id="g3528"><g
         id="g3530"
         clip-path="url(#clipPath3532)"><path
           d="m 400.687,481.357 2.88,8.639 m -2.88,0 2.88,-8.639"
           style="fill:none;stroke:#231f20;stroke-width:0.47999999;stroke-linecap:butt;stroke-linejoin:miter;stroke-miterlimit:10;stroke-opacity:1;stroke-dasharray:none"
           id="path3536"
           inkscape:connector-curvature="0" /><path
           d="m 403.567,481.357 46.433,0 0,8.6394 -46.433,0 0,-8.6394 z"
           style="fill:#918f90;fill-opacity:1;fill-rule:nonzero;stroke:none"
           id="path3538"
           inkscape:connector-curvature="0" /><path
           d="m 403.567,481.357 49.921,0 m -49.921,8.639 49.921,0"
           style="fill:none;stroke:#231f20;stroke-width:0.47999999;stroke-linecap:butt;stroke-linejoin:miter;stroke-miterlimit:10;stroke-opacity:1;stroke-dasharray:none"
           id="path3540"
           inkscape:connector-curvature="0" /><path
           d="m 166.917,554.319 0,-74.882 m 20.16,74.882 0,-74.882 m 10.561,74.882 0,-74.882 m 15.84,74.882 0,-74.882 m 26.881,74.882 0,-74.882 m 96.964,74.882 0,-74.882 m 13.441,74.882 0,-74.882 m 36.481,74.882 0,-74.882"
           style="fill:none;stroke:none"
           id="path3542"
           inkscape:connector-curvature="0" /></g></g><path
       d="m 305.162,553.359 -0.96,-1.44 0,-1.92 1.441,-4.32 0,-0.96 -0.481,-1.44 0.96,1.44 0,1.92 -1.439,4.32 0,0.96 0.479,1.44"
       style="fill:#231f20;fill-opacity:1;fill-rule:nonzero;stroke:none"
       id="path3544"
       inkscape:connector-curvature="0" /><path
       d="m 305.162,553.359 -0.96,-1.44 m 0,0 0,-1.92 m 0,0 1.441,-4.32 m 0,0 0,-0.96 m 0,0 -0.481,-1.44 m 0,0 0,0 m 0,0 0.96,1.44 m 0,0 0,1.92 m 0,0 -1.439,4.32 m 0,0 0,0.96 m 0,0 0.479,1.44 m 0,0 0,0"
       style="fill:none;stroke:#231f20;stroke-width:0.47999999;stroke-linecap:butt;stroke-linejoin:miter;stroke-miterlimit:10;stroke-opacity:1;stroke-dasharray:none"
       id="path3546"
       inkscape:connector-curvature="0" /><path
       d="m 307.082,553.359 -0.96,-1.44 0,-1.92 1.441,-4.32 0,-0.96 -0.481,-1.44 0.96,1.44 0,1.92 -1.439,4.32 0,0.96 0.479,1.44"
       style="fill:#231f20;fill-opacity:1;fill-rule:nonzero;stroke:none"
       id="path3548"
       inkscape:connector-curvature="0" /><path
       d="m 307.082,553.359 -0.96,-1.44 m 0,0 0,-1.92 m 0,0 1.441,-4.32 m 0,0 0,-0.96 m 0,0 -0.481,-1.44 m 0,0 0,0 m 0,0 0.96,1.44 m 0,0 0,1.92 m 0,0 -1.439,4.32 m 0,0 0,0.96 m 0,0 0.479,1.44 m 0,0 0,0"
       style="fill:none;stroke:#231f20;stroke-width:0.47999999;stroke-linecap:butt;stroke-linejoin:miter;stroke-miterlimit:10;stroke-opacity:1;stroke-dasharray:none"
       id="path3550"
       inkscape:connector-curvature="0" /><path
       d="m 307.082,553.359 -0.96,-1.44 0,-1.92 1.441,-4.32 0,-0.96 -0.481,-1.44 -1.92,0 0.96,1.44 0,1.92 -1.439,4.32 0,0.96 0.479,1.44 1.92,0"
       style="fill:#ffffff;fill-opacity:1;fill-rule:nonzero;stroke:none"
       id="path3552"
       inkscape:connector-curvature="0" /><path
       d="m 307.082,553.359 -0.96,-1.44 m 0,0 0,-1.92 m 0,0 1.441,-4.32 m 0,0 0,-0.96 m 0,0 -0.481,-1.44 m 0,0 -1.92,0 m 0,0 0.96,1.44 m 0,0 0,1.92 m 0,0 -1.439,4.32 m 0,0 0,0.96 m 0,0 0.479,1.44 m 0,0 1.92,0"
       style="fill:none;stroke:#231f20;stroke-width:0.47999999;stroke-linecap:butt;stroke-linejoin:miter;stroke-miterlimit:10;stroke-opacity:1;stroke-dasharray:none"
       id="path3554"
       inkscape:connector-curvature="0" /><path
       d="m 305.162,540.878 -0.96,-1.44 0,-1.919 1.441,-4.321 0,-0.96 -0.481,-1.439 0.96,1.439 0,1.92 -1.439,4.32 0,0.96 0.479,1.44"
       style="fill:#231f20;fill-opacity:1;fill-rule:nonzero;stroke:none"
       id="path3556"
       inkscape:connector-curvature="0" /><path
       d="m 305.162,540.878 -0.96,-1.44 m 0,0 0,-1.919 m 0,0 1.441,-4.321 m 0,0 0,-0.96 m 0,0 -0.481,-1.439 m 0,0 0,0 m 0,0 0.96,1.439 m 0,0 0,1.92 m 0,0 -1.439,4.32 m 0,0 0,0.96 m 0,0 0.479,1.44 m 0,0 0,0"
       style="fill:none;stroke:#231f20;stroke-width:0.47999999;stroke-linecap:butt;stroke-linejoin:miter;stroke-miterlimit:10;stroke-opacity:1;stroke-dasharray:none"
       id="path3558"
       inkscape:connector-curvature="0" /><path
       d="m 307.082,540.878 -0.96,-1.44 0,-1.919 1.441,-4.321 0,-0.96 -0.481,-1.439 0.96,1.439 0,1.92 -1.439,4.32 0,0.96 0.479,1.44"
       style="fill:#231f20;fill-opacity:1;fill-rule:nonzero;stroke:none"
       id="path3560"
       inkscape:connector-curvature="0" /><path
       d="m 307.082,540.878 -0.96,-1.44 m 0,0 0,-1.919 m 0,0 1.441,-4.321 m 0,0 0,-0.96 m 0,0 -0.481,-1.439 m 0,0 0,0 m 0,0 0.96,1.439 m 0,0 0,1.92 m 0,0 -1.439,4.32 m 0,0 0,0.96 m 0,0 0.479,1.44 m 0,0 0,0"
       style="fill:none;stroke:#231f20;stroke-width:0.47999999;stroke-linecap:butt;stroke-linejoin:miter;stroke-miterlimit:10;stroke-opacity:1;stroke-dasharray:none"
       id="path3562"
       inkscape:connector-curvature="0" /><path
       d="m 307.082,540.878 -0.96,-1.44 0,-1.919 1.441,-4.321 0,-0.96 -0.481,-1.439 -1.92,0 0.96,1.439 0,1.92 -1.439,4.32 0,0.96 0.479,1.44 1.92,0"
       style="fill:#ffffff;fill-opacity:1;fill-rule:nonzero;stroke:none"
       id="path3564"
       inkscape:connector-curvature="0" /><path
       d="m 307.082,540.878 -0.96,-1.44 m 0,0 0,-1.919 m 0,0 1.441,-4.321 m 0,0 0,-0.96 m 0,0 -0.481,-1.439 m 0,0 -1.92,0 m 0,0 0.96,1.439 m 0,0 0,1.92 m 0,0 -1.439,4.32 m 0,0 0,0.96 m 0,0 0.479,1.44 m 0,0 1.92,0"
       style="fill:none;stroke:#231f20;stroke-width:0.47999999;stroke-linecap:butt;stroke-linejoin:miter;stroke-miterlimit:10;stroke-opacity:1;stroke-dasharray:none"
       id="path3566"
       inkscape:connector-curvature="0" /><path
       d="m 305.162,528.398 -0.96,-1.44 0,-1.92 1.441,-4.321 0,-0.959 -0.481,-1.44 0.96,1.44 0,1.921 -1.439,4.319 0,0.96 0.479,1.44"
       style="fill:#231f20;fill-opacity:1;fill-rule:nonzero;stroke:none"
       id="path3568"
       inkscape:connector-curvature="0" /><path
       d="m 305.162,528.398 -0.96,-1.44 m 0,0 0,-1.92 m 0,0 1.441,-4.321 m 0,0 0,-0.959 m 0,0 -0.481,-1.44 m 0,0 0,0 m 0,0 0.96,1.44 m 0,0 0,1.921 m 0,0 -1.439,4.319 m 0,0 0,0.96 m 0,0 0.479,1.44 m 0,0 0,0"
       style="fill:none;stroke:#231f20;stroke-width:0.47999999;stroke-linecap:butt;stroke-linejoin:miter;stroke-miterlimit:10;stroke-opacity:1;stroke-dasharray:none"
       id="path3570"
       inkscape:connector-curvature="0" /><path
       d="m 307.082,528.398 -0.96,-1.44 0,-1.92 1.441,-4.321 0,-0.959 -0.481,-1.44 0.96,1.44 0,1.921 -1.439,4.319 0,0.96 0.479,1.44"
       style="fill:#231f20;fill-opacity:1;fill-rule:nonzero;stroke:none"
       id="path3572"
       inkscape:connector-curvature="0" /><path
       d="m 307.082,528.398 -0.96,-1.44 m 0,0 0,-1.92 m 0,0 1.441,-4.321 m 0,0 0,-0.959 m 0,0 -0.481,-1.44 m 0,0 0,0 m 0,0 0.96,1.44 m 0,0 0,1.921 m 0,0 -1.439,4.319 m 0,0 0,0.96 m 0,0 0.479,1.44 m 0,0 0,0"
       style="fill:none;stroke:#231f20;stroke-width:0.47999999;stroke-linecap:butt;stroke-linejoin:miter;stroke-miterlimit:10;stroke-opacity:1;stroke-dasharray:none"
       id="path3574"
       inkscape:connector-curvature="0" /><path
       d="m 307.082,528.398 -0.96,-1.44 0,-1.92 1.441,-4.321 0,-0.959 -0.481,-1.44 -1.92,0 0.96,1.44 0,1.921 -1.439,4.319 0,0.96 0.479,1.44 1.92,0"
       style="fill:#ffffff;fill-opacity:1;fill-rule:nonzero;stroke:none"
       id="path3576"
       inkscape:connector-curvature="0" /><path
       d="m 307.082,528.398 -0.96,-1.44 m 0,0 0,-1.92 m 0,0 1.441,-4.321 m 0,0 0,-0.959 m 0,0 -0.481,-1.44 m 0,0 -1.92,0 m 0,0 0.96,1.44 m 0,0 0,1.921 m 0,0 -1.439,4.319 m 0,0 0,0.96 m 0,0 0.479,1.44 m 0,0 1.92,0"
       style="fill:none;stroke:#231f20;stroke-width:0.47999999;stroke-linecap:butt;stroke-linejoin:miter;stroke-miterlimit:10;stroke-opacity:1;stroke-dasharray:none"
       id="path3578"
       inkscape:connector-curvature="0" /><path
       d="m 305.162,515.917 -0.96,-1.44 0,-1.92 1.441,-4.32 0,-0.959 -0.481,-1.441 0.96,1.441 0,1.919 -1.439,4.321 0,0.959 0.479,1.44"
       style="fill:#231f20;fill-opacity:1;fill-rule:nonzero;stroke:none"
       id="path3580"
       inkscape:connector-curvature="0" /><path
       d="m 305.162,515.917 -0.96,-1.44 m 0,0 0,-1.92 m 0,0 1.441,-4.32 m 0,0 0,-0.959 m 0,0 -0.481,-1.441 m 0,0 0,0 m 0,0 0.96,1.441 m 0,0 0,1.919 m 0,0 -1.439,4.321 m 0,0 0,0.959 m 0,0 0.479,1.44 m 0,0 0,0"
       style="fill:none;stroke:#231f20;stroke-width:0.47999999;stroke-linecap:butt;stroke-linejoin:miter;stroke-miterlimit:10;stroke-opacity:1;stroke-dasharray:none"
       id="path3582"
       inkscape:connector-curvature="0" /><path
       d="m 307.082,515.917 -0.96,-1.44 0,-1.92 1.441,-4.32 0,-0.959 -0.481,-1.441 0.96,1.441 0,1.919 -1.439,4.321 0,0.959 0.479,1.44"
       style="fill:#231f20;fill-opacity:1;fill-rule:nonzero;stroke:none"
       id="path3584"
       inkscape:connector-curvature="0" /><path
       d="m 307.082,515.917 -0.96,-1.44 m 0,0 0,-1.92 m 0,0 1.441,-4.32 m 0,0 0,-0.959 m 0,0 -0.481,-1.441 m 0,0 0,0 m 0,0 0.96,1.441 m 0,0 0,1.919 m 0,0 -1.439,4.321 m 0,0 0,0.959 m 0,0 0.479,1.44 m 0,0 0,0"
       style="fill:none;stroke:#231f20;stroke-width:0.47999999;stroke-linecap:butt;stroke-linejoin:miter;stroke-miterlimit:10;stroke-opacity:1;stroke-dasharray:none"
       id="path3586"
       inkscape:connector-curvature="0" /><path
       d="m 307.082,515.917 -0.96,-1.44 0,-1.92 1.441,-4.32 0,-0.959 -0.481,-1.441 -1.92,0 0.96,1.441 0,1.919 -1.439,4.321 0,0.959 0.479,1.44 1.92,0"
       style="fill:#ffffff;fill-opacity:1;fill-rule:nonzero;stroke:none"
       id="path3588"
       inkscape:connector-curvature="0" /><path
       d="m 307.082,515.917 -0.96,-1.44 m 0,0 0,-1.92 m 0,0 1.441,-4.32 m 0,0 0,-0.959 m 0,0 -0.481,-1.441 m 0,0 -1.92,0 m 0,0 0.96,1.441 m 0,0 0,1.919 m 0,0 -1.439,4.321 m 0,0 0,0.959 m 0,0 0.479,1.44 m 0,0 1.92,0"
       style="fill:none;stroke:#231f20;stroke-width:0.47999999;stroke-linecap:butt;stroke-linejoin:miter;stroke-miterlimit:10;stroke-opacity:1;stroke-dasharray:none"
       id="path3590"
       inkscape:connector-curvature="0" /><path
       d="m 305.162,503.438 -0.96,-1.441 0,-1.92 1.441,-4.321 0,-0.96 -0.481,-1.439 0.96,1.439 0,1.92 -1.439,4.321 0,0.96 0.479,1.441"
       style="fill:#231f20;fill-opacity:1;fill-rule:nonzero;stroke:none"
       id="path3592"
       inkscape:connector-curvature="0" /><path
       d="m 305.162,503.438 -0.96,-1.441 m 0,0 0,-1.92 m 0,0 1.441,-4.321 m 0,0 0,-0.96 m 0,0 -0.481,-1.439 m 0,0 0,0 m 0,0 0.96,1.439 m 0,0 0,1.92 m 0,0 -1.439,4.321 m 0,0 0,0.96 m 0,0 0.479,1.441 m 0,0 0,0"
       style="fill:none;stroke:#231f20;stroke-width:0.47999999;stroke-linecap:butt;stroke-linejoin:miter;stroke-miterlimit:10;stroke-opacity:1;stroke-dasharray:none"
       id="path3594"
       inkscape:connector-curvature="0" /><path
       d="m 307.082,503.438 -0.96,-1.441 0,-1.92 1.441,-4.321 0,-0.96 -0.481,-1.439 0.96,1.439 0,1.92 -1.439,4.321 0,0.96 0.479,1.441"
       style="fill:#231f20;fill-opacity:1;fill-rule:nonzero;stroke:none"
       id="path3596"
       inkscape:connector-curvature="0" /><path
       d="m 307.082,503.438 -0.96,-1.441 m 0,0 0,-1.92 m 0,0 1.441,-4.321 m 0,0 0,-0.96 m 0,0 -0.481,-1.439 m 0,0 0,0 m 0,0 0.96,1.439 m 0,0 0,1.92 m 0,0 -1.439,4.321 m 0,0 0,0.96 m 0,0 0.479,1.441 m 0,0 0,0"
       style="fill:none;stroke:#231f20;stroke-width:0.47999999;stroke-linecap:butt;stroke-linejoin:miter;stroke-miterlimit:10;stroke-opacity:1;stroke-dasharray:none"
       id="path3598"
       inkscape:connector-curvature="0" /><path
       d="m 307.082,503.438 -0.96,-1.441 0,-1.92 1.441,-4.321 0,-0.96 -0.481,-1.439 -1.92,0 0.96,1.439 0,1.92 -1.439,4.321 0,0.96 0.479,1.441 1.92,0"
       style="fill:#ffffff;fill-opacity:1;fill-rule:nonzero;stroke:none"
       id="path3600"
       inkscape:connector-curvature="0" /><path
       d="m 307.082,503.438 -0.96,-1.441 m 0,0 0,-1.92 m 0,0 1.441,-4.321 m 0,0 0,-0.96 m 0,0 -0.481,-1.439 m 0,0 -1.92,0 m 0,0 0.96,1.439 m 0,0 0,1.92 m 0,0 -1.439,4.321 m 0,0 0,0.96 m 0,0 0.479,1.441 m 0,0 1.92,0"
       style="fill:none;stroke:#231f20;stroke-width:0.47999999;stroke-linecap:butt;stroke-linejoin:miter;stroke-miterlimit:10;stroke-opacity:1;stroke-dasharray:none"
       id="path3602"
       inkscape:connector-curvature="0" /><path
       d="m 305.162,490.956 -0.96,-1.439 0,-1.92 1.441,-4.32 0,-0.96 -0.481,-1.441 0.96,1.441 0,1.919 -1.439,4.32 0,0.961 0.479,1.439"
       style="fill:#231f20;fill-opacity:1;fill-rule:nonzero;stroke:none"
       id="path3604"
       inkscape:connector-curvature="0" /><g
       id="g3606"><g
         id="g3608"
         clip-path="url(#clipPath3610)"><path
           d="m 305.162,490.956 -0.96,-1.439 m 0,0 0,-1.92 m 0,0 1.441,-4.32 m 0,0 0,-0.96 m 0,0 -0.481,-1.441 m 0,0 0,0 m 0,0 0.96,1.441 m 0,0 0,1.919 m 0,0 -1.439,4.32 m 0,0 0,0.961 m 0,0 0.479,1.439 m 0,0 0,0"
           style="fill:none;stroke:#231f20;stroke-width:0.47999999;stroke-linecap:butt;stroke-linejoin:miter;stroke-miterlimit:10;stroke-opacity:1;stroke-dasharray:none"
           id="path3614"
           inkscape:connector-curvature="0" /></g></g><path
       d="m 307.082,490.956 -0.96,-1.439 0,-1.92 1.441,-4.32 0,-0.96 -0.481,-1.441 0.96,1.441 0,1.919 -1.439,4.32 0,0.961 0.479,1.439"
       style="fill:#231f20;fill-opacity:1;fill-rule:nonzero;stroke:none"
       id="path3616"
       inkscape:connector-curvature="0" /><g
       id="g3618"><g
         id="g3620"
         clip-path="url(#clipPath3622)"><path
           d="m 307.082,490.956 -0.96,-1.439 m 0,0 0,-1.92 m 0,0 1.441,-4.32 m 0,0 0,-0.96 m 0,0 -0.481,-1.441 m 0,0 0,0 m 0,0 0.96,1.441 m 0,0 0,1.919 m 0,0 -1.439,4.32 m 0,0 0,0.961 m 0,0 0.479,1.439 m 0,0 0,0"
           style="fill:none;stroke:#231f20;stroke-width:0.47999999;stroke-linecap:butt;stroke-linejoin:miter;stroke-miterlimit:10;stroke-opacity:1;stroke-dasharray:none"
           id="path3626"
           inkscape:connector-curvature="0" /></g></g><path
       d="m 307.082,490.956 -0.96,-1.439 0,-1.92 1.441,-4.32 0,-0.96 -0.481,-1.441 -1.92,0 0.96,1.441 0,1.919 -1.439,4.32 0,0.961 0.479,1.439 1.92,0"
       style="fill:#ffffff;fill-opacity:1;fill-rule:nonzero;stroke:none"
       id="path3628"
       inkscape:connector-curvature="0" /><g
       id="g3630"><g
         id="g3632"
         clip-path="url(#clipPath3634)"><path
           d="m 307.082,490.956 -0.96,-1.439 m 0,0 0,-1.92 m 0,0 1.441,-4.32 m 0,0 0,-0.96 m 0,0 -0.481,-1.441 m 0,0 -1.92,0 m 0,0 0.96,1.441 m 0,0 0,1.919 m 0,0 -1.439,4.32 m 0,0 0,0.961 m 0,0 0.479,1.439 m 0,0 1.92,0"
           style="fill:none;stroke:#231f20;stroke-width:0.47999999;stroke-linecap:butt;stroke-linejoin:miter;stroke-miterlimit:10;stroke-opacity:1;stroke-dasharray:none"
           id="path3638"
           inkscape:connector-curvature="0" /></g></g><path
       d="m 262.92,553.359 -0.96,-1.44 0,-1.92 1.44,-4.32 0,-0.96 -0.48,-1.44 0.96,1.44 0,1.92 -1.44,4.32 0,0.96 0.48,1.44"
       style="fill:#231f20;fill-opacity:1;fill-rule:nonzero;stroke:none"
       id="path3640"
       inkscape:connector-curvature="0" /><path
       d="m 262.92,553.359 -0.96,-1.44 m 0,0 0,-1.92 m 0,0 1.44,-4.32 m 0,0 0,-0.96 m 0,0 -0.48,-1.44 m 0,0 0,0 m 0,0 0.96,1.44 m 0,0 0,1.92 m 0,0 -1.44,4.32 m 0,0 0,0.96 m 0,0 0.48,1.44 m 0,0 0,0"
       style="fill:none;stroke:#231f20;stroke-width:0.47999999;stroke-linecap:butt;stroke-linejoin:miter;stroke-miterlimit:10;stroke-opacity:1;stroke-dasharray:none"
       id="path3642"
       inkscape:connector-curvature="0" /><path
       d="m 264.84,553.359 -0.96,-1.44 0,-1.92 1.44,-4.32 0,-0.96 -0.48,-1.44 0.961,1.44 0,1.92 -1.441,4.32 0,0.96 0.48,1.44"
       style="fill:#231f20;fill-opacity:1;fill-rule:nonzero;stroke:none"
       id="path3644"
       inkscape:connector-curvature="0" /><path
       d="m 264.84,553.359 -0.96,-1.44 m 0,0 0,-1.92 m 0,0 1.44,-4.32 m 0,0 0,-0.96 m 0,0 -0.48,-1.44 m 0,0 0,0 m 0,0 0.961,1.44 m 0,0 0,1.92 m 0,0 -1.441,4.32 m 0,0 0,0.96 m 0,0 0.48,1.44 m 0,0 0,0"
       style="fill:none;stroke:#231f20;stroke-width:0.47999999;stroke-linecap:butt;stroke-linejoin:miter;stroke-miterlimit:10;stroke-opacity:1;stroke-dasharray:none"
       id="path3646"
       inkscape:connector-curvature="0" /><path
       d="m 264.84,553.359 -0.96,-1.44 0,-1.92 1.44,-4.32 0,-0.96 -0.48,-1.44 -1.92,0 0.96,1.44 0,1.92 -1.44,4.32 0,0.96 0.48,1.44 1.92,0"
       style="fill:#ffffff;fill-opacity:1;fill-rule:nonzero;stroke:none"
       id="path3648"
       inkscape:connector-curvature="0" /><path
       d="m 264.84,553.359 -0.96,-1.44 m 0,0 0,-1.92 m 0,0 1.44,-4.32 m 0,0 0,-0.96 m 0,0 -0.48,-1.44 m 0,0 -1.92,0 m 0,0 0.96,1.44 m 0,0 0,1.92 m 0,0 -1.44,4.32 m 0,0 0,0.96 m 0,0 0.48,1.44 m 0,0 1.92,0"
       style="fill:none;stroke:#231f20;stroke-width:0.47999999;stroke-linecap:butt;stroke-linejoin:miter;stroke-miterlimit:10;stroke-opacity:1;stroke-dasharray:none"
       id="path3650"
       inkscape:connector-curvature="0" /><path
       d="m 262.92,540.878 -0.96,-1.44 0,-1.919 1.44,-4.321 0,-0.96 -0.48,-1.439 0.96,1.439 0,1.92 -1.44,4.32 0,0.96 0.48,1.44"
       style="fill:#231f20;fill-opacity:1;fill-rule:nonzero;stroke:none"
       id="path3652"
       inkscape:connector-curvature="0" /><path
       d="m 262.92,540.878 -0.96,-1.44 m 0,0 0,-1.919 m 0,0 1.44,-4.321 m 0,0 0,-0.96 m 0,0 -0.48,-1.439 m 0,0 0,0 m 0,0 0.96,1.439 m 0,0 0,1.92 m 0,0 -1.44,4.32 m 0,0 0,0.96 m 0,0 0.48,1.44 m 0,0 0,0"
       style="fill:none;stroke:#231f20;stroke-width:0.47999999;stroke-linecap:butt;stroke-linejoin:miter;stroke-miterlimit:10;stroke-opacity:1;stroke-dasharray:none"
       id="path3654"
       inkscape:connector-curvature="0" /><path
       d="m 264.84,540.878 -0.96,-1.44 0,-1.919 1.44,-4.321 0,-0.96 -0.48,-1.439 0.961,1.439 0,1.92 -1.441,4.32 0,0.96 0.48,1.44"
       style="fill:#231f20;fill-opacity:1;fill-rule:nonzero;stroke:none"
       id="path3656"
       inkscape:connector-curvature="0" /><path
       d="m 264.84,540.878 -0.96,-1.44 m 0,0 0,-1.919 m 0,0 1.44,-4.321 m 0,0 0,-0.96 m 0,0 -0.48,-1.439 m 0,0 0,0 m 0,0 0.961,1.439 m 0,0 0,1.92 m 0,0 -1.441,4.32 m 0,0 0,0.96 m 0,0 0.48,1.44 m 0,0 0,0"
       style="fill:none;stroke:#231f20;stroke-width:0.47999999;stroke-linecap:butt;stroke-linejoin:miter;stroke-miterlimit:10;stroke-opacity:1;stroke-dasharray:none"
       id="path3658"
       inkscape:connector-curvature="0" /><path
       d="m 264.84,540.878 -0.96,-1.44 0,-1.919 1.44,-4.321 0,-0.96 -0.48,-1.439 -1.92,0 0.96,1.439 0,1.92 -1.44,4.32 0,0.96 0.48,1.44 1.92,0"
       style="fill:#ffffff;fill-opacity:1;fill-rule:nonzero;stroke:none"
       id="path3660"
       inkscape:connector-curvature="0" /><path
       d="m 264.84,540.878 -0.96,-1.44 m 0,0 0,-1.919 m 0,0 1.44,-4.321 m 0,0 0,-0.96 m 0,0 -0.48,-1.439 m 0,0 -1.92,0 m 0,0 0.96,1.439 m 0,0 0,1.92 m 0,0 -1.44,4.32 m 0,0 0,0.96 m 0,0 0.48,1.44 m 0,0 1.92,0"
       style="fill:none;stroke:#231f20;stroke-width:0.47999999;stroke-linecap:butt;stroke-linejoin:miter;stroke-miterlimit:10;stroke-opacity:1;stroke-dasharray:none"
       id="path3662"
       inkscape:connector-curvature="0" /><path
       d="m 262.92,528.398 -0.96,-1.44 0,-1.92 1.44,-4.321 0,-0.959 -0.48,-1.44 0.96,1.44 0,1.921 -1.44,4.319 0,0.96 0.48,1.44"
       style="fill:#231f20;fill-opacity:1;fill-rule:nonzero;stroke:none"
       id="path3664"
       inkscape:connector-curvature="0" /><path
       d="m 262.92,528.398 -0.96,-1.44 m 0,0 0,-1.92 m 0,0 1.44,-4.321 m 0,0 0,-0.959 m 0,0 -0.48,-1.44 m 0,0 0,0 m 0,0 0.96,1.44 m 0,0 0,1.921 m 0,0 -1.44,4.319 m 0,0 0,0.96 m 0,0 0.48,1.44 m 0,0 0,0"
       style="fill:none;stroke:#231f20;stroke-width:0.47999999;stroke-linecap:butt;stroke-linejoin:miter;stroke-miterlimit:10;stroke-opacity:1;stroke-dasharray:none"
       id="path3666"
       inkscape:connector-curvature="0" /><path
       d="m 264.84,528.398 -0.96,-1.44 0,-1.92 1.44,-4.321 0,-0.959 -0.48,-1.44 0.961,1.44 0,1.921 -1.441,4.319 0,0.96 0.48,1.44"
       style="fill:#231f20;fill-opacity:1;fill-rule:nonzero;stroke:none"
       id="path3668"
       inkscape:connector-curvature="0" /><path
       d="m 264.84,528.398 -0.96,-1.44 m 0,0 0,-1.92 m 0,0 1.44,-4.321 m 0,0 0,-0.959 m 0,0 -0.48,-1.44 m 0,0 0,0 m 0,0 0.961,1.44 m 0,0 0,1.921 m 0,0 -1.441,4.319 m 0,0 0,0.96 m 0,0 0.48,1.44 m 0,0 0,0"
       style="fill:none;stroke:#231f20;stroke-width:0.47999999;stroke-linecap:butt;stroke-linejoin:miter;stroke-miterlimit:10;stroke-opacity:1;stroke-dasharray:none"
       id="path3670"
       inkscape:connector-curvature="0" /><path
       d="m 264.84,528.398 -0.96,-1.44 0,-1.92 1.44,-4.321 0,-0.959 -0.48,-1.44 -1.92,0 0.96,1.44 0,1.921 -1.44,4.319 0,0.96 0.48,1.44 1.92,0"
       style="fill:#ffffff;fill-opacity:1;fill-rule:nonzero;stroke:none"
       id="path3672"
       inkscape:connector-curvature="0" /><path
       d="m 264.84,528.398 -0.96,-1.44 m 0,0 0,-1.92 m 0,0 1.44,-4.321 m 0,0 0,-0.959 m 0,0 -0.48,-1.44 m 0,0 -1.92,0 m 0,0 0.96,1.44 m 0,0 0,1.921 m 0,0 -1.44,4.319 m 0,0 0,0.96 m 0,0 0.48,1.44 m 0,0 1.92,0"
       style="fill:none;stroke:#231f20;stroke-width:0.47999999;stroke-linecap:butt;stroke-linejoin:miter;stroke-miterlimit:10;stroke-opacity:1;stroke-dasharray:none"
       id="path3674"
       inkscape:connector-curvature="0" /><path
       d="m 262.92,515.917 -0.96,-1.44 0,-1.92 1.44,-4.32 0,-0.959 -0.48,-1.441 0.96,1.441 0,1.919 -1.44,4.321 0,0.959 0.48,1.44"
       style="fill:#231f20;fill-opacity:1;fill-rule:nonzero;stroke:none"
       id="path3676"
       inkscape:connector-curvature="0" /><path
       d="m 262.92,515.917 -0.96,-1.44 m 0,0 0,-1.92 m 0,0 1.44,-4.32 m 0,0 0,-0.959 m 0,0 -0.48,-1.441 m 0,0 0,0 m 0,0 0.96,1.441 m 0,0 0,1.919 m 0,0 -1.44,4.321 m 0,0 0,0.959 m 0,0 0.48,1.44 m 0,0 0,0"
       style="fill:none;stroke:#231f20;stroke-width:0.47999999;stroke-linecap:butt;stroke-linejoin:miter;stroke-miterlimit:10;stroke-opacity:1;stroke-dasharray:none"
       id="path3678"
       inkscape:connector-curvature="0" /><path
       d="m 264.84,515.917 -0.96,-1.44 0,-1.92 1.44,-4.32 0,-0.959 -0.48,-1.441 0.961,1.441 0,1.919 -1.441,4.321 0,0.959 0.48,1.44"
       style="fill:#231f20;fill-opacity:1;fill-rule:nonzero;stroke:none"
       id="path3680"
       inkscape:connector-curvature="0" /><path
       d="m 264.84,515.917 -0.96,-1.44 m 0,0 0,-1.92 m 0,0 1.44,-4.32 m 0,0 0,-0.959 m 0,0 -0.48,-1.441 m 0,0 0,0 m 0,0 0.961,1.441 m 0,0 0,1.919 m 0,0 -1.441,4.321 m 0,0 0,0.959 m 0,0 0.48,1.44 m 0,0 0,0"
       style="fill:none;stroke:#231f20;stroke-width:0.47999999;stroke-linecap:butt;stroke-linejoin:miter;stroke-miterlimit:10;stroke-opacity:1;stroke-dasharray:none"
       id="path3682"
       inkscape:connector-curvature="0" /><path
       d="m 264.84,515.917 -0.96,-1.44 0,-1.92 1.44,-4.32 0,-0.959 -0.48,-1.441 -1.92,0 0.96,1.441 0,1.919 -1.44,4.321 0,0.959 0.48,1.44 1.92,0"
       style="fill:#ffffff;fill-opacity:1;fill-rule:nonzero;stroke:none"
       id="path3684"
       inkscape:connector-curvature="0" /><path
       d="m 264.84,515.917 -0.96,-1.44 m 0,0 0,-1.92 m 0,0 1.44,-4.32 m 0,0 0,-0.959 m 0,0 -0.48,-1.441 m 0,0 -1.92,0 m 0,0 0.96,1.441 m 0,0 0,1.919 m 0,0 -1.44,4.321 m 0,0 0,0.959 m 0,0 0.48,1.44 m 0,0 1.92,0"
       style="fill:none;stroke:#231f20;stroke-width:0.47999999;stroke-linecap:butt;stroke-linejoin:miter;stroke-miterlimit:10;stroke-opacity:1;stroke-dasharray:none"
       id="path3686"
       inkscape:connector-curvature="0" /><path
       d="m 262.92,503.438 -0.96,-1.441 0,-1.92 1.44,-4.321 0,-0.96 -0.48,-1.439 0.96,1.439 0,1.92 -1.44,4.321 0,0.96 0.48,1.441"
       style="fill:#231f20;fill-opacity:1;fill-rule:nonzero;stroke:none"
       id="path3688"
       inkscape:connector-curvature="0" /><path
       d="m 262.92,503.438 -0.96,-1.441 m 0,0 0,-1.92 m 0,0 1.44,-4.321 m 0,0 0,-0.96 m 0,0 -0.48,-1.439 m 0,0 0,0 m 0,0 0.96,1.439 m 0,0 0,1.92 m 0,0 -1.44,4.321 m 0,0 0,0.96 m 0,0 0.48,1.441 m 0,0 0,0"
       style="fill:none;stroke:#231f20;stroke-width:0.47999999;stroke-linecap:butt;stroke-linejoin:miter;stroke-miterlimit:10;stroke-opacity:1;stroke-dasharray:none"
       id="path3690"
       inkscape:connector-curvature="0" /><path
       d="m 264.84,503.438 -0.96,-1.441 0,-1.92 1.44,-4.321 0,-0.96 -0.48,-1.439 0.961,1.439 0,1.92 -1.441,4.321 0,0.96 0.48,1.441"
       style="fill:#231f20;fill-opacity:1;fill-rule:nonzero;stroke:none"
       id="path3692"
       inkscape:connector-curvature="0" /><path
       d="m 264.84,503.438 -0.96,-1.441 m 0,0 0,-1.92 m 0,0 1.44,-4.321 m 0,0 0,-0.96 m 0,0 -0.48,-1.439 m 0,0 0,0 m 0,0 0.961,1.439 m 0,0 0,1.92 m 0,0 -1.441,4.321 m 0,0 0,0.96 m 0,0 0.48,1.441 m 0,0 0,0"
       style="fill:none;stroke:#231f20;stroke-width:0.47999999;stroke-linecap:butt;stroke-linejoin:miter;stroke-miterlimit:10;stroke-opacity:1;stroke-dasharray:none"
       id="path3694"
       inkscape:connector-curvature="0" /><path
       d="m 264.84,503.438 -0.96,-1.441 0,-1.92 1.44,-4.321 0,-0.96 -0.48,-1.439 -1.92,0 0.96,1.439 0,1.92 -1.44,4.321 0,0.96 0.48,1.441 1.92,0"
       style="fill:#ffffff;fill-opacity:1;fill-rule:nonzero;stroke:none"
       id="path3696"
       inkscape:connector-curvature="0" /><path
       d="m 264.84,503.438 -0.96,-1.441 m 0,0 0,-1.92 m 0,0 1.44,-4.321 m 0,0 0,-0.96 m 0,0 -0.48,-1.439 m 0,0 -1.92,0 m 0,0 0.96,1.439 m 0,0 0,1.92 m 0,0 -1.44,4.321 m 0,0 0,0.96 m 0,0 0.48,1.441 m 0,0 1.92,0"
       style="fill:none;stroke:#231f20;stroke-width:0.47999999;stroke-linecap:butt;stroke-linejoin:miter;stroke-miterlimit:10;stroke-opacity:1;stroke-dasharray:none"
       id="path3698"
       inkscape:connector-curvature="0" /><path
       d="m 262.92,490.956 -0.96,-1.439 0,-1.92 1.44,-4.32 0,-0.96 -0.48,-1.441 0.96,1.441 0,1.919 -1.44,4.32 0,0.961 0.48,1.439"
       style="fill:#231f20;fill-opacity:1;fill-rule:nonzero;stroke:none"
       id="path3700"
       inkscape:connector-curvature="0" /><g
       id="g3702"><g
         id="g3704"
         clip-path="url(#clipPath3706)"><path
           d="m 262.92,490.956 -0.96,-1.439 m 0,0 0,-1.92 m 0,0 1.44,-4.32 m 0,0 0,-0.96 m 0,0 -0.48,-1.441 m 0,0 0,0 m 0,0 0.96,1.441 m 0,0 0,1.919 m 0,0 -1.44,4.32 m 0,0 0,0.961 m 0,0 0.48,1.439 m 0,0 0,0"
           style="fill:none;stroke:#231f20;stroke-width:0.47999999;stroke-linecap:butt;stroke-linejoin:miter;stroke-miterlimit:10;stroke-opacity:1;stroke-dasharray:none"
           id="path3710"
           inkscape:connector-curvature="0" /></g></g><path
       d="m 264.84,490.956 -0.96,-1.439 0,-1.92 1.44,-4.32 0,-0.96 -0.48,-1.441 0.961,1.441 0,1.919 -1.441,4.32 0,0.961 0.48,1.439"
       style="fill:#231f20;fill-opacity:1;fill-rule:nonzero;stroke:none"
       id="path3712"
       inkscape:connector-curvature="0" /><g
       id="g3714"><g
         id="g3716"
         clip-path="url(#clipPath3718)"><path
           d="m 264.84,490.956 -0.96,-1.439 m 0,0 0,-1.92 m 0,0 1.44,-4.32 m 0,0 0,-0.96 m 0,0 -0.48,-1.441 m 0,0 0,0 m 0,0 0.961,1.441 m 0,0 0,1.919 m 0,0 -1.441,4.32 m 0,0 0,0.961 m 0,0 0.48,1.439 m 0,0 0,0"
           style="fill:none;stroke:#231f20;stroke-width:0.47999999;stroke-linecap:butt;stroke-linejoin:miter;stroke-miterlimit:10;stroke-opacity:1;stroke-dasharray:none"
           id="path3722"
           inkscape:connector-curvature="0" /></g></g><path
       d="m 264.84,490.956 -0.96,-1.439 0,-1.92 1.44,-4.32 0,-0.96 -0.48,-1.441 -1.92,0 0.96,1.441 0,1.919 -1.44,4.32 0,0.961 0.48,1.439 1.92,0"
       style="fill:#ffffff;fill-opacity:1;fill-rule:nonzero;stroke:none"
       id="path3724"
       inkscape:connector-curvature="0" /><g
       id="g3726"><g
         id="g3728"
         clip-path="url(#clipPath3730)"><path
           d="m 264.84,490.956 -0.96,-1.439 m 0,0 0,-1.92 m 0,0 1.44,-4.32 m 0,0 0,-0.96 m 0,0 -0.48,-1.441 m 0,0 -1.92,0 m 0,0 0.96,1.441 m 0,0 0,1.919 m 0,0 -1.44,4.32 m 0,0 0,0.961 m 0,0 0.48,1.439 m 0,0 1.92,0"
           style="fill:none;stroke:#231f20;stroke-width:0.47999999;stroke-linecap:butt;stroke-linejoin:miter;stroke-miterlimit:10;stroke-opacity:1;stroke-dasharray:none"
           id="path3734"
           inkscape:connector-curvature="0" /></g></g><text
       transform="matrix(0.99998398,0,0,-1,186.1173,557.1995)"
       id="text3736"><tspan
         style="font-size:6.24030018px;font-variant:normal;font-weight:normal;writing-mode:lr-tb;fill:#231f20;fill-opacity:1;fill-rule:nonzero;stroke:none;font-family:Helvetica;-inkscape-font-specification:Helvetica"
         x="0 11.519594 24.481321 52.325539 75.843979 -20.161161 148.94348 162.71394 200.3517"
         y="0"
         sodipodi:role="line"
         id="tspan3738">BCDEFAGHI</tspan></text>
</g></svg>